<?xml version="1.0" encoding="UTF-8"?><svg id="Layer_1" xmlns="http://www.w3.org/2000/svg" xmlns:xlink="http://www.w3.org/1999/xlink" viewBox="0 0 184.74 184.74"><defs><style>.cls-1{fill:#d87b46;filter:url(#drop-shadow-1);}.cls-1,.cls-2{stroke:#93278f;}.cls-1,.cls-2,.cls-3{stroke-miterlimit:10;}.cls-4,.cls-5{fill:#ecc64e;}.cls-2{fill:#90ccaf;stroke-width:2px;}.cls-3{fill:#8500ff;stroke:#e9bb00;}.cls-6{opacity:.75;}.cls-6,.cls-7{fill:#ecc6ff;}.cls-5{opacity:.42;}.cls-7{opacity:.39;}</style><filter id="drop-shadow-1" filterUnits="userSpaceOnUse"><feOffset dx="4" dy="3"/><feGaussianBlur result="blur" stdDeviation="3"/><feFlood flood-color="#000" flood-opacity=".63"/><feComposite in2="blur" operator="in"/><feComposite in="SourceGraphic"/></filter></defs><circle class="cls-2" cx="92.37" cy="92.37" r="91.37"/><polygon class="cls-5" points="112.34 55.16 140.57 27.22 122.63 62.66 158.41 45.4 129.93 73.09 169.37 68.39 133.45 85.33 172.28 93.68 132.8 98.05 166.82 118.56 128.06 109.87 153.57 140.31 119.74 119.5 133.98 156.58 108.74 125.92 110.17 165.61 96.25 128.41 84.72 166.42 83.63 126.71 60.38 158.92 72.25 121.01 39.8 143.92 63.33 111.92 25.2 123.06 57.85 100.43 18.17 98.58 56.39 87.78 19.46 73.15 59.12 75.35 28.95 49.52 65.75 64.47 45.59 30.24 75.54 56.33 67.59 17.42 87.45 51.82 92.56 12.43 100.17 51.42 117.8 15.82 112.34 55.16"/><polygon class="cls-4" points="94.68 50.47 107.41 12.85 107.24 52.57 131.5 21.11 118.44 58.63 151.59 36.76 127.06 67.99 165.52 58.07 132.17 79.65 171.77 82.76 133.23 92.34 169.67 108.14 130.1 104.69 159.44 131.46 123.14 115.35 142.19 150.2 113.09 123.17 119.8 162.32 101.04 127.3 94.68 166.51 88.31 127.3 69.56 162.32 76.27 123.17 47.16 150.2 66.22 115.35 29.92 131.46 59.26 104.69 19.69 108.14 56.13 92.34 17.58 82.76 57.18 79.65 23.84 58.07 62.3 67.99 37.76 36.76 70.92 58.63 57.86 21.11 82.12 52.57 81.95 12.85 94.68 50.47"/><polygon class="cls-6" points="105.99 62.91 123.49 39.94 114.15 67.27 138.16 51.23 120.46 74.04 148.38 66.67 124.23 82.5 153.03 84.59 125.05 91.71 151.61 103.04 122.83 100.7 144.27 120.04 117.81 108.48 131.81 133.73 110.54 114.21 115.58 142.64 101.8 117.26 97.34 145.79 92.55 117.32 79.06 142.85 83.77 114.36 62.73 134.13 76.44 108.72 50.11 120.59 71.33 101 42.58 103.68 69.01 92.04 40.94 85.24 69.72 82.81 45.38 67.27 73.38 74.31 55.42 51.71 79.61 67.47 69.96 40.26 87.73 63.02 87.43 34.14 96.85 61.44 105.95 34.04 105.99 62.91"/><path class="cls-1" d="M86.88,60.59c-1.07-1.16-2.68-2.68-4.93-4.06-1.31-.81-3.21-1.95-5.93-2.58-4.31-.99-8.16-.05-10.64,.47-.33,.07-.64,.15-.95,.24-2.28,.65-1.8,.9-4.74,1.83-2.39,.76-5.58,1.77-9.51,1.58-2.81-.13-5.63-.26-8.06-2.3-2.36-1.99-4.46-5.88-3.06-8.6,1.11-2.16,4.07-2.89,4.76-3.06,1.01-.25,1.1-.08,3.16-.24,3.41-.27,5.18-.41,6.84-1.54,.61-.42,2.25-1.54,2.6-3.61,.03-.2,.39-2.51-1.31-4.21-.26-.26-1.76-1.76-3.81-1.33-1.91,.4-2.74,2.15-2.82,2.35,.75,.7,1.43,.94,1.91,1.04,.76,.15,1.19-.05,2.22,.08,.69,.09,1.24,.27,1.59,.41-.45,.45-.89,.7-1.26,.86-2.02,.84-3.92-.97-6.03-1.73-4.28-1.54-8.97,1.21-11.05,2.43-1.57,.92-4.68,2.75-6.37,6.5-.85,1.88-1,3.5-1.11,4.86-.08,1.02-.32,4.72,1.79,10.84,1.63,4.72,3.09,8.95,7.19,12.48,2.19,1.89,4.4,2.94,5.94,3.53,1.72,.21,3.16,.27,4.22,.27,.81,0,1.98-.04,4.32-.15,1.6-.07,1.74-.09,1.9-.12,1.01-.21,2.37-.81,3.77-2.57,.18,1.12-.09,1.77-.3,2.11-.84,1.4-3.22,2.07-5.04,2.05-.62,0-1.1-.09-1.37,.22-.53,.61,.26,2.08,.55,2.63,1.77,3.32,9.69,10.1,12.46,12.43,.68,.85,1.62,2.19,2.36,3.98,1.45,3.52,1.18,6.5,1.14,8.64-.08,4.28,.85,7.87,2.78,15.05,.88,3.27,2.33,7.78,4.83,13.01,.53-2.23,.89-4.04,1.12-5.26,.69-3.67,.91-5.8,1.84-9.41,.25-.96,.47-1.74,.61-2.22,.07,1.24,.12,2.94,.05,4.96-.08,2.15-.35,6.01-1.48,10.77-2.11,8.87-4.52,9.6-4.81,15.23-.1,1.9,.1,3.46-.9,5.39-1.01,1.96-2.68,3.22-2.27,4.66,.16,.56,.56,.93,.85,1.15,1.82,.72,4.75,1.63,8.45,1.71,3.54,.08,6.39-.63,8.21-1.24,.24-.73,.46-1.79,.18-2.95-.34-1.41-1.02-1.33-1.72-2.83-1-2.16-.69-4.73-.39-7.17,0-.05,.01-.09,.01-.11,.3-2.37,.74-3.94,1.1-4.96-1.58,5.74-.94,8.48,0,9.91,.22,.34,1.14,1.66,1.83,3.57,.37,1.01,.58,1.96,.66,2.95,.05,.64,.04,1.18,.02,1.58,.61,.15,1.61,.29,2.74-.03,.61-.17,1.33-.37,1.68-.97,.44-.75,.06-1.73-.34-2.63-1.12-2.49-2.24-3.86-2.9-4.93-.64-1.04-1.02-3.12-1.76-7.26-.75-4.2-1.13-6.3-.92-7.58,.09-.56,.11-.43,2.99-6.88,.99-2.23,1.49-3.37,2.31-3.41,.73-.04,1.11,.85,2.43,2.31,1.51,1.67,1.9,1.48,3.93,3.34,.54,.49,2.33,2.16,4.16,4.7,1.38,1.92,2.18,3.51,2.9,4.93,1.22,2.43,1.88,3.75,2.27,5.78,.42,2.17,.65,3.34,.15,4.74-.41,1.15-1.14,2.03-1.23,3.7-.03,.67,.05,1.22,.12,1.58,.71,.48,1.86,1.13,3.39,1.44,2.32,.48,4.15-.08,5.79-.58,2.45-.75,3.88-1.19,4.51-2.47,.38-.77,.25-1.39-.58-5.06-.71-3.15-1.06-4.73-1.1-4.84-1.38-3.98-2.93-4.11-3.44-7.03-.36-2.07-.09-4.94,1.32-5.6,1.25-.59,2.3,1.1,4.65,.69,1.67-.29,2.29-1.34,3.15-.98,.93,.39,1.09,1.98,1.19,2.94,.6,5.75,1.15,11.01,1.94,14.53,.3,1.37,.63,2.42,.25,3.79-.43,1.57-1.41,2.18-1.33,3.7,0,0,.06,1.07,.76,2,1.31,1.73,4.87,1.95,8.76,.44,.36-.28,.94-.8,1.36-1.6,.8-1.55,.48-3.19,.39-3.69-.86-4.83-.02-18.5,.61-24.16,.56-5.06,1.59-9.93,1.59-9.93,.86-5.96,1.81-6.59,1.69-10.35-.02-.59-.12-2.91-.48-5.9-.16-1.3-.32-2.38-.45-3.16,.55,.76,1.44,1.89,2.67,3.14,1.89,1.92,2.86,2.87,4.21,2.92,1.32,.05,2.39-.77,3.5-1.63,1.01-.77,1.85-1.43,2.31-2.51,1.16-2.78-1.4-5.54,.02-7.42,.32-.42,.72-.64,.94-.75,1.66-1.14,2.09-1.96,1.98-2.55-.08-.46-.45-.61-.75-1.15-.36-.66-.46-1.62,.08-3.06-1.23,.44-1.69,1.04-1.88,1.49-.3,.69-.04,1.22-.19,2.43-.1,.83-.33,1.48-.51,1.9-.48,.39-1.1,1.01-1.35,1.91-.52,1.88,1.13,2.98,1,4.83-.15,2.22-2.78,4.61-4.81,4.38-1.56-.17-2-1.8-5.15-5.6-1.34-1.62-2.55-2.87-3.38-3.7-.38-1.45-1.14-3.7-2.7-6.09-2.49-3.81-5.69-5.89-8.72-7.82-1.9-1.21-3.42-1.94-6.47-3.42-6.37-3.08-7.65-3.03-9.66-3.85-1.08-.44-1.32-.69-2.52-1.3-2.24-1.15-4.09-1.78-4.64-1.96-1.07-.35-2.52-.76-4.29-1.05-.39,1.82-.82,3.38-1.2,4.61-.6,1.93-1.37,4.37-2.91,7.24-.81,1.5-1.58,2.68-2.41,3.93-1.14,1.72-1.7,2.59-2.22,3.12-.89,.89-3,3.04-6.25,3.16-.78,.03-2.4-.02-4.06-.91-1.74-.92-2.64-2.28-3.73-3.91-.95-1.43-1.53-2.72-1.88-3.6,1.27,1.32,2.9,2.89,4.91,4.55,1.63,1.34,2.09,1.58,2.58,1.73,3.48,1.09,7.2-2.43,7.36-2.59,.11-.1,.17-.18,.3-.32,.92-.99,2.81-3.21,4.6-7.55,.37-.89,.71-1.95,1.4-4.05,2.03-6.19,2.55-8.79,2.68-11.46,.11-2.37-.17-3.25-.62-3.93-1.29-1.99-3.91-2.31-4.85-2.43-3.62-.44-6.42,1.52-7.29,2.18Z"/><path class="cls-4" d="M73.75,59.09c-.04,.59-.14,1.42-.4,2.38-.18,.67-.48,1.76-1.04,2.55-1.31,1.85-4.01,2-4.71,2.02,1.26,.02,3.1,.25,4.39,1.53,2.25,2.23,1.69,6.53,1.91,6.52,.23,0-.47-4.1,1.66-6.43,1.12-1.22,2.69-1.59,3.71-1.73-.83-.06-2.88-.32-4.01-1.84-.53-.71-.77-1.58-1.06-2.62-.27-.97-.39-1.8-.45-2.39Z"/><circle class="cls-3" cx="73.73" cy="65.9" r="1.67"/><path class="cls-7" d="M81.43,86.49c1.81,1.03,3.22,1.83,4.9,1.58,1.19-.17,2.19-.83,3.41-2.09,2.1-2.19,3.08-4.38,4.83-8.77,2.18-5.45,3.12-8.18,3.2-11.72,.04-1.45-.08-2.9-1.08-3.91-1.37-1.39-3.59-1.15-4.29-1.07-2.54,.28-4.16,1.93-4.68,2.51,.23,1.95,.28,4.71-.56,7.82-2.04,7.52-7.82,11.53-9.62,12.69,1.47,1.46,2.88,2.39,3.89,2.96Z"/></svg>