<?xml version="1.0" encoding="UTF-8"?><svg id="Layer_1" xmlns="http://www.w3.org/2000/svg" xmlns:xlink="http://www.w3.org/1999/xlink" viewBox="0 0 191.8 191.8"><defs><style>.cls-1{fill:#ebc44c;filter:url(#drop-shadow-4);}.cls-1,.cls-2,.cls-3,.cls-4,.cls-5{stroke:#000;stroke-miterlimit:10;}.cls-2{fill:#84b56c;filter:url(#drop-shadow-6);}.cls-3{fill:#d97a45;filter:url(#drop-shadow-2);}.cls-4{filter:url(#drop-shadow-5);}.cls-4,.cls-5{fill:#0b3249;}.cls-5{filter:url(#drop-shadow-3);}.cls-6{fill:#231f20;}.cls-7{fill:#52a6ae;}.cls-8{filter:url(#outer-glow-1);}</style><filter id="outer-glow-1" filterUnits="userSpaceOnUse"><feOffset dx="0" dy="0"/><feGaussianBlur result="blur" stdDeviation="4"/><feFlood flood-color="#eefffa" flood-opacity="1"/><feComposite in2="blur" operator="in"/><feComposite in="SourceGraphic"/></filter><filter id="drop-shadow-2" filterUnits="userSpaceOnUse"><feOffset dx="5" dy="4"/><feGaussianBlur result="blur-2" stdDeviation="2"/><feFlood flood-color="#000" flood-opacity=".63"/><feComposite in2="blur-2" operator="in"/><feComposite in="SourceGraphic"/></filter><filter id="drop-shadow-3" filterUnits="userSpaceOnUse"><feOffset dx="5" dy="4"/><feGaussianBlur result="blur-3" stdDeviation="2"/><feFlood flood-color="#000" flood-opacity=".63"/><feComposite in2="blur-3" operator="in"/><feComposite in="SourceGraphic"/></filter><filter id="drop-shadow-4" filterUnits="userSpaceOnUse"><feOffset dx="5" dy="4"/><feGaussianBlur result="blur-4" stdDeviation="2"/><feFlood flood-color="#000" flood-opacity=".63"/><feComposite in2="blur-4" operator="in"/><feComposite in="SourceGraphic"/></filter><filter id="drop-shadow-5" filterUnits="userSpaceOnUse"><feOffset dx="5" dy="4"/><feGaussianBlur result="blur-5" stdDeviation="2"/><feFlood flood-color="#000" flood-opacity=".63"/><feComposite in2="blur-5" operator="in"/><feComposite in="SourceGraphic"/></filter><filter id="drop-shadow-6" filterUnits="userSpaceOnUse"><feOffset dx="5" dy="4"/><feGaussianBlur result="blur-6" stdDeviation="2"/><feFlood flood-color="#000" flood-opacity=".63"/><feComposite in2="blur-6" operator="in"/><feComposite in="SourceGraphic"/></filter></defs><path class="cls-7" d="M191.8,95.89c0,52.96-42.93,95.89-95.89,95.89-38.36,0-64.7-24.94-68.24-28.52C23.98,159.51-.93,133.49,.03,95.89,1.16,51.06,38.78,0,95.91,0c52.96,0,95.89,42.93,95.89,95.89Z"/><path id="Icon_awesome-microphone-alt" d="M135.82,111.14h-3.99c-2.2,0-3.99,1.79-3.99,3.99v11.97c-.02,17.66-14.35,31.95-32,31.93-1.04,0-2.08-.05-3.12-.16-16.64-2.12-29.03-16.42-28.74-33.2v-10.55c0-2.2-1.79-3.99-3.99-3.99h-3.99c-2.2,0-3.99,1.79-3.99,3.99v10.02c-.32,22.41,15.8,41.69,37.92,45.33v8.52h-13.97c-2.2,0-3.99,1.79-3.99,3.99h0v4c0,.19,.04,.66,.35,1.11,.44,.64,1.11,.8,1.27,.83,2.42,.63,4.98,1.18,7.69,1.64,10.3,1.73,19.56,1.43,27.09,.46,5.21-.71,9.02-1.45,10.09-1.9,.23-.1,.8-.33,1.13-.9,.31-.53,.29-1.05,.27-1.23v-3.99c0-2.2-1.79-3.99-3.99-3.99h-13.97v-8.42c21.71-3.01,37.88-21.55,37.92-43.47v-11.97c0-2.2-1.79-3.99-3.99-3.99Zm-39.92,39.92c13.23,0,23.95-10.72,23.95-23.95h-21.29c-1.47,0-2.66-.89-2.66-1.99v-3.99c0-1.1,1.19-1.99,2.66-1.99h21.29v-7.99h-21.29c-1.47,0-2.66-.89-2.66-1.99v-3.99c0-1.1,1.19-1.99,2.66-1.99h21.29v-7.99h-21.29c-1.47,0-2.66-.89-2.66-1.99v-3.99c0-1.1,1.19-1.99,2.66-1.99h21.29c0-13.23-10.72-23.95-23.95-23.95-13.23,0-23.95,10.72-23.95,23.95v39.91c0,13.23,10.72,23.95,23.95,23.95Z"/><g class="cls-8"><path class="cls-6" d="M42.79,43.17c.32-.07,.65,.02,.99,.27,.7,.52,.75,1.2,.13,2.02l-3.68,4.94c-.61,.83-1.27,.98-1.98,.46-.34-.25-.52-.54-.55-.87-.02-.33,.13-.7,.44-1.13l.86-1.15-5.14-3.83-.18,1.64c-.03,.23-.1,.43-.23,.6-.2,.27-.48,.41-.86,.42-.37,.02-.7-.08-.99-.29-.39-.29-.56-.68-.51-1.16l.37-3.26c.07-.59,.25-1.08,.52-1.45,.28-.38,.62-.6,1.02-.66,.4-.06,.8,.05,1.19,.34l6.75,5.03,.87-1.17c.32-.43,.64-.68,.96-.75Z"/><path class="cls-6" d="M44.77,42.22c-1.36-.2-2.77-1.03-4.25-2.5-1.47-1.46-2.3-2.87-2.51-4.23-.2-1.35,.24-2.58,1.33-3.68,1.09-1.09,2.31-1.54,3.67-1.35,1.36,.19,2.77,1.02,4.24,2.48,1.48,1.47,2.32,2.88,2.52,4.24,.2,1.35-.24,2.58-1.33,3.68-1.09,1.1-2.32,1.55-3.67,1.35Zm2.14-4.61c-.26-.61-.89-1.41-1.89-2.41-.99-.99-1.79-1.61-2.4-1.86s-1.12-.19-1.52,.22c-.4,.4-.47,.91-.22,1.51,.26,.61,.88,1.41,1.88,2.4,1,.99,1.8,1.62,2.41,1.88,.61,.26,1.12,.19,1.52-.22,.4-.4,.47-.91,.21-1.52Z"/><path class="cls-6" d="M63.91,14.7c.14-.29,.36-.51,.63-.66,.34-.19,.7-.25,1.07-.18,.37,.07,.67,.3,.87,.67,.09,.17,.17,.4,.23,.69l1.64,10.16c.06,.35,0,.68-.18,.99-.18,.31-.44,.56-.77,.75-.33,.19-.67,.28-1.03,.27-.36,0-.67-.13-.94-.36l-5.25-4.6,1.13,6.92c.05,.35-.02,.68-.19,.99-.18,.31-.43,.56-.75,.74-.33,.19-.67,.27-1.03,.27-.36,0-.67-.13-.94-.36l-7.87-6.65c-.19-.16-.33-.34-.44-.53-.22-.38-.25-.76-.1-1.14,.15-.38,.4-.67,.76-.87,.29-.16,.6-.24,.92-.23,.33,.01,.63,.14,.9,.38l5.55,4.9-1.19-7.36c-.06-.35-.02-.66,.13-.95,.15-.29,.36-.51,.63-.66s.57-.22,.89-.2c.31,.03,.61,.16,.88,.4l5.61,5.03-1.3-7.48c-.06-.35-.02-.66,.13-.95Z"/><path class="cls-6" d="M73.71,23.85c-.81-.12-1.51-.45-2.1-.97-.59-.53-1.04-1.23-1.33-2.1s-.36-1.7-.2-2.47c.16-.77,.53-1.44,1.09-2.02,.57-.58,1.31-1.02,2.23-1.32,.92-.31,1.78-.4,2.58-.28,.8,.12,1.5,.44,2.09,.96,.59,.52,1.03,1.22,1.32,2.09,.29,.88,.36,1.7,.2,2.48-.16,.78-.52,1.46-1.09,2.04-.57,.58-1.31,1.03-2.23,1.33-.91,.3-1.77,.39-2.58,.27Zm2.74-5.13c-.46-1.39-1.23-1.91-2.3-1.55-1.07,.35-1.37,1.23-.9,2.62,.46,1.39,1.23,1.91,2.3,1.56,1.07-.36,1.37-1.23,.9-2.62Z"/><path class="cls-6" d="M86.54,12.02c.28,.17,.45,.46,.54,.88,.09,.46,.05,.82-.12,1.07-.17,.25-.53,.46-1.08,.63l-.51,.16c-.57,.19-.94,.45-1.13,.8-.19,.35-.23,.77-.13,1.29l.6,2.98c.09,.48,.02,.86-.23,1.16s-.59,.49-1.03,.58c-.44,.09-.83,.04-1.18-.13-.34-.18-.56-.51-.66-.98l-1.21-6.02c-.09-.44-.01-.81,.24-1.12,.25-.3,.58-.5,1-.58,.43-.09,.8-.04,1.11,.14s.5,.48,.59,.9l.07,.33c.08-.55,.31-1,.68-1.37,.37-.36,.78-.6,1.24-.72l.24-.07c.39-.11,.72-.09,.99,.08Z"/><path class="cls-6" d="M90.21,20.26c-.55-.07-1.05-.22-1.48-.44-.17-.07-.31-.2-.43-.39-.11-.19-.18-.41-.2-.66-.03-.32,.03-.59,.19-.81,.15-.22,.36-.34,.62-.37,.18-.02,.34-.01,.5,.02s.35,.08,.58,.15c.39,.1,.73,.17,1.03,.21,.29,.04,.67,.05,1.11,0,.32-.03,.56-.1,.74-.2,.17-.1,.25-.24,.24-.41-.01-.13-.07-.23-.16-.29-.09-.06-.27-.12-.52-.16-.25-.04-.68-.1-1.28-.16-1.07-.11-1.85-.34-2.35-.71-.5-.36-.79-.92-.85-1.66-.05-.54,.07-1.05,.37-1.51s.73-.85,1.3-1.15c.57-.3,1.22-.48,1.95-.55,.53-.05,1.05-.03,1.56,.06,.51,.08,.97,.23,1.38,.43,.38,.18,.6,.5,.64,.98,.03,.33-.03,.62-.19,.86-.16,.24-.36,.37-.62,.39-.31,.03-.68-.04-1.12-.2-.29-.1-.55-.18-.78-.22-.22-.04-.48-.05-.78-.03s-.52,.09-.68,.19c-.16,.1-.23,.24-.21,.4,.02,.19,.15,.33,.38,.41,.24,.09,.71,.16,1.4,.23,1.16,.1,2,.33,2.5,.69,.51,.36,.8,.93,.87,1.7,.08,.86-.22,1.58-.88,2.16s-1.6,.92-2.8,1.03c-.79,.07-1.46,.07-2.01,0Z"/><path class="cls-6" d="M105.59,12.02c.47,.64,.68,1.59,.63,2.86l-.15,3.83c-.02,.45-.17,.8-.47,1.05-.29,.25-.68,.36-1.17,.35-.49-.02-.86-.16-1.14-.44-.27-.27-.4-.63-.38-1.08l.15-3.9c.03-.85-.32-1.29-1.05-1.32-.47-.02-.85,.12-1.14,.41-.29,.29-.44,.69-.46,1.2l-.14,3.51c-.02,.45-.17,.8-.47,1.05-.29,.25-.68,.36-1.17,.34-.49-.02-.86-.16-1.14-.44-.27-.27-.4-.63-.38-1.08l.39-9.82c.02-.42,.18-.75,.48-1,.31-.25,.7-.37,1.19-.35,.46,.02,.83,.16,1.1,.42,.27,.26,.4,.6,.39,1.01l-.14,3.55c.34-.4,.74-.7,1.23-.89,.48-.19,1.02-.28,1.61-.26,1.02,.04,1.76,.38,2.23,1.02Z"/><path class="cls-6" d="M107.95,20.17c-.26-.28-.36-.67-.29-1.15l.88-6.04c.07-.48,.27-.82,.61-1.01,.33-.2,.72-.26,1.17-.2s.8,.24,1.06,.52c.26,.28,.36,.67,.29,1.15l-.88,6.04c-.07,.48-.27,.82-.61,1.01-.33,.2-.72,.26-1.17,.2s-.8-.24-1.06-.52Zm1.35-10.23c-.27-.32-.37-.71-.31-1.17,.07-.46,.27-.8,.62-1.02,.35-.22,.79-.3,1.32-.22,.51,.08,.91,.27,1.19,.59,.28,.31,.38,.7,.32,1.16-.07,.46-.28,.8-.63,1.03-.35,.23-.79,.31-1.32,.23-.53-.08-.93-.27-1.2-.6Z"/><path class="cls-6" d="M121.76,14.8c.47,.52,.78,1.16,.92,1.92s.1,1.57-.13,2.44c-.23,.87-.58,1.59-1.07,2.17-.49,.58-1.06,.97-1.71,1.18-.65,.21-1.35,.22-2.08,.03-.54-.14-1.01-.38-1.4-.71-.4-.34-.67-.72-.83-1.15l-.76,2.92c-.1,.4-.32,.68-.66,.85s-.73,.2-1.18,.08c-.47-.12-.81-.35-1.03-.68-.22-.33-.28-.7-.17-1.1l2.34-9.02c.11-.42,.33-.73,.67-.92,.34-.19,.73-.22,1.19-.1,.44,.11,.76,.32,.97,.62s.28,.64,.22,1.03c.34-.34,.78-.56,1.3-.67,.52-.11,1.07-.09,1.63,.05,.72,.19,1.32,.54,1.79,1.06Zm-3.06,4.99c.37-.28,.65-.75,.82-1.42,.18-.7,.18-1.27-.01-1.72-.19-.45-.55-.74-1.08-.88-.53-.14-.98-.06-1.36,.23-.38,.29-.66,.78-.84,1.47-.17,.68-.17,1.23,.03,1.67,.19,.44,.56,.72,1.1,.86,.53,.14,.98,.06,1.35-.22Z"/><path class="cls-6" d="M129.05,26.4c-.62-.56-1.08-1.12-1.38-1.68-.11-.23-.16-.44-.17-.63,0-.19,.06-.4,.18-.63,.16-.31,.4-.54,.71-.67,.31-.13,.59-.13,.84,0,.14,.07,.26,.16,.36,.27,.1,.11,.22,.27,.35,.48,.31,.46,.64,.86,1.01,1.19,.37,.33,.82,.63,1.36,.91,.62,.32,1.14,.47,1.55,.46,.42-.02,.72-.2,.9-.56,.13-.24,.08-.53-.13-.85-.21-.33-.69-.79-1.44-1.4-.93-.76-1.6-1.45-2.03-2.06-.43-.61-.66-1.18-.68-1.72-.02-.54,.12-1.1,.43-1.69,.35-.67,.86-1.18,1.55-1.52,.68-.34,1.45-.48,2.31-.43,.86,.05,1.72,.3,2.6,.76,.77,.4,1.41,.84,1.92,1.32,.51,.48,.92,1.02,1.23,1.64,.12,.23,.18,.45,.18,.64,0,.19-.06,.4-.17,.62-.16,.31-.4,.54-.7,.68-.3,.14-.58,.14-.83,0-.14-.07-.25-.15-.35-.25s-.22-.26-.36-.5c-.04-.06-.14-.22-.32-.48-.18-.26-.41-.51-.7-.76-.29-.25-.63-.48-1.02-.68-.54-.28-1.02-.4-1.45-.36-.43,.04-.74,.22-.91,.56-.1,.2-.13,.39-.08,.58,.05,.19,.2,.42,.45,.7,.25,.29,.66,.65,1.21,1.1,.89,.74,1.55,1.42,1.97,2.03,.42,.61,.64,1.18,.67,1.72,.03,.53-.1,1.08-.39,1.64-.36,.69-.87,1.2-1.54,1.53-.66,.33-1.42,.46-2.27,.38s-1.73-.35-2.66-.83c-.84-.44-1.57-.93-2.2-1.49Z"/><path class="cls-6" d="M138.71,31.62c-.37-.73-.51-1.49-.43-2.28,.08-.79,.4-1.55,.94-2.3,.54-.75,1.18-1.28,1.9-1.59,.72-.31,1.48-.41,2.28-.28,.8,.13,1.59,.48,2.37,1.05,.78,.57,1.36,1.22,1.73,1.94,.37,.72,.51,1.48,.43,2.26-.08,.78-.39,1.55-.94,2.29-.54,.75-1.18,1.28-1.9,1.6-.72,.32-1.49,.42-2.29,.29-.8-.12-1.6-.47-2.38-1.05-.77-.56-1.34-1.21-1.71-1.94Zm5.77-.75c.86-1.19,.84-2.11-.06-2.77-.91-.66-1.79-.4-2.66,.78-.87,1.18-.84,2.11,.06,2.77,.91,.66,1.79,.4,2.66-.78Z"/><path class="cls-6" d="M156.61,36.95c-.07,.8-.55,1.65-1.43,2.56l-2.68,2.74c-.31,.32-.66,.48-1.05,.46-.39-.01-.75-.19-1.1-.53-.35-.34-.53-.7-.55-1.09-.02-.38,.13-.74,.44-1.06l2.58-2.64c.36-.37,.56-.71,.6-1,.03-.3-.08-.57-.34-.83-.34-.33-.71-.49-1.12-.46-.41,.02-.79,.21-1.15,.58l-2.46,2.51c-.31,.32-.67,.48-1.05,.46-.39-.01-.75-.19-1.1-.53-.35-.34-.53-.7-.55-1.09-.02-.38,.12-.74,.44-1.06l4.29-4.39c.29-.3,.63-.44,1.03-.42,.4,.02,.77,.19,1.1,.52,.32,.31,.49,.65,.51,1.02s-.12,.69-.4,.98c.53-.11,1.06-.07,1.57,.09,.51,.17,.98,.46,1.4,.88,.74,.73,1.08,1.49,1.01,2.29Z"/><path class="cls-6" d="M164.61,46.16c-.04,.39-.24,.71-.58,.98l-5.09,3.86c-1.15,.87-2.28,1.19-3.4,.95-1.12-.24-2.19-1.03-3.2-2.37-.39-.52-.72-1.04-.98-1.58-.26-.53-.42-1.03-.48-1.49-.03-.24-.01-.47,.06-.68,.08-.21,.21-.39,.4-.53,.27-.21,.55-.31,.82-.3,.27,0,.49,.12,.66,.34,.13,.17,.29,.53,.49,1.08,.13,.36,.25,.68,.37,.94,.12,.27,.27,.52,.45,.75,.44,.58,.88,.91,1.32,.99s.93-.07,1.44-.46l.54-.41c-.47,.03-.94-.08-1.42-.33s-.89-.6-1.23-1.05c-.46-.6-.72-1.25-.8-1.93-.07-.69,.05-1.36,.37-2.02,.32-.66,.83-1.25,1.52-1.77,.69-.52,1.4-.85,2.12-.99s1.42-.08,2.06,.17,1.2,.68,1.65,1.28c.35,.46,.58,.96,.68,1.49,.1,.53,.07,1.02-.1,1.48,.34-.22,.68-.3,1.03-.21,.35,.08,.66,.3,.94,.66,.29,.38,.41,.76,.37,1.15Zm-6.19,.75c.46,.04,.94-.13,1.44-.51,.5-.38,.8-.8,.9-1.26,.1-.46-.02-.91-.36-1.35-.33-.43-.73-.67-1.19-.7-.46-.03-.95,.14-1.46,.53-.49,.37-.78,.79-.87,1.25-.09,.46,.03,.9,.35,1.33,.34,.44,.73,.68,1.19,.72Z"/><path class="cls-6" d="M159.56,54.14c-.17-.53-.24-1.04-.21-1.53-.01-.19,.05-.37,.18-.55,.13-.18,.3-.33,.52-.46,.28-.16,.55-.21,.81-.17s.46,.18,.59,.41c.09,.15,.15,.31,.19,.46,.04,.15,.07,.35,.1,.59,.07,.39,.15,.73,.23,1.02,.08,.29,.23,.63,.45,1.02,.16,.28,.32,.47,.49,.59,.17,.11,.32,.13,.47,.05,.11-.06,.18-.15,.2-.26,.02-.11,0-.29-.07-.54-.07-.25-.19-.66-.38-1.23-.35-1.02-.45-1.83-.33-2.44,.12-.61,.51-1.09,1.16-1.46,.47-.27,.98-.36,1.53-.29,.55,.08,1.07,.31,1.58,.7s.94,.91,1.3,1.55c.26,.46,.46,.95,.6,1.45,.13,.5,.2,.98,.18,1.44,0,.43-.21,.75-.62,.99-.29,.16-.57,.22-.86,.18-.28-.04-.49-.18-.62-.4-.15-.27-.25-.64-.28-1.11-.03-.31-.07-.58-.12-.8-.05-.22-.15-.46-.3-.72-.14-.26-.3-.44-.46-.54s-.31-.11-.46-.03c-.16,.09-.24,.27-.22,.52,.02,.25,.15,.71,.37,1.37,.39,1.1,.53,1.95,.4,2.57-.12,.61-.52,1.11-1.19,1.49-.75,.43-1.53,.45-2.33,.09-.8-.37-1.5-1.08-2.09-2.13-.39-.69-.67-1.3-.83-1.83Z"/></g><path id="Icon_awesome-music" class="cls-3" d="M65.36,49.1c0-.95-.59-1.72-1.31-1.72-.13,0-.27,.03-.4,.08l-13.14,5.07c-.55,.22-.92,.89-.92,1.64v14.03c-.43-.14-.87-.21-1.31-.21-2.18,0-3.94,1.54-3.94,3.44s1.76,3.44,3.94,3.44,3.94-1.54,3.94-3.44v-12.54l10.51-4.03v9.91c-.43-.14-.87-.21-1.31-.21-2.18,0-3.94,1.54-3.94,3.44s1.76,3.44,3.94,3.44,3.94-1.54,3.94-3.44v-18.89Z"/><path id="Icon_awesome-music-2" class="cls-5" d="M143.23,49.1c0-.95-.59-1.72-1.31-1.72-.13,0-.27,.03-.4,.08l-13.14,5.07c-.55,.22-.92,.89-.92,1.64v14.03c-.43-.14-.87-.21-1.31-.21-2.18,0-3.94,1.54-3.94,3.44s1.76,3.44,3.94,3.44,3.94-1.54,3.94-3.44v-12.54l10.51-4.03v9.91c-.43-.14-.87-.21-1.31-.21-2.18,0-3.94,1.54-3.94,3.44s1.76,3.44,3.94,3.44,3.94-1.54,3.94-3.44v-18.89Z"/><path id="Icon_ionic-ios-musical-note" class="cls-1" d="M103.01,26.97c-.31,.05-7.75,1.4-8.03,1.45-.28,.02-.51,.22-.53,.47h0v14.82c0,.23-.05,.47-.16,.68-.23,.36-.61,.63-1.06,.74-.22,.06-.51,.12-.86,.19-1.58,.31-4.23,.85-4.23,3.01-.07,1.28,.89,2.42,2.3,2.74,.3,.04,.6,.06,.91,.06,1.17-.03,2.32-.29,3.36-.77,1.05-.61,1.65-1.67,1.58-2.78v-13.34c0-.22,.18-.41,.42-.45l6.09-1.1c.49-.09,.84-.47,.84-.91v-4.35c0-.25-.24-.46-.53-.45-.04,0-.08,0-.11,.01Z"/><path id="Icon_ionic-ios-musical-note-2" class="cls-4" d="M34.82,78.33c-.31,.05-7.75,1.4-8.03,1.45-.28,.02-.51,.22-.53,.47h0v14.82c0,.23-.05,.47-.16,.68-.23,.36-.61,.63-1.06,.74-.22,.06-.51,.12-.86,.19-1.58,.31-4.23,.85-4.23,3.01-.07,1.28,.89,2.42,2.3,2.74,.3,.04,.6,.06,.91,.06,1.17-.03,2.32-.29,3.36-.77,1.05-.61,1.65-1.67,1.58-2.78v-13.34c0-.22,.18-.41,.42-.45l6.09-1.1c.49-.09,.84-.47,.84-.91v-4.35c0-.25-.24-.46-.53-.45-.04,0-.08,0-.11,.01Z"/><path id="Icon_ionic-ios-musical-note-3" class="cls-2" d="M166.29,74.88c-.31,.05-7.75,1.4-8.03,1.45-.28,.02-.51,.22-.53,.47h0v14.82c0,.23-.05,.47-.16,.68-.23,.36-.61,.63-1.06,.74-.22,.06-.51,.12-.86,.19-1.58,.31-4.23,.85-4.23,3.01-.07,1.28,.89,2.42,2.3,2.74,.3,.04,.6,.06,.91,.06,1.17-.03,2.32-.29,3.36-.77,1.05-.61,1.65-1.67,1.58-2.78v-13.34c0-.22,.18-.41,.42-.45l6.09-1.1c.49-.09,.84-.47,.84-.91v-4.35c0-.25-.24-.46-.53-.45-.04,0-.08,0-.11,.01Z"/></svg>