<?xml version="1.0" encoding="UTF-8"?><svg id="Layer_1" xmlns="http://www.w3.org/2000/svg" xmlns:xlink="http://www.w3.org/1999/xlink" viewBox="0 0 193.01 193.01"><defs><style>.cls-1,.cls-2{fill:#ecc64e;}.cls-3{fill:#90ccaf;}.cls-3,.cls-4{stroke-width:2px;}.cls-3,.cls-4,.cls-5{stroke:#93278f;}.cls-3,.cls-4,.cls-5,.cls-6,.cls-7,.cls-8{stroke-miterlimit:10;}.cls-4,.cls-5{fill:#d87b46;}.cls-6{filter:url(#drop-shadow-2);}.cls-6,.cls-7{stroke-width:.5px;}.cls-6,.cls-7,.cls-8{fill:#8500ff;stroke:#e9bb00;}.cls-7{filter:url(#drop-shadow-1);}.cls-8{stroke-width:.75px;}.cls-9{opacity:.75;}.cls-9,.cls-10{fill:#ecc6ff;}.cls-2{opacity:.42;}.cls-10{opacity:.39;}</style><filter id="drop-shadow-1" filterUnits="userSpaceOnUse"><feOffset dx="4" dy="3"/><feGaussianBlur result="blur" stdDeviation="3"/><feFlood flood-color="#000" flood-opacity=".63"/><feComposite in2="blur" operator="in"/><feComposite in="SourceGraphic"/></filter><filter id="drop-shadow-2" filterUnits="userSpaceOnUse"><feOffset dx="4" dy="3"/><feGaussianBlur result="blur-2" stdDeviation="3"/><feFlood flood-color="#000" flood-opacity=".63"/><feComposite in2="blur-2" operator="in"/><feComposite in="SourceGraphic"/></filter></defs><circle class="cls-3" cx="96.51" cy="96.51" r="95.51"/><polygon class="cls-2" points="109.99 38.28 131.85 16.64 117.96 44.08 145.66 30.72 123.61 52.16 154.15 48.52 126.33 61.64 156.4 68.11 125.83 71.49 152.17 87.37 122.16 80.64 141.91 104.21 115.71 88.1 126.75 116.81 107.19 93.07 108.31 123.8 97.53 95 88.6 124.43 87.75 93.68 69.75 118.62 78.94 89.27 53.81 107.01 72.03 82.23 42.51 90.85 67.79 73.33 37.06 71.9 66.66 63.54 38.07 52.21 68.78 53.91 45.41 33.91 73.9 45.48 58.3 18.98 81.49 39.18 75.33 9.05 90.71 35.69 94.67 5.19 100.56 35.37 114.22 7.81 109.99 38.28"/><polygon class="cls-1" points="96.31 34.64 106.17 5.51 106.03 36.27 124.82 11.91 114.71 40.96 140.38 24.02 121.38 48.21 151.17 40.53 125.34 57.24 156.01 59.65 126.16 67.07 154.38 79.3 123.74 76.63 146.46 97.36 118.35 84.88 133.1 111.87 110.56 90.94 115.76 121.25 101.24 94.14 96.31 124.5 91.38 94.14 76.86 121.25 82.05 90.94 59.52 111.87 74.27 84.88 46.16 97.36 68.88 76.63 38.24 79.3 66.46 67.07 36.61 59.65 67.27 57.24 41.45 40.53 71.23 48.21 52.24 24.02 77.91 40.96 67.8 11.91 86.58 36.27 86.45 5.51 96.31 34.64"/><polygon class="cls-9" points="105.07 44.28 118.62 26.49 111.39 47.65 129.98 35.23 116.27 52.9 137.89 47.19 119.19 59.44 141.49 61.06 119.83 66.58 140.39 75.35 118.11 73.54 134.71 88.52 114.22 79.56 125.06 99.12 108.59 84 112.5 106.01 101.83 86.37 98.37 108.46 94.66 86.41 84.22 106.18 87.86 84.12 71.57 99.43 82.18 79.75 61.8 88.94 78.23 73.77 55.96 75.85 76.43 66.83 54.7 61.57 76.98 59.69 58.14 47.65 79.82 53.11 65.91 35.6 84.64 47.81 77.17 26.73 90.93 44.36 90.7 22 97.99 43.14 105.03 21.92 105.07 44.28"/><path class="cls-7" d="M61.42,96.61c-.8-.87-2.01-2.01-3.7-3.05-.98-.6-2.41-1.46-4.45-1.93-3.24-.75-6.12-.04-7.99,.35-.25,.05-.48,.11-.72,.18-1.71,.49-1.35,.68-3.56,1.37-1.79,.57-4.19,1.32-7.13,1.19-2.11-.1-4.23-.2-6.05-1.73-1.77-1.49-3.35-4.41-2.3-6.45,.83-1.62,3.05-2.17,3.57-2.29,.75-.19,.83-.06,2.37-.18,2.56-.2,3.89-.3,5.13-1.16,.46-.31,1.69-1.16,1.95-2.71,.03-.15,.29-1.88-.98-3.16-.2-.2-1.32-1.32-2.86-1-1.43,.3-2.05,1.61-2.12,1.76,.56,.52,1.07,.71,1.43,.78,.57,.11,.9-.03,1.66,.06,.52,.07,.93,.2,1.19,.3-.33,.34-.67,.53-.94,.64-1.52,.63-2.94-.73-4.52-1.3-3.21-1.16-6.73,.91-8.29,1.82-1.18,.69-3.51,2.06-4.78,4.87-.64,1.41-.75,2.62-.83,3.65-.06,.76-.24,3.54,1.35,8.14,1.22,3.54,2.32,6.72,5.39,9.36,1.65,1.42,3.31,2.2,4.46,2.65,1.29,.16,2.37,.2,3.17,.21,.61,0,1.49-.03,3.24-.11,1.2-.05,1.3-.07,1.42-.09,.76-.16,1.78-.61,2.83-1.93,.14,.84-.07,1.33-.22,1.58-.63,1.05-2.42,1.55-3.78,1.54-.47,0-.82-.07-1.03,.17-.39,.46,.19,1.56,.41,1.97,1.33,2.49,7.27,7.58,9.35,9.32,.51,.64,1.22,1.64,1.77,2.99,1.09,2.64,.89,4.88,.85,6.48-.06,3.21,.64,5.9,2.09,11.3,.66,2.45,1.75,5.84,3.62,9.76,.4-1.67,.67-3.03,.84-3.94,.52-2.75,.69-4.35,1.38-7.06,.19-.72,.35-1.3,.46-1.67,.05,.93,.09,2.21,.04,3.72-.06,1.61-.26,4.51-1.11,8.08-1.58,6.65-3.39,7.2-3.61,11.43-.07,1.43,.07,2.59-.67,4.04-.76,1.47-2.01,2.41-1.71,3.5,.12,.42,.42,.7,.64,.86,1.37,.54,3.57,1.22,6.34,1.28,2.65,.06,4.8-.48,6.16-.93,.18-.55,.35-1.35,.14-2.22-.25-1.06-.77-1-1.29-2.12-.75-1.62-.51-3.55-.29-5.38,0-.04,0-.07,.01-.08,.23-1.78,.55-2.96,.82-3.72-1.18,4.31-.7,6.36,0,7.44,.17,.26,.86,1.25,1.37,2.68,.27,.76,.44,1.47,.5,2.21,.04,.48,.03,.89,.01,1.19,.46,.11,1.21,.22,2.06-.02,.46-.13,1-.28,1.26-.72,.33-.56,.05-1.3-.26-1.98-.84-1.87-1.68-2.9-2.17-3.7-.48-.78-.76-2.34-1.32-5.45-.57-3.15-.85-4.73-.69-5.69,.07-.42,.09-.32,2.24-5.17,.75-1.67,1.12-2.53,1.73-2.56,.55-.03,.83,.64,1.82,1.74,1.13,1.25,1.42,1.11,2.95,2.5,.41,.37,1.75,1.62,3.12,3.53,1.04,1.44,1.64,2.63,2.17,3.7,.91,1.82,1.41,2.82,1.7,4.34,.32,1.63,.48,2.51,.11,3.56-.3,.87-.86,1.52-.92,2.78-.03,.5,.04,.92,.09,1.19,.53,.36,1.39,.85,2.54,1.08,1.74,.36,3.11-.06,4.35-.44,1.84-.56,2.91-.89,3.38-1.85,.28-.58,.19-1.04-.43-3.79-.53-2.37-.8-3.55-.83-3.63-1.03-2.98-2.2-3.08-2.58-5.28-.27-1.55-.07-3.71,.99-4.2,.94-.44,1.72,.83,3.49,.52,1.25-.22,1.72-1.01,2.37-.74,.7,.29,.82,1.48,.89,2.21,.45,4.32,.87,8.27,1.45,10.91,.23,1.03,.47,1.82,.19,2.85-.33,1.18-1.06,1.63-1,2.78,0,0,.05,.8,.57,1.5,.98,1.3,3.66,1.46,6.57,.33,.27-.21,.71-.6,1.02-1.2,.6-1.17,.36-2.39,.29-2.77-.65-3.62-.02-13.88,.46-18.13,.42-3.8,1.19-7.45,1.19-7.45,.65-4.48,1.36-4.95,1.27-7.77-.01-.44-.09-2.19-.36-4.43-.12-.98-.24-1.79-.34-2.37,.42,.57,1.08,1.42,2,2.35,1.42,1.44,2.15,2.16,3.16,2.19,.99,.04,1.79-.58,2.63-1.22,.75-.58,1.39-1.07,1.73-1.89,.87-2.08-1.05-4.16,.02-5.57,.24-.31,.54-.48,.71-.56,1.25-.86,1.56-1.47,1.48-1.91-.06-.34-.34-.46-.56-.86-.27-.49-.35-1.21,.06-2.3-.92,.33-1.27,.78-1.41,1.12-.22,.52-.03,.91-.14,1.82-.08,.62-.25,1.11-.38,1.43-.36,.29-.83,.76-1.01,1.43-.39,1.41,.84,2.24,.75,3.63-.11,1.67-2.09,3.46-3.61,3.29-1.17-.13-1.5-1.35-3.87-4.2-1.01-1.22-1.91-2.16-2.53-2.78-.29-1.09-.85-2.78-2.02-4.57-1.87-2.86-4.27-4.42-6.55-5.87-1.42-.91-2.57-1.46-4.85-2.56-4.78-2.31-5.74-2.27-7.25-2.89-.81-.33-.99-.51-1.89-.98-1.68-.86-3.07-1.33-3.48-1.47-.8-.26-1.89-.57-3.22-.79-.29,1.37-.61,2.53-.9,3.46-.45,1.45-1.03,3.28-2.18,5.43-.6,1.13-1.18,2.01-1.81,2.95-.85,1.29-1.27,1.94-1.67,2.34-.67,.67-2.25,2.28-4.69,2.37-.59,.02-1.8-.02-3.05-.68-1.31-.69-1.98-1.71-2.8-2.93-.71-1.07-1.15-2.04-1.41-2.7,.95,.99,2.18,2.17,3.68,3.41,1.22,1.01,1.57,1.18,1.94,1.3,2.61,.82,5.4-1.83,5.52-1.95,.08-.08,.13-.13,.23-.24,.69-.74,2.11-2.41,3.45-5.67,.28-.67,.54-1.46,1.05-3.04,1.52-4.65,1.92-6.59,2.01-8.6,.08-1.78-.13-2.44-.46-2.95-.97-1.5-2.94-1.74-3.64-1.82-2.71-.33-4.82,1.14-5.47,1.64Z"/><path class="cls-1" d="M51.57,95.49c-.03,.44-.11,1.06-.3,1.78-.14,.5-.36,1.32-.78,1.92-.98,1.39-3.01,1.5-3.54,1.52,.95,.01,2.33,.19,3.29,1.15,1.69,1.68,1.27,4.9,1.44,4.89,.17,0-.35-3.08,1.24-4.82,.84-.92,2.02-1.2,2.79-1.3-.62-.04-2.16-.24-3.01-1.38-.4-.53-.58-1.19-.79-1.96-.2-.72-.29-1.35-.34-1.79Z"/><circle class="cls-8" cx="51.55" cy="100.6" r="1.25"/><path class="cls-10" d="M57.33,116.05c1.36,.77,2.42,1.37,3.68,1.19,.89-.13,1.65-.62,2.56-1.57,1.58-1.64,2.31-3.29,3.62-6.58,1.63-4.09,2.34-6.14,2.4-8.79,.03-1.09-.06-2.17-.81-2.94-1.03-1.04-2.69-.86-3.22-.8-1.91,.21-3.12,1.45-3.51,1.88,.17,1.47,.21,3.54-.42,5.87-1.53,5.64-5.87,8.66-7.22,9.52,1.1,1.1,2.16,1.79,2.92,2.22Z"/><path class="cls-6" d="M129.97,96.64c.8-.87,2.01-2.01,3.7-3.05,.98-.6,2.41-1.46,4.45-1.93,3.24-.75,6.12-.04,7.99,.35,.25,.05,.48,.11,.72,.18,1.71,.49,1.35,.68,3.56,1.37,1.79,.57,4.19,1.32,7.13,1.19,2.11-.1,4.23-.2,6.05-1.73,1.77-1.49,3.35-4.41,2.3-6.45-.83-1.62-3.05-2.17-3.57-2.29-.75-.19-.83-.06-2.37-.18-2.56-.2-3.89-.3-5.13-1.16-.46-.31-1.69-1.16-1.95-2.71-.03-.15-.29-1.88,.98-3.16,.2-.2,1.32-1.32,2.86-1,1.43,.3,2.05,1.61,2.12,1.76-.56,.52-1.07,.71-1.43,.78-.57,.11-.9-.03-1.66,.06-.52,.07-.93,.2-1.19,.3,.33,.34,.67,.53,.94,.64,1.52,.63,2.94-.73,4.52-1.3,3.21-1.16,6.73,.91,8.29,1.82,1.18,.69,3.51,2.06,4.78,4.87,.64,1.41,.75,2.62,.83,3.65,.06,.76,.24,3.54-1.35,8.14-1.22,3.54-2.32,6.72-5.39,9.36-1.65,1.42-3.31,2.2-4.46,2.65-1.29,.16-2.37,.2-3.17,.21-.61,0-1.49-.03-3.24-.11-1.2-.05-1.3-.07-1.42-.09-.76-.16-1.78-.61-2.83-1.93-.14,.84,.07,1.33,.22,1.58,.63,1.05,2.42,1.55,3.78,1.54,.47,0,.82-.07,1.03,.17,.39,.46-.19,1.56-.41,1.97-1.33,2.49-7.27,7.58-9.35,9.32-.51,.64-1.22,1.64-1.77,2.99-1.09,2.64-.89,4.88-.85,6.48,.06,3.21-.64,5.9-2.09,11.3-.66,2.45-1.75,5.84-3.62,9.76-.4-1.67-.67-3.03-.84-3.94-.52-2.75-.69-4.35-1.38-7.06-.19-.72-.35-1.3-.46-1.67-.05,.93-.09,2.21-.04,3.72,.06,1.61,.26,4.51,1.11,8.08,1.58,6.65,3.39,7.2,3.61,11.43,.07,1.43-.07,2.59,.67,4.04,.76,1.47,2.01,2.41,1.71,3.5-.12,.42-.42,.7-.64,.86-1.37,.54-3.57,1.22-6.34,1.28-2.65,.06-4.8-.48-6.16-.93-.18-.55-.35-1.35-.14-2.22,.25-1.06,.77-1,1.29-2.12,.75-1.62,.51-3.55,.29-5.38,0-.04,0-.07-.01-.08-.23-1.78-.55-2.96-.82-3.72,1.18,4.31,.7,6.36,0,7.44-.17,.26-.86,1.25-1.37,2.68-.27,.76-.44,1.47-.5,2.21-.04,.48-.03,.89-.01,1.19-.46,.11-1.21,.22-2.06-.02-.46-.13-1-.28-1.26-.72-.33-.56-.05-1.3,.26-1.98,.84-1.87,1.68-2.9,2.17-3.7,.48-.78,.76-2.34,1.32-5.45,.57-3.15,.85-4.73,.69-5.69-.07-.42-.09-.32-2.24-5.17-.75-1.67-1.12-2.53-1.73-2.56-.55-.03-.83,.64-1.82,1.74-1.13,1.25-1.42,1.11-2.95,2.5-.41,.37-1.75,1.62-3.12,3.53-1.04,1.44-1.64,2.63-2.17,3.7-.91,1.82-1.41,2.82-1.7,4.34-.32,1.63-.48,2.51-.11,3.56,.3,.87,.86,1.52,.92,2.78,.03,.5-.04,.92-.09,1.19-.53,.36-1.39,.85-2.54,1.08-1.74,.36-3.11-.06-4.35-.44-1.84-.56-2.91-.89-3.38-1.85-.28-.58-.19-1.04,.43-3.79,.53-2.37,.8-3.55,.83-3.63,1.03-2.98,2.2-3.08,2.58-5.28,.27-1.55,.07-3.71-.99-4.2-.94-.44-1.72,.83-3.49,.52-1.25-.22-1.72-1.01-2.37-.74-.7,.29-.82,1.48-.89,2.21-.45,4.32-.87,8.27-1.45,10.91-.23,1.03-.47,1.82-.19,2.85,.33,1.18,1.06,1.63,1,2.78,0,0-.05,.8-.57,1.5-.98,1.3-3.66,1.46-6.57,.33-.27-.21-.71-.6-1.02-1.2-.6-1.17-.36-2.39-.29-2.77,.65-3.62,.02-13.88-.46-18.13-.42-3.8-1.19-7.45-1.19-7.45-.65-4.48-1.36-4.95-1.27-7.77,.01-.44,.09-2.19,.36-4.43,.12-.98,.24-1.79,.34-2.37-.42,.57-1.08,1.42-2,2.35-1.42,1.44-2.15,2.16-3.16,2.19-.99,.04-1.79-.58-2.63-1.22-.75-.58-1.39-1.07-1.73-1.89-.87-2.08,1.05-4.16-.02-5.57-.24-.31-.54-.48-.71-.56-1.25-.86-1.56-1.47-1.48-1.91,.06-.34,.34-.46,.56-.86,.27-.49,.35-1.21-.06-2.3,.92,.33,1.27,.78,1.41,1.12,.22,.52,.03,.91,.14,1.82,.08,.62,.25,1.11,.38,1.43,.36,.29,.83,.76,1.01,1.43,.39,1.41-.84,2.24-.75,3.63,.11,1.67,2.09,3.46,3.61,3.29,1.17-.13,1.5-1.35,3.87-4.2,1.01-1.22,1.91-2.16,2.53-2.78,.29-1.09,.85-2.78,2.02-4.57,1.87-2.86,4.27-4.42,6.55-5.87,1.42-.91,2.57-1.46,4.85-2.56,4.78-2.31,5.74-2.27,7.25-2.89,.81-.33,.99-.51,1.89-.98,1.68-.86,3.07-1.33,3.48-1.47,.8-.26,1.89-.57,3.22-.79,.29,1.37,.61,2.53,.9,3.46,.45,1.45,1.03,3.28,2.18,5.43,.6,1.13,1.18,2.01,1.81,2.95,.85,1.29,1.27,1.94,1.67,2.34,.67,.67,2.25,2.28,4.69,2.37,.59,.02,1.8-.02,3.05-.68,1.31-.69,1.98-1.71,2.8-2.93,.71-1.07,1.15-2.04,1.41-2.7-.95,.99-2.18,2.17-3.68,3.41-1.22,1.01-1.57,1.18-1.94,1.3-2.61,.82-5.4-1.83-5.52-1.95-.08-.08-.13-.13-.23-.24-.69-.74-2.11-2.41-3.45-5.67-.28-.67-.54-1.46-1.05-3.04-1.52-4.65-1.92-6.59-2.01-8.6-.08-1.78,.13-2.44,.46-2.95,.97-1.5,2.94-1.74,3.64-1.82,2.71-.33,4.82,1.14,5.47,1.64Z"/><path class="cls-1" d="M139.82,95.52c.03,.44,.11,1.06,.3,1.78,.14,.5,.36,1.32,.78,1.92,.98,1.39,3.01,1.5,3.54,1.52-.95,.01-2.33,.19-3.29,1.15-1.69,1.68-1.27,4.9-1.44,4.89-.17,0,.35-3.08-1.24-4.82-.84-.92-2.02-1.2-2.79-1.3,.62-.04,2.16-.24,3.01-1.38,.4-.53,.58-1.19,.79-1.96,.2-.72,.29-1.35,.34-1.79Z"/><circle class="cls-8" cx="139.83" cy="100.63" r="1.25"/><path class="cls-4" d="M87.36,57.33v.31c3.79,.87,5.33,3.64,5.33,7.02,0,9.59-7.18,12.41-15.33,12.41-6.26,0-12.36-2.77-13.13-9.79-.05-.72,.56-1.08,.92-1.13l7.44-1.69c.26-.05,1.23,0,1.38,.82,.31,1.74,1.54,2.36,3.64,2.36s4-1.03,4-3.23c0-2.41-2.36-3.18-5.18-2.97l-3.13,.26c-.92,.05-1.54-.26-1.49-1.03l.41-6.56c.05-.82,.56-1.28,1.18-1.28h2.72c2.72,0,5.59-1.74,5.59-5.08,0-2.46-1.44-3.18-3.85-3.18-1.85,0-3.13,1.9-3.38,3.85-.15,.82-.67,.92-1.08,.87l-8.05-1.13c-.51-.05-.92-.56-.82-1.13,.87-7.49,5.95-12.41,13.33-12.41,11.95,0,16.25,6.46,16.25,12.61,0,4.97-2.87,9.49-6.77,10.1Z"/><path class="cls-4" d="M112.38,77.22c-11.02,0-15.64-9.28-15.64-19.18,0-11.33,6.05-23.43,15.54-23.43,8.87,0,14.87,6.72,14.87,19.18s-5.02,23.43-14.77,23.43Zm.26-30.1c-2.36,0-3.74,5.74-3.74,10.51s1.13,7.13,2.97,7.13,3.49-5.33,3.49-9.43-.41-8.2-2.72-8.2Z"/><path class="cls-5" d="M81.43,92.64c-.1,2.15-1.44,3.12-3.09,3.12-.85,0-1.61-.33-1.89-.59-.07-.05-.08-.12-.08-.18h0s.04-2.22,.04-2.22c0-.08,.04-.13,.1-.13,.01,0,.04,.01,.07,.04,.13,.13,.59,.56,1.19,.56,.82,0,1.11-.43,1.2-1.55l.03-.25v-.22c-.4,.38-1.01,.63-1.71,.63-1.96,0-3.25-1.45-3.25-3.75,0-2.17,1.55-3.6,3.29-3.6,.57,0,1.11,.18,1.55,.43v-.38c-.01-.13,.08-.22,.21-.22l2.48,.09c.13,.01,.22,.1,.22,.23l-.35,7.99Zm-2.51-4.9c0-.38-.43-.67-.87-.67-.59,0-.98,.47-.98,1.15s.44,1.08,.97,1.08c.38,0,.9-.33,.9-.97v-.6Z"/><path class="cls-5" d="M89.92,91.76c0,.12-.1,.22-.22,.24l-2.14,.1h-.01c-.12,0-.2-.09-.21-.2v-.7c-.42,.39-.94,.64-1.66,.64-1.96,0-3.25-1.45-3.25-3.75,0-2.17,1.55-3.6,3.29-3.6,.6,0,1.15,.2,1.61,.47v-.34c-.01-.12,.08-.21,.2-.22l2.45-.04c.12,0,.21,.09,.21,.21l-.26,7.19Zm-2.6-4.02c-.1-.42-.46-.76-.95-.76-.63,0-1.06,.51-1.06,1.24s.48,1.16,1.04,1.16c.4,0,.85-.37,.97-1.03v-.61Z"/><path class="cls-5" d="M102.54,92.23c-.01,.08-.07,.13-.17,.13h-.01l-2.56-.18c-.05-.01-.09-.05-.09-.1h0c.03-.51,.13-1.57,.13-2.62,0-1.92-.17-2.69-.86-2.69-.73,0-.64,1.25-.64,1.71,0,.22,.03,.46,.03,.69,0,1.59-.05,2.51-.1,2.87-.01,.08-.07,.13-.17,.13h-.01l-2.49-.18c-.05,0-.09-.05-.09-.1h0c.03-.47,.1-1.51,.1-2.56,0-2.11-.09-2.75-.87-2.75-.52,0-.72,.42-.72,1.48v3.73c.01,.1-.07,.2-.17,.2l-2.44-.07c-.1,0-.2-.09-.2-.2l-.17-6.87h0c0-.12,.09-.18,.18-.2l2.59-.26h.01c.09,0,.17,.1,.18,.21v.29c.09-.09,.56-.47,1.28-.47,.98,0,1.58,.26,2.13,1.01,.38-.37,1.02-.81,1.96-.81,1.93,0,3.29,.99,3.29,4.75,0,1.59-.05,2.51-.1,2.87Z"/><path class="cls-5" d="M110.62,89.48c-.21,1.19-1.42,2.73-3.32,2.73-2.27,0-3.97-1.32-3.97-3.76s1.38-4.23,3.38-4.23c2.49,0,3.36,1.95,3.36,4.07,0,.4-.21,.5-.42,.5,0,.01-.22,.04-3.72,.12,.16,.84,.71,1.12,1.21,1.12,.46,0,.87-.24,.95-.52,.03-.12,.12-.18,.29-.18,1.37-.03,2.01-.07,2.04-.07h0c.13,0,.2,.07,.2,.17v.05Zm-3.84-2.82c-.4,0-.72,.25-.82,.85,.55-.03,1.31-.07,1.36-.07,.04,0,.05-.01,.05-.07,0-.38-.18-.72-.59-.72Z"/><path class="cls-5" d="M117.97,87.81c-.07,.25-.26,.34-.5,.33l-1.75-.07c-.29-.01-.31-.17-.31-.4,0-.5-.26-.99-.73-.99-.54,0-.71,.31-.71,.52,0,.57,.6,.74,1.06,.87,1.2,.38,2.87,.59,2.87,2.27,0,1.55-1.65,2.18-3.19,2.18-2.3,0-3.67-1.01-3.67-2.35,0-.3,.05-.51,.39-.52l1.59-.03c.35-.01,.4,.2,.4,.46,0,.34,.44,.6,1.04,.6,.55,0,.68-.22,.68-.29,0-.54-1.37-.71-1.75-.84-.99-.33-2.13-.91-2.13-2.48,0-1.88,1.21-3.11,3.2-3.11,1.84,0,3.53,.99,3.53,3.32,0,.14,0,.37-.04,.52Z"/></svg>