<?xml version="1.0" encoding="UTF-8"?>
<svg id="Layer_1" xmlns="http://www.w3.org/2000/svg" viewBox="0 0 800 959.22">
  <defs>
    <style>
      .cls-1, .cls-2 {
        fill: #3048b3;
      }

      .cls-2 {
        fill-rule: evenodd;
      }
    </style>
  </defs>
  <g id="Icons">
    <g id="Color-">
      <path id="Github" class="cls-2" d="M399.97,0C179.1,0,0,179.79,0,401.61c0,177.4,114.6,327.92,273.57,381.03,20,3.69,27.3-8.71,27.3-19.35,0-9.54-.35-34.79-.55-68.29-111.27,24.27-134.75-53.84-134.75-53.84-18.18-46.38-44.4-58.73-44.4-58.73-36.33-24.92,2.75-24.42,2.75-24.42,40.13,2.84,61.25,41.39,61.25,41.39,35.7,61.37,93.63,43.65,116.43,33.36,3.62-25.95,13.98-43.65,25.4-53.69-88.82-10.14-182.2-44.58-182.2-198.46,0-43.85,15.58-79.69,41.18-107.78-4.12-10.17-17.85-50.98,3.9-106.27,0,0,33.6-10.79,110,41.16,31.93-8.91,66.13-13.35,100.15-13.53,33.97.18,68.2,4.62,100.15,13.53,76.35-51.96,109.88-41.16,109.88-41.16,21.82,55.29,8.1,96.1,3.97,106.27,25.65,28.09,41.13,63.93,41.13,107.78,0,154.26-93.53,188.22-182.63,198.16,14.35,12.4,27.15,36.9,27.15,74.37,0,53.69-.5,96.98-.5,110.16,0,10.74,7.2,23.24,27.5,19.3,158.82-53.21,273.32-203.63,273.32-380.98C800,179.79,620.9,0,399.97,0"/>
      <g>
        <path class="cls-1" d="M211.16,871.24h-47.8c-1.23,0-2.23,1-2.23,2.23v23.37c0,1.23,1,2.24,2.23,2.24h18.65v29.03s-4.19,1.43-15.76,1.43c-13.66,0-32.73-4.99-32.73-46.94s19.86-47.48,38.51-47.48c16.14,0,23.1,2.84,27.52,4.21,1.39.43,2.68-.96,2.68-2.19l5.33-22.58c0-.58-.2-1.27-.85-1.74-1.8-1.28-12.76-7.42-40.46-7.42-31.91,0-64.64,13.57-64.64,78.83s37.47,74.98,69.05,74.98c26.15,0,42.01-11.17,42.01-11.17.65-.36.72-1.27.72-1.69v-72.88c0-1.23-1-2.23-2.23-2.23Z"/>
        <path class="cls-1" d="M455.26,810.97h-26.91c-1.23,0-2.23,1-2.23,2.25,0,0,0,52.01,0,52.01h-41.95v-52.01c0-1.24-.99-2.25-2.22-2.25h-26.91c-1.22,0-2.22,1-2.22,2.25v140.82c0,1.24,1,2.25,2.22,2.25h26.91c1.23,0,2.22-1.01,2.22-2.25v-60.23h41.95s-.07,60.23-.07,60.23c0,1.24,1,2.25,2.23,2.25h26.97c1.23,0,2.22-1.01,2.22-2.25v-140.82c0-1.24-.99-2.25-2.22-2.25Z"/>
        <path class="cls-1" d="M244.59,814.18c-9.58,0-17.35,7.83-17.35,17.52s7.77,17.53,17.35,17.53,17.35-7.85,17.35-17.53-7.77-17.52-17.35-17.52Z"/>
        <path class="cls-1" d="M257.79,857.09h-26.83c-1.23,0-2.33,1.27-2.33,2.5v93.13c0,2.74,1.71,3.55,3.91,3.55h24.17c2.65,0,3.3-1.3,3.3-3.59v-93.35c0-1.23-1-2.24-2.23-2.24Z"/>
        <path class="cls-1" d="M559.75,857.3h-26.71c-1.22,0-2.22,1.01-2.22,2.25v69.05s-6.78,4.96-16.41,4.96-12.18-4.37-12.18-13.8v-60.22c0-1.24-.99-2.25-2.22-2.25h-27.1c-1.22,0-2.23,1.01-2.23,2.25v64.77c0,28.01,15.61,34.86,37.08,34.86,17.61,0,31.82-9.73,31.82-9.73,0,0,.68,5.13.98,5.74.31.61,1.1,1.22,1.96,1.22l17.24-.08c1.22,0,2.23-1.01,2.23-2.25v-94.53c0-1.24-1.01-2.25-2.24-2.25Z"/>
        <path class="cls-1" d="M632.74,854.14c-15.17,0-25.48,6.77-25.48,6.77v-47.68c0-1.24-.99-2.25-2.22-2.25h-26.99c-1.23,0-2.22,1-2.22,2.25v140.82c0,1.24,1,2.25,2.23,2.25h18.72c.84,0,1.48-.43,1.95-1.2.47-.76,1.14-6.49,1.14-6.49,0,0,11.03,10.46,31.93,10.46,24.53,0,38.59-12.44,38.59-55.85s-22.46-49.08-37.64-49.08ZM622.21,933.48c-9.26-.28-15.55-4.49-15.55-4.49v-44.6s6.2-3.8,13.8-4.48c9.62-.86,18.88,2.04,18.88,24.98,0,24.19-4.18,28.97-17.14,28.57Z"/>
        <path class="cls-1" d="M337.74,932.96c-1.18,0-4.19.48-7.28.48-9.92,0-13.28-4.61-13.28-10.58s0-39.59,0-39.59h20.19c1.23,0,2.23-1,2.23-2.25v-21.69c0-1.24-1-2.24-2.23-2.24h-20.19s-.03-26.66-.03-26.67c0-1.01-.52-1.51-1.69-1.51h-27.51c-1.07,0-1.64.47-1.64,1.5v27.56s-13.79,3.33-14.72,3.6c-.93.27-1.61,1.13-1.61,2.15v17.32c0,1.25.99,2.25,2.23,2.25h14.1v41.66c0,30.95,21.71,33.99,36.35,33.99,6.69,0,14.7-2.15,16.02-2.64.8-.29,1.26-1.12,1.26-2.02l.02-19.05c0-1.24-1.05-2.25-2.23-2.25Z"/>
      </g>
    </g>
  </g>
</svg>