<?xml version="1.0" encoding="utf-8"?>
<!-- Generator: Adobe Illustrator 26.1.0, SVG Export Plug-In . SVG Version: 6.00 Build 0)  -->
<svg version="1.1" xmlns="http://www.w3.org/2000/svg" xmlns:xlink="http://www.w3.org/1999/xlink" x="0px" y="0px"
	 viewBox="0 0 816.5 179.3" style="enable-background:new 0 0 816.5 179.3;" xml:space="preserve">
<style type="text/css">
	.st0{fill:#58595B;}
	.st1{fill:#FFFFFF;}
	.st2{fill:#800000;}
</style>
<g id="DOES_NOT_PRINT">
</g>
<g id="secondary">
	<g>
		<path class="st1" d="M517,48.4h5.2v23.8H517V48.4z"/>
		<path class="st1" d="M528.7,48.4h4.8l11.2,14.7V48.4h5.2v23.8h-4.5l-11.5-15.1v15.1h-5.2V48.4z"/>
		<path class="st1" d="M556.1,48.4h18.1v4.8h-12.9v5.1h11.4V63h-11.4v9.2h-5.2V48.4z"/>
		<path class="st1" d="M577.1,60.4L577.1,60.4c0-6.8,5.3-12.4,12.7-12.4c7.3,0,12.6,5.5,12.6,12.2v0.1c0,6.8-5.3,12.3-12.7,12.3
			C582.4,72.6,577.1,67.2,577.1,60.4z M596.9,60.4L596.9,60.4c0-4.1-3-7.5-7.2-7.5c-4.2,0-7.1,3.3-7.1,7.4v0.1c0,4.1,3,7.5,7.2,7.5
			S596.9,64.5,596.9,60.4z"/>
		<path class="st1" d="M607.4,48.4h10.9c3,0,5.4,0.8,6.9,2.4c1.3,1.3,2,3.2,2,5.4v0.1c0,3.8-2.1,6.3-5.1,7.4l5.8,8.5h-6.1l-5.1-7.6
			h-4.1v7.6h-5.2V48.4z M618,60c2.5,0,4-1.4,4-3.4v-0.1c0-2.2-1.6-3.4-4.1-3.4h-5.2V60H618z"/>
		<path class="st1" d="M632.6,48.4h5.6l6.3,10.1l6.3-10.1h5.6v23.8h-5.2V56.7l-6.7,10.2h-0.1l-6.6-10.1v15.4h-5.1V48.4z"/>
		<path class="st1" d="M670.5,48.3h4.8l10.2,24H680l-2.2-5.3h-10.1l-2.2,5.3h-5.3L670.5,48.3z M676,62.3l-3.2-7.7l-3.2,7.7H676z"/>
		<path class="st1" d="M692,53.3h-7.2v-4.8h19.7v4.8h-7.2v19H692V53.3z"/>
		<path class="st1" d="M708.7,48.4h5.2v23.8h-5.2V48.4z"/>
		<path class="st1" d="M719.1,60.4L719.1,60.4c0-6.8,5.3-12.4,12.7-12.4c7.3,0,12.6,5.5,12.6,12.2v0.1c0,6.8-5.3,12.3-12.7,12.3
			C724.3,72.6,719.1,67.2,719.1,60.4z M738.9,60.4L738.9,60.4c0-4.1-3-7.5-7.2-7.5c-4.2,0-7.1,3.3-7.1,7.4v0.1c0,4.1,3,7.5,7.2,7.5
			S738.9,64.5,738.9,60.4z"/>
		<path class="st1" d="M749.4,48.4h4.8l11.2,14.7V48.4h5.2v23.8h-4.5l-11.5-15.1v15.1h-5.2V48.4z"/>
		<path class="st1" d="M524.3,82.8h-7.2v-4.8h19.7v4.8h-7.2v19h-5.2V82.8z"/>
		<path class="st1" d="M540.9,77.9h18v4.7h-12.7v4.8h11.2v4.7h-11.2v5H559v4.7h-18.1V77.9z"/>
		<path class="st1" d="M562.8,89.9L562.8,89.9c0-6.8,5.1-12.4,12.4-12.4c4.5,0,7.2,1.5,9.4,3.7l-3.3,3.8c-1.8-1.7-3.7-2.7-6.1-2.7
			c-4,0-6.9,3.3-6.9,7.4v0.1c0,4.1,2.8,7.5,6.9,7.5c2.7,0,4.4-1.1,6.3-2.8l3.3,3.4c-2.4,2.6-5.2,4.2-9.8,4.2
			C568,102.1,562.8,96.7,562.8,89.9z"/>
		<path class="st1" d="M589.1,77.9h5.2v9.4h9.7v-9.4h5.2v23.8H604v-9.6h-9.7v9.6h-5.2V77.9z"/>
		<path class="st1" d="M615.6,77.9h4.8l11.2,14.7V77.9h5.2v23.8h-4.5l-11.5-15.1v15.1h-5.2V77.9z"/>
		<path class="st1" d="M641.8,89.9L641.8,89.9c0-6.8,5.3-12.4,12.7-12.4c7.3,0,12.6,5.5,12.6,12.2v0.1c0,6.8-5.3,12.3-12.7,12.3
			C647.1,102.1,641.8,96.7,641.8,89.9z M661.6,89.9L661.6,89.9c0-4.1-3-7.5-7.2-7.5c-4.2,0-7.1,3.3-7.1,7.4v0.1c0,4.1,3,7.5,7.2,7.5
			S661.6,94,661.6,89.9z"/>
		<path class="st1" d="M672.2,77.9h5.2v19h11.9v4.8h-17.1V77.9z"/>
		<path class="st1" d="M691.8,89.9L691.8,89.9c0-6.8,5.3-12.4,12.7-12.4c7.3,0,12.6,5.5,12.6,12.2v0.1c0,6.8-5.3,12.3-12.7,12.3
			C697.1,102.1,691.8,96.7,691.8,89.9z M711.7,89.9L711.7,89.9c0-4.1-3-7.5-7.2-7.5c-4.2,0-7.1,3.3-7.1,7.4v0.1c0,4.1,3,7.5,7.2,7.5
			S711.7,94,711.7,89.9z"/>
		<path class="st1" d="M721,89.9L721,89.9c0-6.8,5.3-12.4,12.5-12.4c4.3,0,6.9,1.2,9.3,3.3l-3.3,4c-1.8-1.5-3.5-2.4-6.2-2.4
			c-3.8,0-6.8,3.4-6.8,7.4v0.1c0,4.4,3,7.5,7.2,7.5c1.9,0,3.6-0.5,4.9-1.4v-3.4h-5.3V88h10.3v10.3c-2.4,2.1-5.8,3.8-10.2,3.8
			C726.1,102.1,721,96.9,721,89.9z"/>
		<path class="st1" d="M755,92.4l-9.1-14.4h6.1l5.7,9.6l5.8-9.6h5.9l-9.1,14.3v9.5H755V92.4z"/>
		<path class="st1" d="M516.2,127.8l3.1-3.7c2.1,1.8,4.4,2.9,7.1,2.9c2.1,0,3.4-0.9,3.4-2.2v-0.1c0-1.3-0.8-2-4.8-3
			c-4.8-1.2-7.9-2.5-7.9-7.3v-0.1c0-4.3,3.5-7.2,8.3-7.2c3.5,0,6.4,1.1,8.8,3l-2.7,3.9c-2.1-1.5-4.2-2.3-6.2-2.3
			c-2,0-3.1,0.9-3.1,2.1v0.1c0,1.6,1,2.1,5.1,3.1c4.8,1.3,7.5,3,7.5,7.1v0.1c0,4.7-3.6,7.4-8.7,7.4
			C522.7,131.6,519,130.3,516.2,127.8z"/>
		<path class="st1" d="M540.1,107.4h18v4.7h-12.7v4.8h11.2v4.7h-11.2v5h12.9v4.7h-18.1V107.4z"/>
		<path class="st1" d="M563.6,107.4h10.9c3,0,5.4,0.9,6.9,2.4c1.3,1.3,2,3.2,2,5.4v0.1c0,3.8-2.1,6.3-5.1,7.4l5.8,8.5h-6.1l-5.1-7.6
			h-4.1v7.6h-5.2V107.4z M574.2,119c2.5,0,4-1.4,4-3.4v-0.1c0-2.2-1.6-3.4-4.1-3.4h-5.2v6.8H574.2z"/>
		<path class="st1" d="M585.8,107.4h5.8l6.2,16.8l6.2-16.8h5.6l-9.6,24h-4.6L585.8,107.4z"/>
		<path class="st1" d="M613.6,107.4h5.2v23.8h-5.2V107.4z"/>
		<path class="st1" d="M624,119.4L624,119.4c0-6.8,5.1-12.4,12.4-12.4c4.5,0,7.2,1.5,9.4,3.7l-3.3,3.8c-1.8-1.7-3.7-2.7-6.1-2.7
			c-4,0-6.9,3.3-6.9,7.4v0.1c0,4.1,2.8,7.5,6.9,7.5c2.7,0,4.4-1.1,6.3-2.8l3.3,3.4c-2.4,2.6-5.2,4.2-9.8,4.2
			C629.2,131.6,624,126.2,624,119.4z"/>
		<path class="st1" d="M650.3,107.4h18v4.7h-12.7v4.8h11.2v4.7h-11.2v5h12.9v4.7h-18.1V107.4z"/>
		<path class="st1" d="M672,127.8l3.1-3.7c2.1,1.8,4.4,2.9,7.1,2.9c2.1,0,3.4-0.9,3.4-2.2v-0.1c0-1.3-0.8-2-4.8-3
			c-4.8-1.2-7.9-2.5-7.9-7.3v-0.1c0-4.3,3.5-7.2,8.3-7.2c3.5,0,6.4,1.1,8.8,3l-2.7,3.9c-2.1-1.5-4.2-2.3-6.2-2.3s-3.1,0.9-3.1,2.1
			v0.1c0,1.6,1,2.1,5.1,3.1c4.8,1.3,7.5,3,7.5,7.1v0.1c0,4.7-3.6,7.4-8.7,7.4C678.5,131.6,674.8,130.3,672,127.8z"/>
	</g>
</g>
<g id="rule">
	<g>
		<g>
			<rect x="497.7" y="48.2" class="st1" width="1.3" height="82.8"/>
		</g>
	</g>
</g>
<g id="primary">
	<g>
		<g>
			<path class="st1" d="M61.4,109.5c-0.7-0.3-1.4-0.5-2-0.9c0.4,1.5,0.8,2.8,1.6,4.3C61.4,113.9,62.2,111.7,61.4,109.5 M59.3,84.8
				L59.3,84.8c0,2.1-5.6,4.9-8,6.2c3.7,1.3,7.2-2.2,6.8-1.3c-0.5,1-5.1,4.9-7,7c1.5,0.4,3-0.8,4.1-1.8c1.2-1,3.3-3.7,3-2.4
				c-3.3,4.1-5.9,12.6-4.3,13.1c0.9-1.9,4.7-11.7,5-11.7c0.3,0-0.3,2.6-0.4,4.3c-0.2,3.7-0.2,5.4,0.6,9.1c0.4-0.6,0.8-0.5,1.5-0.5
				c0.1-0.4,0.1-0.3-0.4-0.8c-1.1-1.4,0.2-3.3-0.4-4.5c-0.4-1-0.7-0.2-0.9-1.2c0.3-0.3,1.1-0.4,1.4-0.4c0.3-3.8,1.6-5.7,1.1-3.3
				c-0.2,1.2-0.6,3.2-0.4,3.3c0.2,0.1,0.2,0.1,0.3,0.1c0.1,0,6.4-10.3,2.9-3.1c-0.5,0.9-2.3,3.5-2.3,3.5c0.5,0.5,1,1.1,1,1.4
				c0,0.1,8.4-11.1,2.7-2.1c-0.4,0.6-2.1,2.4-2.5,2.9c-0.1,0.1,0.2,2.1,0.2,2.1c0.9-0.6,2.1-1.8,2.7-2.6c-0.1-1.1,0.2-1,0.3-2.1
				c0.3-0.2,0.6,0.3,1,0.7c0.2,0.2,5.8-9.5,2.3-2.2c-0.6,1.2-1.8,2.6-1.9,2.7c0.2,0.3,0.6,1.1,1,2c0,0,7.5-10.7,2.9-2.6
				c-0.4,0.6-2.6,3.3-2.6,3.4c0.6,1.3,1,2.7,1,2.7c-0.1-1.1-0.4-3.1,1.8-4.8c0.3,1.9,0.8,1.9,1.4,2.5c0.3,0.3,0.8,1.3,0.9,0.4
				c0.2-2.7-0.7-2.6-1.3-3.7c-0.2-0.3-0.1-0.9,0-0.8c5.4,0.2,5.2,5.2,6.1,5.2c-0.4-1.3-0.5-2.5,0-3.6c-1.4-1-1.1-2.8-0.8-3.5
				c-1.6-1.7-0.7-5.2,0.1-6c-1-1.5,0.2-2.5,0-3.5c-0.4-3.3-3.4-2.3-4-5.4c-0.5,0.6-1.3,2.4-0.9,3.1c0.5,0.7,1.4,0.8,1.5,1.3
				c0,0.2,0.1,0.9-0.1,1c-0.6,0.1-0.9-0.4-1.5-0.6c-1.1-0.4-3.9,1.4-4.1-0.2c-0.1-1,0.4-0.3,0.3-1.3c0-1-0.5-0.3-0.6-1.6
				c0-0.9,1.1-1.2,1.2-1.6c0.2-0.9,1.9,1.4,2.9-1.1c-0.6,0.1-1.8-0.3-1.6-0.9c0.3-1.5,0.3-5.3-3.2-4.5C67,77.2,63.5,79,63,77.1
				c-1.3,2.2,1.2,1.8,2,1.8c-0.3,0.2-0.7,0.5-1.6,0.3c-2,1.3-9.1,5.8-11.2,7C55,87.5,59.3,84.8,59.3,84.8 M66.1,103.1
				c-1,1-1.3,1-1.3,1.4c0.2,0.6,0.6,1,1.1,1.5c0.6,0.5,0.8,0.9,0.4-0.5C66,104.7,66.1,104,66.1,103.1 M81.7,81.9
				c-0.2-0.4-0.5-0.8-0.9-0.9c-1.7-0.8-5.1,1-5-1.6c0,0-1.2,0.9-0.6,1.8C76.3,83.3,79.8,80.6,81.7,81.9 M55.5,55.9
				c-2.9,0-3,4.5,0,4.5C58.4,60.3,58.4,55.9,55.5,55.9 M55.5,64.8c-3,0-3,4.5,0,4.5C58.5,69.2,58.4,64.8,55.5,64.8 M58.6,59.6h2.6
				v-2.5h-2.6V59.6z M58.6,68.5h2.6V66h-2.6V68.5z M65.6,65.7c-1.2,0.7-1,1.5-0.6,2c0.2-0.1,1-0.7,1.3-1
				C66.2,66.6,65.8,66,65.6,65.7 M68.3,61.8c0-0.2,0-0.5,0-0.6c0-0.2-0.4-0.8-0.5-0.8c-0.1,0-0.4,0.3-0.6,0.5
				c-0.1,0.2-0.1,0.6,0.1,0.8C67.6,62.1,67.8,62.1,68.3,61.8 M68.3,63c0-0.1,0-0.2,0-0.3c0-0.1,0-0.4,0-0.7
				c-0.4,0.2-0.5,0.4-0.9,0.2c-0.6,0.5,0.3,0.8,0.5,1C68.1,63.1,68.2,63.1,68.3,63 M73.1,55.9c0.2-0.2,0.7-0.7,1-1
				c-0.2-0.1-0.5-0.3-0.6-0.6C72.9,54.7,72.8,55,73.1,55.9 M77.2,56.4c-0.3,0.3-0.6,0.5-0.8,0.7c0.1,0.2,0.9,0.8,1.4,0.6
				c0.4-0.2,0.6-0.6,0.2-0.9C77.7,56.7,77.5,56.5,77.2,56.4 M77.5,55.7c0.2-0.2,0.4-0.3,0.5-0.4c-0.3-0.3-0.8-0.6-1.1-0.6
				c-0.2,0-0.7,0.2-0.5,0.4c0.2,0.2,0.4,0.5,0.7,0.6C77.3,55.8,77.4,55.8,77.5,55.7 M78.8,67.3c0-0.3,0-0.6,0-0.8
				c0-0.2-0.7-0.7-0.8-0.7c-0.1,0-0.1,0.1-0.3,0.4c-0.1,0.1,0,0.6,0.1,0.6C78.1,67.2,78.4,67.3,78.8,67.3 M77.8,67.3
				c-0.6,0.5,0.1,1,0.3,1.2c0.2-0.1,0.5-0.2,0.7-0.2c0-0.1-0.1-0.2-0.1-0.3c0-0.1,0-0.3,0-0.5C78.3,67.5,78.1,67.5,77.8,67.3
				 M76.4,68.1l-0.4,0.4l-0.4,0.4c-0.3-0.3-0.5-0.3-0.5-0.6l0-1.8l-0.6-0.3c-0.3,0.2-0.5,0.1-0.2-0.1l0.9-0.8l0.2,0l0.6,0.8l0,1.7
				C76.2,68.1,76,68.1,76.4,68.1 M76.3,62.5c-0.3-0.8,0.2-1.6,0.5-1.8c0.2-0.2,0.7-0.6,1-0.8c0.3,0.2,0.5,0.3,0.7,0.4
				c-0.1,0.2-0.1,0.4-0.4,0.5c-0.5,0-0.9-0.1-1.1,0.2c-0.3,0.3-0.1,1.1,0.3,1.4c0.2,0.2,0.9,0.5,1,0.3c0.2-0.4,0.4-0.2,0.2,0.1
				c-0.2,0.2-0.4,0.6-0.6,0.9C77.2,63.6,76.5,63.3,76.3,62.5 M77,68.2c0-0.5,0.2-0.8,0.5-1.1c0,0,0,0-0.1,0c-0.1-0.1-0.2-0.9-0.1-1
				c0.2-0.2,0.9-0.9,1.3-0.9c0.3,0,0.8,0.7,1.1,1c-0.1,0.1,0.1,2,0.1,2.2c0.1,0.2,0.4,0.3,0.5,0.1c0.1-0.2,0.3,0,0.1,0.1
				c-0.1,0.1-0.6,0.5-0.8,0.7c-0.2-0.2-0.6-0.4-0.8-0.6c-0.5,0.1-1,0.4-1.4,0.7C77.1,69.1,77,68.7,77,68.2 M80.9,63.3l-0.4,0.4
				L80,64.2c-0.3-0.3-0.5-0.4-0.5-0.6l0-1.9L79,61.4c-0.3,0.2-0.5,0.1-0.2-0.1l0.9-0.8l0.2,0l0.4,0.6l0,2
				C80.5,63.3,80.5,63.2,80.9,63.3 M80.4,57.1c-1.1-0.1-0.8-0.4-0.6-0.4C80.8,56.7,80.6,57.1,80.4,57.1 M80.4,56.5
				c-1.1,0-0.8-0.4-0.6-0.4C80.7,56.1,80.6,56.4,80.4,56.5 M79.6,58.7l0.5,0.5v0.5L79.7,60h-0.3l-0.3-0.3l0-0.6L79.6,58.7z
				 M79.1,54.9c-0.1,0.1-0.5,0.5-1,0.8c0.1,0,0.1,0,0.2,0.1c0.8,0.4,1,1.1,0.3,1.7c-0.4,0.3-1.1,0.7-1.8,0.7c-0.5,0-1.3-0.4-1.5-0.6
				c0.4-0.4,0.8-0.8,1.1-1c-0.5-0.4-0.9-0.9-0.6-1.4c0.3-0.4,1.1-1.1,1.9-1.1C78.5,54.2,78.8,54.7,79.1,54.9 M75.1,57.3
				c-0.2,0.1-0.6,0.5-1,0.5c-1,0-2.3-0.8-2.1-2.1c0.2-1.4,1.3-1.9,1.8-2c0.5,0,0.7,0.5,1,0.8c-0.5,0.4-1.2,1.1-1.7,1.6
				c0.1,0.2,0.6,1.1,1.7,0.8C75.4,56.9,75.6,57.1,75.1,57.3 M71.8,55.1c-0.2,0.2-0.6,0.4-0.8,0.6c-0.2-0.1-0.5-0.5-0.6-0.6
				c-0.1,0.1-0.2,0.1-0.3,0.2c0,0.3,0,2.5,0,2.8c-0.3,0-0.6,0-0.8,0c0-0.3,0-2.2,0-2.5c0-0.4-0.3-0.4-0.8-0.5
				c0.2-0.3,0.7-0.6,0.9-0.8c0.4,0.3,0.6,0.3,0.8,0.5c0.2-0.1,0.7-0.4,0.8-0.5c0.2,0.2,0.5,0.5,0.6,0.7C71.8,54.8,72,54.9,71.8,55.1
				 M68.3,59.8c0.3,0,0.6,0.6,0.9,0.9c-0.1,0.1-0.1,2-0.1,2.2c0.1,0.1,0.3,0.2,0.4,0.2c0.2-0.2,0.3,0,0.1,0.1
				c-0.1,0.1-0.8,0.7-0.9,0.8c-0.2-0.2-0.3-0.4-0.3-0.8c-0.4,0.1-0.7,0.3-1,0.7c-0.4-0.2-0.8-0.6-0.8-1c0-0.4,0.3-0.7,0.6-1
				c-0.1,0-0.1-0.1-0.2-0.1c-0.1-0.1-0.2-0.8-0.1-1C67.1,60.4,67.8,59.9,68.3,59.8 M67.7,58.8c-0.1-0.2-0.2-0.4-0.5-0.3
				c-0.7,0.2-1.5,0.4-2.1,0.1c-0.6-0.4-1.2-0.5-1.2-1.9c0-0.9,0.8-1.6,1.3-1.9c0.6-0.3,1.5-0.1,2,0c0.2,0.1,0.4,0,0.4-0.2
				c0-0.2,0.2-0.1,0.2,0c0,0.1,0,1.9,0,2c0,0.1-0.3,0.2-0.3,0c0-0.2-0.1-0.6-0.1-0.9c-0.1-0.5-1.3-1.3-2.2-0.2
				c0,0.1-0.4,0.7-0.3,1.1c0,0.3,0.1,0.8,0.3,1.2c0.7,1,1.7,0.6,2.2-0.1c0.2-0.3,0.2-0.6,0.2-0.8c0-0.1,0.3-0.1,0.3,0
				c0,0.1,0,1.3,0,1.4c0,0.2,0.1,0.3,0.2,0.4C68.1,58.9,67.9,59.1,67.7,58.8 M64,60.7c0.3-0.5,1.1-1,1.7-1.2
				c0.2,0.2,0.4,0.5,0.6,0.8c-0.3,0.2-0.5,0.5-0.7,0.6c-0.1-0.1-0.8-1.1-1.2-0.4c-0.3,0.4-0.5,1.4,0.3,2.1c0.4,0.3,0.9,0.4,1.4,0.3
				c-0.3,0.4-0.4,0.5-0.5,0.8c-0.8,0.1-1.2-0.1-1.6-0.5C63.2,62.6,63.5,61.4,64,60.7 M64.3,67.2c0.2-1.4,1.6-2,2-2.3
				c0.1,0.4,0.5,1.1,0.9,1.4c-0.5,0.4-1.5,1.3-1.9,1.6c0.2,0.4,1.1,0.7,1.4,0.4c0.2-0.2,0.5-0.1,0.2,0.1c-0.3,0.4-0.6,0.9-0.8,1.2
				C65.4,69.4,64.1,68.6,64.3,67.2 M67.6,66c0.4-0.3,0.6-0.5,0.9-0.8c0.2,0.4,0.3,0.7,0.5,0.9c0.3-0.2,0.7-0.5,0.9-0.8
				c0.2,0.1,0.6,0.3,0.6,1c0,0.7,0.1,1.9,0.1,2.1c0,0.1,0,0.1,0.2,0c0.2-0.1,0.3,0,0.1,0.2c-0.2,0.1-0.9,0.6-1.1,0.8
				c-0.3-0.5-0.3-0.8-0.2-1.3c0.1-0.4,0-1.4,0-1.6c0-0.2-0.4-0.3-0.5-0.4c-0.2,0.2-0.2,0.2-0.4,0.4c0,0.3,0,2.5,0,2.8
				c-0.5,0-0.4,0-0.7,0c0-0.4,0-2.1,0-2.5C68.1,66.5,67.8,66.2,67.6,66 M71.3,63.5c-0.2,0.2-0.7-0.1-0.8-0.4
				c-0.3-0.4-0.2-1.5-0.1-2.3c0,0-0.2-0.2-0.3-0.2c-0.2-0.1-0.3-0.1,0.1-0.3c0.4-0.2,1.1-1.2,1.2-1.4c0.1-0.2,0.2,0,0.1,0.2
				c-0.3,0.5-0.2,1.1-0.1,1.3c0,0.1,0.8,0,1,0c0.1,0,0.1,0.3,0,0.3c-0.1,0-1.2,0.1-1.2,0.1c-0.1,0,0.1,1.7,0.2,1.8
				c0,0,0.3,0.3,0.5,0.2c0.2-0.1,0.3,0,0.1,0.2C71.8,63,71.6,63.3,71.3,63.5 M71.8,66c0.3-0.2,0.9-1.3,1-1.5
				c0.1-0.2,0.2-0.2,0.2,0.1c0,0.4-0.2,1.2-0.1,1.3c0,0.1,0.5,0.1,0.7,0.1c0.1,0,0.1,0.3,0,0.3c-0.1,0-0.7,0.1-0.7,0.1
				c-0.1,0,0,1.2,0.1,1.4c0.2,0.2,0.4,0.4,0.7,0c0.2-0.2,0.3,0,0.1,0.1c-0.1,0.1-0.5,0.6-0.6,0.9c-0.1,0.3-0.7,0.1-0.9-0.2
				c-0.3-0.4-0.2-1.3-0.2-2.2C72.1,66.5,71.5,66.2,71.8,66 M75.7,64.4c-0.3,0.3-0.5,0.5-0.7,0.7c-0.2-0.1-0.5-0.4-0.7-0.6
				c0.4-0.2,0.6-0.4,0.7-0.7C75.1,64.2,75.4,64.3,75.7,64.4 M73.9,60.2c0.6,0.2,1.5,0.1,1.8,0.9c0.3,0.9-0.3,2-1,2
				c-0.6,0-1.1-0.2-1.5-0.1c-0.2,0-0.3,0.1-0.3,0.2c0,0.2-0.3,0.3-0.3,0c-0.1-0.2-0.1-1.2-0.1-1.5c0-0.3,0.3-0.3,0.3,0
				c0.1,0.3,0.1,0.5,0.4,0.8c0.2,0.2,1.4,0.5,1.8,0.2c0.3-0.3,0.3-0.9-0.1-1.1c-0.4-0.2-1.8-0.6-2.1-1c-0.4-0.7,0.3-1.3,0.7-1.5
				c0.5-0.3,1.1-0.2,1.3-0.2c0.2,0,0.5,0.1,0.5-0.2c0-0.2,0.2-0.2,0.2,0c0.1,0.6,0.1,0.3,0.1,0.9c0,0.3-0.1,0.3-0.2,0.1
				c-0.1-0.2-1-0.9-1.7-0.4C73.1,59.7,73.4,60,73.9,60.2 M76.2,71.2c3.2,0.2,5.9,1.7,5.9,1.7V52.4c0,0-4.7-3.3-12.3-0.3
				c-2.2,0.9-7.7,0.1-7.7,0.1v21C66.9,73.5,73.1,71,76.2,71.2 M83.7,78c0,0.3-0.4,0.7-0.4,0.7l1.3-0.6c-0.3-0.2-1-0.6-1.3-0.7
				C83.3,77.3,83.7,77.6,83.7,78 M85.6,78c-1.2,0.2-2,1.5-3.4,1c-0.2-0.1-0.5-0.2-0.5-0.5c0.2,0.1,0.6,0.2,0.9,0.3
				c0,0-0.7-0.6-0.1-1.3c-0.8,0.5-1.1,0.4-1.1,0.1c0-0.1,1.1-0.9,2-0.5C84.2,77.2,84.8,77.8,85.6,78L85.6,78z M82.3,75.5
				c-0.7,0.1-1.5,0.5-1.7,1.2c-0.4,0.4-0.4-0.7-1.2-0.2C79.1,77,80,78,79.8,78.1c-0.9,0.3-0.8-1.3-1.3-1.4C77.8,77,76,78.6,77.8,80
				c-0.1-0.9,1.6-1.9,2.2,0.1c1.7-0.1,2.3,0.9,2.5,1.5c2.5,0.4,1.8,2.1,1.7,2.1c-0.2-0.4-1.3-2-3.1-0.9c-0.4,0.3-1.1,0.5-1.5,0.2
				c0,0.6,0.7,1.1,1.2,0.9c1.6-0.4,2,1,0.8,1.4c0.3,0.4,0.8,0.4,1.2,0.1c0.7-0.4,0.8-0.8,1-1c0.4,2-2.2,2.2-3,2.4
				c0.1,0.4,0.4,0.5,0.9,0.7c-2.7,0.1-3.3,2.7-3.1,4.1c0.6,0,1.6-1.3,1.5-0.5c-1.9,2.1-2.6,4.8-1.6,6.6c0.5-0.2,0.6-0.7,0.8-1.2
				c0.1-0.1,1.1,0.4-0.5,2.3c-0.1,0.5-0.7,2,0.6,2.3c0.5-0.6,0.4-1,0.5-1.6c0.4-0.1,0.6,1,0.5,1.4c-1.6,0.7-1.4,5.6,0.5,8.2
				c-0.9-1.9-0.7-4.4,0-6.3c0.6-1.5,1.8-4.9,1.9-4.9c0.7,0.9,1.6,4.6,1.6,6.2c1-0.9,1.2-1.8,2-2.5c0.4,1.4,0.5,2.3,0.9,3.5
				c0.4-1.2,1.4-2.5-0.1-6.3c0.3-0.3,0.9,1.3,1.1,1.2c0.1-0.1,0.3-0.9-0.2-2.3c-1.1-1-1.3-2.4-1.1-2.5c0.1-0.1,0.6,1.5,1.2,1.6
				c0.1-1.2,0.4-2.5,0.3-3.4c0-0.2-0.4-1.5-1.6-2.6c-0.7-0.6-0.9-1.9-0.9-2.1c0.7,0.6,0.5,1,1.1,1.3c0.2-0.5,0.1-2.4-0.6-3.3
				c-0.4-0.6-0.2-0.5,0.3-0.2c0.6,0.7,0.3,0.7,0.8,1c1.1-2.7,0.1-3.2,0.2-3.4c0.1-0.2,0.9,1.2,1.6,0.7c-1.1-0.6-1.1-1.5-1.2-2.5
				c-0.1-0.8-0.6-1.1-0.4-1.2c1.1,0.8,1.4-0.1,1.5-0.3c-0.2,0.1-1.2,0.3-1.3-1.3c0-0.6-1-0.9-1-0.9c0.6-0.1,2.4-0.2,2-2
				c-0.2,0.4-0.8,1.1-1.9,0.8c0,0,0.7-0.2,0.6-1C85.6,77.3,84.2,75.3,82.3,75.5 M97.9,56.6c0.3,0.2,1.1,0.6,1.5,0.8
				c0-0.3,0-0.7,0-0.9c0-0.2-0.8-0.7-0.9-0.7c-0.1,0-0.4,0.2-0.5,0.5C97.8,56.5,97.8,56.6,97.9,56.6 M98.8,58.8
				c0.3-0.1,0.5-0.2,0.7-0.2c0-0.1,0-0.2,0-0.3c0-0.1,0-0.4,0-0.7c-0.4-0.1-0.8-0.3-1.2-0.5c0.1,0,0.1,0.1,0.2,0.1
				C98,57.9,98.5,58.6,98.8,58.8 M98.8,63.1c0.2,0.5,1,1.1,1.2,1.2c0.3-0.4,0.5-1.1,0.4-1.7c-0.1-0.5-0.7-1-1.2-1.2
				C98.5,61.8,98.5,62.5,98.8,63.1 M88.3,67.5c-0.4,0.7-0.1,0.9,0.2,1.1c0.3-0.1,0.5-0.3,0.7-0.4c0-0.1,0-0.4,0-0.7
				C88.8,67.6,88.6,67.7,88.3,67.5 M89.2,67.3c0-0.3,0-0.7,0-0.8c0-0.2-0.5-0.6-0.6-0.6c-0.1,0-0.3,0.1-0.4,0.3
				c-0.1,0.1-0.1,0.7,0,0.8C88.6,67.4,88.8,67.4,89.2,67.3 M89.9,69.2c-0.3-0.2-0.5-0.3-0.6-0.6c-0.7,0.3-1,0.7-1.4,1
				c-0.3-0.2-0.5-0.7-0.5-1.1c0-0.4,0.4-1,0.7-1.2c0,0,0,0-0.1-0.1c-0.1-0.1-0.2-0.7-0.1-0.9c0.2-0.2,0.8-1.1,1.3-1.2
				c0.4,0,0.6,0.4,0.9,0.7C90,66,90,67.5,90,67.7c0.3,0.3,0.5,0.4,0.7,0.3c0.2-0.1,0.3,0,0.1,0.1C90.6,68.3,90,69,89.9,69.2
				 M91.6,66.2c0.1,0-0.7-0.3-0.4-0.5c0.6-0.3,1.1-0.9,1.2-1.1c0.1-0.2,0.3-0.1,0.2,0.1c-0.1,0.2-0.2,0.8-0.1,1
				c0,0.1,0.5,0.1,0.7,0.1c0.1,0,0.1,0.3,0,0.3c-0.1,0-0.7,0-0.7,0c-0.1,0,0,1.9,0,2.1c0.1,0.2,0.5,0.3,0.7,0.1
				c0.2-0.2,0.3,0,0.1,0.2c-0.1,0.1-0.4,0.6-0.7,0.7c-0.3,0.1-0.7-0.1-0.9-0.3C91.4,68.4,91.6,67,91.6,66.2 M92.9,63.5
				c-0.3-0.2-0.8-0.6-1-1c-0.4,0.6-0.5,1-1.4,1.3c0.5-0.4,0.9-1.3,0.9-2.1c0-0.7-0.4-1.1-0.8-1.2c-0.3,0.1-0.6,0.3-0.7,0.4
				c-0.2,0.1-0.2-0.2-0.1-0.3c0.4-0.2,1.3-0.8,1.4-1c0.4,0.1,0.8,0.4,0.9,0.7c0.3-0.2,0.8-0.7,0.9-0.8c0.2,0.3,0.7,0.7,1.2,0.9
				c-0.5,0.9-1.6,0.3-1.8,0.1c-0.2,0.3-0.2,0.5,0,0.9c0.2,0.5,1.1,1,1.6,1.1C93.8,62.7,93.1,63.4,92.9,63.5 M93.7,66.6
				c0.3-0.4,0.7-0.6,0.9-0.8c0.4,0.3,0.5,0.4,0.7,0.7c0,0.5-0.1,1.5-0.1,1.8c0,0.3,1.4,0.6,1.4,0.1c0.1-0.5,0-1.1,0-1.4
				c0-0.2-0.6-0.3-0.8-0.3c0.4-0.4,0.7-0.7,0.9-0.9c0.3,0.2,0.6,0.6,0.8,0.9c0,0.5-0.1,1.7,0,2c0.1,0.3,0.1,0.3,0.3,0.5
				c-0.2,0.2-0.4,0.3-0.6,0.5c-0.3-0.1-0.7-0.5-0.7-0.8c-0.3,0.2-1.2,0.6-1.6,0.7c-0.3-0.3-0.6-0.4-0.6-0.8c0-0.4,0.1-1.5,0-1.8
				C94.2,66.7,93.9,66.6,93.7,66.6 M98,63c0-1.1,0.7-2,1.9-2.4c0.9,0.3,1.3,1.2,1.3,1.9c0,0.5-0.3,1.2-0.5,1.6
				c-0.4,0.2-0.7,0.6-1.1,0.9C98.5,65,97.9,63.7,98,63 M98.1,67.2c0.3-0.2,0.9-0.8,1.2-0.9c0.4,0.3,0.6,0.6,0.8,0.8
				c0.3-0.1,0.6-0.4,0.8-0.6c0.3,0.2,0.7,0.5,0.8,0.7c0.2-0.2,0.4,0,0.2,0.2c-0.2,0.2-0.6,0.6-0.8,0.7c-0.2-0.1-0.7-0.6-0.8-0.7
				c-0.1,0.1-0.2,0.1-0.3,0.2c0,0.3,0,2.4,0,2.7c-0.4,0-0.6,0-0.9,0c0-0.3,0-2.2,0-2.5C99.1,67.4,98.5,67.2,98.1,67.2 M102.5,63.4
				c-0.3,0-0.6-0.1-0.7-0.1c-0.2-0.1-0.1-0.3,0.1-0.3c0.2,0,0.5,0.1,0.6,0.1C102.6,63.1,102.6,63.4,102.5,63.4 M102.5,62.7
				c-0.3,0-0.6-0.1-0.7-0.1c-0.2-0.1-0.1-0.3,0.1-0.3c0.2,0,0.5,0.1,0.6,0.1C102.6,62.4,102.7,62.7,102.5,62.7 M100.8,58.6l-0.8,0.9
				c-0.2-0.2-0.4-0.4-0.5-0.7c-0.6,0.1-1.1,0.5-1.4,0.7c-0.3-0.2-0.7-0.9-0.7-1.3c0-0.4,0.3-1.1,0.6-1.3c0,0,0,0,0.1,0
				c-0.1-0.1-0.3-0.2-0.4-0.2c-0.1-0.1-0.1-0.3,0-0.5c0.2-0.2,0.7-0.9,1.2-0.9c0.3,0,0.7,0,1.4,0.6c-0.1,0.1-0.1,1.9-0.1,2.1
				C100.4,58.3,100.8,58.6,100.8,58.6 M95.2,61.9c-0.1,0.7,0.4,1.2,0.9,1.5c0.4,0.2,1,0.1,1.1,0.1c0.1,0,0.1-0.1,0.2-0.2
				c0.1-0.1,0.2,0,0.2,0.1c-0.1,0.1-1,1-1.3,1.1c-0.2,0.1-0.7,0-1-0.3c-0.5-0.7-0.9-0.9-0.8-2.1c0.1-0.8,1.5-1.5,1.8-1.7
				c0.1,0.1,0.8,0.8,1,1c-0.1,0.1-0.5,0.3-0.8,0.3c-0.3,0-0.6-0.3-0.8-0.5C95.7,61.2,95.3,61.4,95.2,61.9 M97,55.2
				c-0.2,0-1.7,0.2-1.7,0.2c-0.1,0,0.1,2,0.1,2.1c0,0.2,0.2,0.4,0.4,0.2c0.2-0.2,0.3,0.1,0.2,0.3c-0.1,0.1-0.5,0.8-0.6,0.9
				c-0.2,0.2-0.6-0.4-0.7-0.7c-0.2-0.5-0.3-1.8-0.3-2.7c0.1,0-0.7-0.3-0.4-0.4c0.7-0.3,1.3-1.2,1.4-1.4c0.1-0.2,0.3-0.1,0.2,0.1
				c-0.2,0.5-0.2,0.8-0.1,1.1c0,0.1,1.4,0,1.6,0C97.2,54.9,97.1,55.2,97,55.2 M93.4,57.6l-0.6,0.8h-0.6c-0.3-0.3-0.5-0.5-0.6-0.8
				l0-2l-0.7-0.4c-0.1,0.2-0.4,0.2-0.3,0l1-0.9l0.2,0l0.7,0.7l0,2.1C92.7,57.4,92.9,57.5,93.4,57.6 M92.6,53.5l-0.4,0.3h-0.3
				l-0.3-0.3l0-0.6l0.5-0.4l0.5,0.5V53.5z M90.5,53.5c-0.4,0.1-0.6,0.5-0.7,0.8c-0.1,0.4-1.3,3.9-1.4,4.1c-0.3-1.1-1.5-3.7-1.9-4.3
				c-0.3-0.5-0.7-0.4-1-0.4c-0.3,0-0.2-0.3,0.1-0.3c0.3,0,2.3,0.2,2.8,0.3c0.2,0,0.2,0.2-0.1,0.3c-0.1,0-0.4,0.2-0.4,0.3
				c0,0.2,0.7,1.7,0.9,2c0.2-0.4,0.8-2.1,0.7-2.5c-0.1-0.4-0.2-0.4-0.5-0.5c-0.3,0-0.3-0.2,0.1-0.2c0.3-0.1,1.2-0.1,1.5-0.1
				C90.8,53.2,90.9,53.4,90.5,53.5 M86.1,59.8c0.6-0.3,2-0.5,2.4-0.4c0.2,0.1,0.5,0,0.5-0.1c0-0.2,0.2-0.1,0.2,0c0,0.1,0,1.6,0,1.7
				c0,0.1-0.2,0.1-0.2,0c0-0.2,0-0.3-0.2-0.6c-0.5-0.8-2-0.9-2.8,0.1c-0.3,0.3-0.4,0.9-0.1,1c0.3,0.1,1.4,0,1.7-0.1
				c0.3-0.1,1.2-0.2,1.3-0.3c0.1-0.1,0.2-0.1,0.2,0c0,0.2,0,0.7,0,0.9c0,0.2-0.1,0.1-0.2,0c-0.1-0.1-0.9-0.1-1.3-0.2
				c-0.6,0-1.5-0.2-1.8-0.1c-0.3,0.1-0.1,0.5,0.2,0.9c0.7,1,2.1,1,2.7,0.2c0.2-0.3,0.2-0.4,0.2-0.6c0-0.1,0.2-0.2,0.2,0
				c0,0.1,0,1.4,0,1.5c0,0.1-0.2,0.2-0.2,0c0-0.3-0.2-0.2-0.5-0.2c-0.8,0.2-1.9,0.3-2.5-0.1c-0.7-0.4-1.3-0.5-1.3-2
				C84.7,60.8,85.6,60.1,86.1,59.8 M85,64.3c0.2,0,0.8,0,1,0c0,0.4,0,3.5,0,3.9c0,0.3,0.3,0.4,0.6,0.3c0.1-0.1,0.3,0,0.1,0.2
				c-0.3,0.2-0.7,0.8-0.8,1c-0.4-0.2-0.7-0.5-0.7-0.8C85.2,68.4,85,64.8,85,64.3 M89.5,71.2c2.1,0,10.4,2.3,14.4,2V52.3
				c0,0-5.9,0.8-11-1c-4.2-1.5-9.9,1.1-9.9,1.1c0,0.7,0,20.5,0,20.5S85.2,71.2,89.5,71.2 M104.7,64.9v4c0,0,2.2,0,4.7-1.6
				c0.7-0.5,1.8-0.3,2.4,0.2h0c0,0-0.3-2.6-2.5-2.3C105.1,65.7,104.7,64.9,104.7,64.9 M111.7,59.2c0,0.3,0.1,0.4,0.1,0.6
				C111.8,59.6,111.8,59.4,111.7,59.2c0,0-0.1-2.3-2.6-2.3c-0.8,0-1.8,1-4.4-0.1v4c1,0.3,3.9-1.3,5-1.8
				C110.5,58.5,111.7,58.8,111.7,59.2 M109,100.9c-0.2-6.3-4-13.3-3-12c2.6,3.2,3.5,10.3,5.3,16.3c0,0,1.2,0.6,0.9-7.1
				c-0.1-1.6-0.7-3.6-1.5-5.1c-1.5-2.9-4.6-7.7-4.5-7.7c0.7-0.6,2.6,3.5,4.1,5.2c1,1.1,3.9,2.1,4.1,2c-2.3-4.4-7.8-8.6-7.2-9.1
				c4.1,3.8,5.3,4,5.5,3.8l-3.7-3.6c-1-1.4-2.4-2.5-2.2-2.4c1.6,0.4-0.9-1.4-2.8-1.9c-0.3-0.1-0.9-0.1-0.9-0.3
				c0-0.3,0.5-0.2,0.9-0.3c0.3-0.1,0.5-0.3,0.5-0.7c-0.7,0.2-1.5,0-2.1-0.3c-1.3-0.6-3.6-1.3-4.7-0.9c-0.6,0.2-0.7,0.2-1.4,0.7
				C96,77.6,95.2,77,94,78.4c-0.4,0.4-0.8,0.9-0.8,1.3c0,0.9,0,0,0.3,0.9c0.1,0.4-0.3,1.1-2,1.6c-0.7,0.2-0.5,0.9-0.5,0.9
				c0.3-0.2,0.8-0.5,1.6-0.2c1.6,0.7,1.9-0.4,2.8-1.2c0,0-0.3,1,0,1.1c1.2,0.3,0.8,1.2,0.7,1.3c-1.5,1.4-0.9,1.9-1.4,2.7
				c-0.5,0.8-1.3,1.1-2.5,1.1c-1.6-0.1,2.1-2.5-1.5-3.5c0.6,0.9,0.8,1.7-0.5,2.4c-0.8,0.5-0.4,2.8-2.4,1.7c0,0-0.2,1.7-0.4,1.8
				c2.8,2.4,1.2,3.7,1.4,7.2c0.9,2.2-0.1,3.2-0.3,3.4c0.1,1.5,0.3,2.3,1.2,3.5c0.7,0.9-0.1,2.2,0.6,3.2c0.6-2.2,1.3-1.3,1.5-4.4
				c0.3-0.5,1.3-1.4,1.9-1.5c0,1.9,0.7,3.6,0.5,4.4c0,0,1.6-0.3,2.1-0.1c0.4,0.1,0.7,0.6,0.7,1c-0.5,0.3-0.5,0.2-1.4,0.8
				c-1.4,1-2.1,3.2-2.1,3.2c0,0,3.3-2.7,3.6-3.2c0.2-0.4,0.4-1,0.5-1.6c0-0.1-1.7-1.1-2.2-2c-1.5-2.9,2.3,1.7,2.4,1.3
				c0.2-1,0.9-2,0.9-2c-0.2-0.3-0.8-0.5-1.8-2.1c-2.1-3.7,2.4,1.6,2.4,1.6c1.2-0.7,1.2,0.2,1.4,1.2c0,0.1,2,1.6,2.1,1.7
				c0.6-0.5,1-1.2,1.2-1.7c0-0.1-3.6-3.3-4.3-4.4c-5.1-8.7,4.1,3.8,4.5,3.5c0.2-0.7,0.3-1.6,0.3-2.9c0,0-1.7-1.2-2.8-3
				c-4.2-7,2.8,2.1,2.8,2c-0.1-1.5-1.3-8-0.5-6.1c0.4,1,1.8,5.2,1.6,9.4C106.3,101.9,108.2,101.1,109,100.9 M101,107.8
				c0,0-0.7-0.5-0.7-0.4c-0.1,0.3-0.3,0.6-0.5,1C99.7,108.8,100.2,108.5,101,107.8 M100.7,105.2c-0.1,0.6-0.1,1-0.3,1.7
				c0,0.1,0.6,0.3,0.9,0.6c0.4-0.4,0.8-0.6,1.2-1.1c-0.1-0.1-1.9-1.6-1.9-1.5C100.8,105,100.8,105,100.7,105.2 M106.2,108.8
				c0.8-0.7,1.2-1.8,2.2-2.1c-0.8-0.7-1.5,0.7-1.9,0.2c0.7-1.1,1.1-1.9,1.2-3.3c0-0.7,0.9-1.4,1.1-1.8c-0.8,0.1-3,1.4-3.5,2.2
				c-1.5,2-1.4,3.8-7.6,6.6c-0.3,0,1.2-1.1,1.6-2.3c0.2-0.6,1-3.2,0.5-4.5c-1.3,1.3-1,1.7-1.4,2.7c-0.9,2.5-1.4,2.8-3.8,4.4
				c-0.3,0.2-2.1,3-4.4,3.1c0.2-0.1,0.1-0.6,0.9-1.1c2.6-1.7,1.6-5.4,5-6c-1.7-0.6-2.8,1-3.1,0.9c1.4-1.9,0.2-3.5,0.4-5
				c-0.5,0.2-0.9,0.8-1,1.3c-0.3,2.7-1.5,3.2-1.7,4.4c0.3,2-1.3,3.5-2.5,4.9c-0.2-1.1,0.1-2.2,1.5-3.1c0.8-0.5-0.1-2.1-0.1-2.1
				c-0.3,1.7-1.3,2.2-1.9,2.3c-0.5,0.1,1.8-2.4,1.6-4.6c-0.1-1-0.4-0.6-0.6-1.7c-2,2.3-0.5,3.7-2.6,6.3c-1,1.2-1.4,3.4-1.5,3.5
				c0-3.2,0.1-2.3,1.6-4.9c1.2-2.2-0.1-4.2-0.2-5.5c-2.6,1.8-2.4,5.2-2.4,4.5c-0.1-0.7-0.4-2,0-3.2c0.6-1.9-0.6-4.9-0.6-4.9
				c-3.6,5.7-0.6,12.3-0.8,12.2c-1.6-2.5-2.7-2.6-3.1-4.4c-0.2-1-2.1-6.6-5.5-6.7c1.7,1.5,1.3,1.7,1.4,4.1c-1.1,6.1,7.4,6.7,6.9,9.9
				c-1.2-1.9-3-2.7-5.6-4.1c-1.2-0.9-2.5-1.4-2.6-2.8c0.1-1.1,0.2-0.9,0-2.2c-0.1-1-1.1-0.4-1.8-2.5c-1.5,1.4-1,3-0.9,3.9
				c0,0.3,0.2,1.2,0,1.8c-0.5-0.4-0.9-1.2-1.5-1.9c-1.1-1.4-1.1-3.1-1.6-4.3c-0.3-0.6-0.6-1.3-0.8-1.3l0,0c-0.3,2.2-0.1,4.2,0.9,5.8
				c0,0-0.3,0.5-0.5,0.6c-1-0.3-2.3-1.1-2.9-2.6c-1.2,1-0.3,2.3-0.4,2.3c-2.7-1.4,0-6.7-3.8-6.5c0.9,1,0.3,2.3,0.3,3.6
				c0,2,2.5,3.5,2.5,3.5c-2.8-1-3.4,0.4-3.4,0.4c0,0,4.1,1.8,10.7,2.5c0.8,0.1,2,1.1,1.8,1.1c-0.8-0.1-2.5-1.2-4.9,1
				c1.4,0,2.4,2.3,4.7,1c5.9-1.7,8.1,1.3,9.1,2c-0.2,0.4-4.6-2.7-8-0.7c-1.8,1.1-4.8,0.1-7.1-1.6c0.9,2.4,4.9,5.1,6.2,5.1
				c1.6,0,3.7-2.1,6-2c3.7,0.2,4.3,3.5,3.8,3.3c0,0-2.9-4.9-6.7,0.3c1.8-0.8,4.1-0.6,6.2,0.4c0.3,0.1-0.5,1-1.1,1.6
				c-0.4,0.4-1.9,2.7-3.6,0.4c-0.3-0.3-1.1-2.5-6.4-2c2,0.9,4.2,3.3,5.3,4.4c2.8,2.8,7-3.4,7.2-2.7c0,1.4,0.7,2,1.1,2.8
				c0.9,1.9-1.2,1.6-2.3,1.1c0,0,2.2,3.4,4.1,1.5c2-2.1-2.7-3.7-1.2-5.4c0.8-0.9,3.8,2.1,5.2,2.1c3.6,0.4,3.4-3,5.4-2.9
				c-1.8-1.8-3.7-0.8-4.1-0.4c-1.2,1.4-2.6,0.5-3.6-0.3c-0.5-0.7-1.4-0.8-2.2-0.6c-0.4,0,0.8-1.3,2.2-1c3.3,0.6,6.7-0.5,7.5-1
				c1.3-0.8,2.1-2,3.6-3.5c-0.5,0.1-3.2,1.6-4.1,2.1c-2.7,1.3-4.3-0.4-4.6-0.4c-0.5,0-0.4-0.4,0.4-0.6c2.7-0.6,4.6-3,7.2-4
				C100.1,110.4,103.7,111.2,106.2,108.8 M105.1,113.5c1.1-1.6,1.7-3.2,2.1-5.1c-0.6,0.8-1.6,1.6-2.5,1.9
				C104.1,112.5,104.4,114.6,105.1,113.5 M115.1,96.3c-2.7,29.3-27.2,34.3-32.5,35.2c-0.3,0.1-29.5-3.7-32.5-35.2c0,0,0-46.6,0-46.6
				s27.9-3.6,64.9,0L115.1,96.3z M116.8,96.5l0-48.5c-39-3.8-68.4,0-68.4,0s0,48.5,0,48.5c3.1,32.9,33.9,36.7,34.2,36.7
				C88.1,132.2,113.9,127.1,116.8,96.5"/>
		</g>
		<path class="st1" d="M478,52.5L478,52.5l0-0.1c-0.1-1-0.1-2.4-0.1-3.8v-0.3l-0.3,0.1c-0.4,0.1-2.1,0.1-3.9,0.1h-5.3
			c-1.1,0-2.1,0-3.4-0.1l-0.1,0l-0.1,0c-0.2,0.1-0.3,0.5-0.3,0.6c0,0.3,0.1,0.5,0.2,0.6l0.6,0.1c1.5,0.2,1.5,0.3,1.5,3.4v10.4
			c0,3.1-0.1,3.2-1.5,3.4l-0.8,0.1l-0.1,0.1c-0.2,0.2-0.2,0.4-0.2,0.6c0,0.2,0.1,0.4,0.3,0.5l0.1,0l0.1,0c1.4-0.1,2.3-0.1,3.6-0.1
			c1.2,0,2.2,0,3.9,0.1l0.1,0l0.1,0c0.2-0.1,0.3-0.4,0.3-0.6c0-0.3-0.1-0.4-0.2-0.5l-1.1-0.1c-1.5-0.1-1.6-0.3-1.6-3.4v-4
			c0-0.6,0-0.6,0.7-0.6h2c1,0,1.8,0,2.2,0.1c0.4,0.1,0.6,0.4,0.8,0.9l0.3,1.2l0.1,0c0.3,0.2,0.9,0.2,1.1,0l0-0.1V61
			c0-0.3,0-0.7,0-1.1c0-0.5-0.1-1.1-0.1-1.7c0-0.6,0-1.2,0.1-1.8c0-0.5,0-0.9,0-1.2v-0.1l0-0.1c-0.1-0.2-0.4-0.2-0.6-0.2
			c-0.2,0-0.5,0.1-0.6,0.2l-0.3,1.3c-0.2,0.7-0.4,0.8-0.6,0.9c-0.3,0.1-1.2,0.2-2.4,0.2h-2c-0.7,0-0.7,0-0.7-0.6v-6.1
			c0-0.9,0-0.9,0.6-0.9h1.8c1.2,0,2.1,0,2.8,0.2c1.2,0.3,1.6,1.2,1.9,2.6l0,0.1l0.1,0.1c0.1,0.1,0.3,0.1,0.4,0.1
			C477.7,52.8,477.9,52.7,478,52.5L478,52.5z M458.6,58.1c0-4.9-3.2-10.2-10.3-10.2c-6,0-10.6,4.5-10.6,10.5c0,5,3.6,10.1,10.6,10.1
			C454.1,68.5,458.6,64,458.6,58.1L458.6,58.1z M455.2,59c0,6-3.5,8.1-6.6,8.1c-6,0-7.6-6.1-7.6-9.6c0-6,3.6-8.2,6.7-8.2
			C453.3,49.3,455.2,54.5,455.2,59L455.2,59z M429.7,108.6c0,12.5,9.3,23.6,24.8,23.6c13.4,0,24.2-10.2,24.2-24.3
			c0-12.3-8.1-23.9-24.2-23.9C440.2,84,429.7,94.7,429.7,108.6L429.7,108.6z M436.7,106.4c0-15.2,9.4-20.2,16.6-20.2
			c13.3,0,18.4,12.4,18.4,23.9c0,13.7-7.9,20-16.3,20C441.7,130.1,436.7,116.7,436.7,106.4L436.7,106.4z M423.1,49.5
			c0.1-0.1,0.2-0.3,0.2-0.6c0-0.2-0.1-0.4-0.3-0.5l-0.1,0l-0.1,0c-2.1,0.1-3.3,0.1-5.5,0l-0.1,0l-0.1,0c-0.2,0.1-0.3,0.2-0.3,0.4
			c0,0.2,0,0.5,0.2,0.6l0.1,0.1l0.6,0.1c0.6,0.1,0.9,0.2,1,0.3c-0.1,0.4-1.1,2.3-1.7,3.4l-0.1,0.2c-0.7,1.4-1.5,2.8-2.5,4.6
			c-0.8-1.4-1.5-2.9-2.2-4.4c-0.3-0.6-0.6-1.2-0.9-1.7c-0.2-0.4-0.9-1.9-0.9-2.1c0-0.1,0.1-0.2,1-0.3l0.4-0.1l0.1-0.1
			c0.2-0.2,0.2-0.4,0.2-0.7c0-0.2-0.2-0.3-0.3-0.4l0,0l0,0c-0.7,0.1-1.8,0.1-3.1,0.1c-1.3,0-2.4,0-3.3-0.1l-0.1,0l-0.1,0
			c-0.1,0.1-0.2,0.2-0.3,0.4c0,0.2,0,0.5,0.2,0.6l0.1,0.1l0.9,0.2c0.8,0.1,1.2,0.2,2.1,2.1l3.4,6.7c0.8,1.6,0.9,1.9,0.9,3.5v1.5
			c0,3.1-0.1,3.3-1.5,3.5l-1,0.1l-0.1,0.1c-0.2,0.2-0.2,0.4-0.2,0.6c0,0.2,0.1,0.4,0.3,0.4l0.1,0l0.1,0c1.6-0.1,2.6-0.1,3.8-0.1
			c1.2,0,2.2,0,3.9,0.1l0.1,0l0,0c0.1-0.1,0.2-0.2,0.3-0.4c0-0.2,0-0.5-0.2-0.6l-0.1-0.1l-1.2-0.1c-1.3-0.1-1.5-0.3-1.5-3.5v-1.5
			c0-2.2,0.1-2.4,1.3-4.6l1.8-3.2c0.2-0.3,0.3-0.6,0.5-0.8c1.1-2,2-3.4,3.2-3.6L423.1,49.5L423.1,49.5L423.1,49.5z M411.8,85
			c-1.2-0.3-4.9-1-8.8-1c-10.5,0-17.4,3.3-22.1,8.1c-4.3,4.6-6.3,10.6-6.3,16.5c0,6.1,2.2,11.6,6.4,15.8c5.4,5.4,13,7.7,21.2,7.7
			c3.8,0,8.8-0.8,12.5-1.8c1.3-0.3,2.6-0.6,3.4-0.6c0.3-0.2,0.3-0.6,0.1-0.8c-1.3-0.5-1.7-2.2-1.7-4.9V120c0-3.6,0.1-5.5,3-5.8
			l1.1-0.1c0.5-0.4,0.4-1.5-0.1-1.7c-2.3,0.1-4.7,0.2-7.4,0.2c-4.1,0-7.9-0.1-10-0.2c-0.5,0.2-0.6,1.5,0,1.7l3.1,0.3
			c4.3,0.5,4.5,0.9,4.5,6.8v2.8c0,2.2-0.3,3.5-0.7,4c-0.8,1.2-3.3,2.1-7.7,2.1c-14,0-20.9-10.5-20.9-23.9c0-10.4,5.9-20.1,19.4-20.1
			c7.1,0,12.3,2.4,14.3,9.9c0.4,0.4,1.7,0.3,1.9-0.2c-0.6-4.2-1-7.8-1-10.1C415.3,85.7,413.1,85.2,411.8,85L411.8,85z M401,48
			L401,48l0-0.2c-0.1-0.2-0.4-0.2-0.5-0.2c-0.1,0-0.2,0-0.3,0l-0.1,0l0,0.1c-0.4,0.6-0.5,0.7-2.1,0.7h-12c-1.3,0-1.9-0.1-2-0.7
			l0-0.1l-0.1,0c-0.1-0.1-0.2-0.1-0.4-0.1c-0.1,0-0.3,0-0.4,0.1l-0.1,0.1l0,0.1c-0.2,1.2-0.6,3-1.1,4.3l0,0.1l0,0.1
			c0.2,0.3,0.8,0.5,1.1,0.3l0,0l0-0.1c0.3-0.7,0.6-1.3,1.2-1.9c0.6-0.6,2.1-0.7,3.4-0.7h1.6c0.6,0,0.6,0,0.6,0.7v13
			c0,3.1-0.2,3.3-1.6,3.4l-1,0.1l-0.1,0c-0.2,0.1-0.3,0.3-0.3,0.6c0,0.2,0.1,0.4,0.3,0.5l0,0l0.1,0c1.8-0.1,2.8-0.1,4-0.1
			c1.1,0,2.1,0,3.8,0.1l0.1,0l0.1,0c0.2-0.1,0.3-0.5,0.3-0.6c0-0.3-0.1-0.5-0.2-0.5l-1-0.1c-1.5-0.1-1.5-0.3-1.5-3.4v-13
			c0-0.3,0-0.6,0-0.6c0,0,0.4,0,0.6,0h2.1c1.6,0,2.6,0.2,3.2,0.7c0.3,0.2,0.5,0.9,0.6,2l0,0.1l0,0.1c0.1,0.1,0.3,0.2,0.5,0.2
			c0.3,0,0.5-0.1,0.6-0.3l0-0.1l0-0.1C400.5,51.5,400.7,49.1,401,48L401,48z M374.6,63.4V53.1c0-3.2,0.1-3.4,1.6-3.5l0.8-0.1l0,0
			c0.1-0.1,0.2-0.3,0.2-0.6c0-0.1,0-0.4-0.3-0.6l-0.1,0l-0.1,0c-1.4,0.1-2.4,0.1-3.6,0.1c-1.2,0-2.2,0-3.6-0.1l-0.1,0l-0.1,0
			c-0.2,0.1-0.3,0.5-0.3,0.6c0,0.3,0.1,0.5,0.2,0.5l0,0l0.8,0.1c1.5,0.1,1.6,0.3,1.6,3.5v10.3c0,3.1-0.1,3.3-1.6,3.5l-0.8,0.1
			l-0.1,0.1c-0.2,0.2-0.2,0.4-0.2,0.6c0,0.2,0.1,0.4,0.3,0.4l0.1,0l0.1,0C371,68,372,68,373.2,68c1.2,0,2.1,0,3.6,0.1l0.1,0l0.1,0
			c0.2-0.1,0.3-0.5,0.3-0.6c0-0.3-0.1-0.5-0.2-0.5l-0.8-0.1C374.6,66.7,374.6,66.5,374.6,63.4L374.6,63.4z M368.7,129.2
			c-3-0.3-3.9-1.4-5.9-7.4l-9.5-28c-1-3.1-2.2-6.3-3.1-9.3c-0.1-0.5-0.6-0.6-1-0.6c-0.8,0.9-1.9,2.2-3.6,2.6
			c0.2,1.1-0.2,2.4-1.2,4.9l-7.1,18.8c-2.9,7.8-4.9,12.3-6.1,15.5c-1,2.5-2.5,3.3-4.2,3.4l-2.3,0.2c-0.4,0.3-0.3,1.5,0.1,1.7
			c1.9-0.1,4.4-0.2,6.7-0.2c3.3,0.1,5.4,0.1,7.2,0.2c0.6-0.3,0.6-1.4,0.1-1.7l-2.3-0.2c-1.7-0.1-2-0.6-2-1.4c0-0.8,0.5-2.6,1.5-5.8
			l2.4-7.3c0.5-1.5,0.9-1.7,2.6-1.7h10.5c2.1,0,2.4,0.2,2.9,1.7l3.1,9.5c0.6,1.7,0.9,2.9,0.9,3.7c0,0.7-1,1.1-2.4,1.3l-2,0.2
			c-0.5,0.3-0.4,1.5,0.1,1.7c2-0.1,4.7-0.2,8-0.2c3.1,0,5.6,0.1,8.4,0.2c0.3-0.3,0.5-1.4,0-1.7L368.7,129.2L368.7,129.2z
			 M350.8,110.3h-8.6c-2,0-2-0.1-1.5-1.7l4.4-12.1c0.8-2.1,1.5-3.8,1.7-4.1h0.1c0.4,0.8,1,2.7,1.6,4.4l3.8,11.4
			C352.9,110,352.8,110.3,350.8,110.3L350.8,110.3z M354.7,52.3c0-1.1,0.4-3,3.2-3c2.6,0,3.3,1.7,3.7,3.1l0,0.1
			c0.1,0.1,0.2,0.2,0.4,0.2c0.2,0,0.5-0.1,0.6-0.3l0-0.1v-0.1c0-1.2-0.2-2.8-0.5-3.6l-0.1-0.1h-0.2c-0.2,0-0.6-0.1-1-0.2
			c-0.7-0.2-1.8-0.4-2.8-0.4c-3.7,0-6.1,2.1-6.1,5.2c0,2.6,2,4.4,3.2,5.2l2.8,1.8c2,1.3,2.3,2.6,2.3,3.9c0,1.5-1.1,3.1-3.4,3.1
			c-2.9,0-4.2-2.3-4.8-4.2l0-0.1c-0.1-0.1-0.2-0.2-0.4-0.2c-0.2,0-0.5,0.1-0.6,0.3l0,0.1l0,0.1c0.1,1.3,0.4,3.5,0.8,4.2l0,0.1l0.1,0
			c0.6,0.3,2.2,1.1,4.6,1.1c3.8,0,6.4-2.2,6.4-5.6c0-2.3-1.2-4.2-3.7-5.8l-2.3-1.5C356.2,55.1,354.7,54,354.7,52.3L354.7,52.3z
			 M347.4,68.1c0.1-0.1,0.2-0.3,0.2-0.4c0-0.2-0.1-0.3-0.3-0.3l-0.1,0c-0.7-0.1-1.4-0.3-1.9-0.8c-2-1.7-3.6-4.1-5.8-7.7
			c-0.2-0.2-0.2-0.4-0.2-0.4c1-0.4,3.7-1.8,3.7-5c0-2.4-1.4-3.7-2.5-4.3c-1.5-0.8-3.3-0.9-5-0.9c-2.7,0-4.7,0.1-6.5,0.2l-0.1,0
			c-0.2,0.1-0.3,0.3-0.3,0.5c0,0.2,0.1,0.5,0.2,0.6l0,0l1,0.1c0.9,0.1,1.1,0.3,1.1,3.2v10.4c0,3.1-0.1,3.2-1.5,3.4l-0.8,0.1
			l-0.1,0.1c-0.2,0.2-0.2,0.5-0.1,0.7c0,0.2,0.1,0.3,0.3,0.4l0.1,0l0.1,0c1.3-0.1,2.3-0.1,3.6-0.1c1.2,0,2.2,0,3.4,0.1l0.1,0l0.1,0
			c0.2-0.1,0.3-0.4,0.3-0.5c0-0.3,0-0.5-0.2-0.6l0,0l-0.7-0.1c-1.5-0.2-1.5-0.3-1.5-3.4v-3.7c0-0.4,0-0.4,1.1-0.4
			c1.1,0,1.5,0.3,1.9,0.8c0.4,0.6,1,1.5,1.5,2.2c0.5,0.8,1,1.6,1.4,2.1c2,2.8,3.5,3.7,6.2,3.7C346.5,68.3,347,68.3,347.4,68.1
			L347.4,68.1L347.4,68.1z M338.6,57.4c-0.8,0.6-2,0.7-2.9,0.7c-1.3,0-1.7,0-1.8-0.1c0-0.1,0-0.5,0-0.8v-6.8c0-0.7,0-0.7,1.7-0.7
			c3.3,0,4.4,2.3,4.4,4.2C340,55.5,339.5,56.6,338.6,57.4L338.6,57.4z M323.6,63.9L323.6,63.9l0-0.1c-0.1-0.3-0.4-0.4-0.7-0.4
			c-0.1,0-0.3,0-0.4,0.1l-0.1,0.1c-0.8,1.7-1.6,2.5-2,2.7c-0.6,0.3-1.5,0.4-3.6,0.4c-2.4,0-3-0.3-3.3-0.6c-0.4-0.4-0.5-1.4-0.5-2.9
			v-4.1c0-0.6,0-0.6,0.7-0.6h1.7c1,0,1.8,0,2.2,0.1c0.4,0.1,0.6,0.4,0.7,0.9l0.3,1.1l0,0.1c0.1,0.1,0.3,0.2,0.5,0.2
			c0.3,0,0.5-0.1,0.6-0.3l0-0.1v-0.1c0-0.3,0-0.7,0-1.1c0-0.5-0.1-1.1-0.1-1.7c0-0.6,0-1.2,0.1-1.8c0-0.4,0-0.8,0-1.2v-0.1l0-0.1
			c-0.1-0.2-0.3-0.3-0.6-0.3c-0.2,0-0.4,0.1-0.5,0.2l-0.3,1.3c-0.1,0.7-0.3,0.8-0.5,0.8c-0.3,0.1-1.2,0.2-2.4,0.2h-1.7
			c-0.7,0-0.7,0-0.7-0.6v-5.8c0-0.9,0-0.9,0.6-0.9h2.1c1.2,0,2.2,0,2.8,0.2c1.3,0.3,1.6,1.2,2,2.4l0.1,0.2l0,0.1
			c0.1,0.1,0.3,0.2,0.5,0.2c0.2,0,0.5-0.1,0.6-0.3l0-0.1l0-0.4c-0.1-1.7-0.3-3.1-0.4-3.6l-0.1-0.2l-0.2,0c-0.3,0.1-2.1,0.1-3.9,0.1
			h-5.5c-1.1,0-2.1,0-3.4-0.1l-0.1,0l-0.1,0c-0.2,0.1-0.3,0.5-0.3,0.6c0,0.3,0.1,0.5,0.2,0.6l0.6,0.1c1.5,0.2,1.6,0.4,1.6,3.4v10.4
			c0,3.1-0.2,3.3-1.6,3.4l-1,0.1l-0.1,0.1c-0.2,0.2-0.2,0.4-0.2,0.6c0,0.2,0.1,0.4,0.3,0.4l0.1,0l0.1,0c1.7-0.1,2.7-0.1,3.9-0.1h2.6
			c2.5,0,5.1,0,7.8,0.1l0.1,0l0.1-0.1C322.7,67.2,323.4,64.9,323.6,63.9L323.6,63.9z M303.7,49.4c0.2-0.2,0.2-0.4,0.2-0.6
			c0-0.2-0.1-0.4-0.3-0.5l-0.1,0l-0.1,0c-1,0.1-1.9,0.1-2.8,0.1c-1.1,0-2.2,0-3-0.1l-0.1,0l-0.1,0c-0.2,0.1-0.3,0.3-0.3,0.5
			c0,0.2,0.1,0.4,0.2,0.6l0.1,0l0.6,0.1c1,0.1,1.1,0.3,1.1,0.3c0,0.2,0,0.5-0.2,1.1c-0.5,1.3-1.9,4.6-2.7,6.5
			c-0.2,0.5-0.5,1.1-0.8,1.8c-0.6,1.3-1.2,2.9-1.8,4.1c-1.4-3.2-2.6-6.3-3.9-9.6c-0.8-2.1-1.3-3.6-1.4-4c0-0.1,0.3-0.2,1.2-0.3
			l0.5-0.1l0,0c0.1-0.1,0.2-0.3,0.2-0.6c0-0.2-0.1-0.4-0.3-0.5l-0.1,0l-0.1,0c-1.3,0.1-2.3,0.1-3.5,0.1c-1.2,0-2.1,0-3-0.1l-0.1,0
			l-0.1,0c-0.2,0.1-0.3,0.3-0.3,0.5c0,0.2,0.1,0.4,0.2,0.6l0.1,0l0.6,0.1c1.1,0.1,1.5,0.6,2.2,2.2l5.1,12.6c0.6,1.5,1.1,2.8,1.3,3.8
			l0,0.1l0.1,0c0.2,0.1,0.3,0.1,0.5,0.1c0.2,0,0.3,0,0.4-0.1l0.1,0l0-0.1c0.5-1.6,1.9-5,3-7.6l1.6-3.6c1.3-3.1,2.5-5.4,3.2-6.6
			c0.4-0.6,0.8-0.9,1.3-0.9L303.7,49.4L303.7,49.4L303.7,49.4z M284.8,89.8c-5.3,4.1-8.8,10.7-8.8,18.5c0,9,4.3,15.3,9.9,19.1
			c5.1,3.4,11.1,4.7,17.3,4.7c4.5,0,9.5-1,11-1.6c0.8-0.3,1.6-0.6,2.4-0.7c1-1.3,2.9-5.9,3.3-9.5c-0.3-0.5-1.3-0.6-1.8-0.3
			c-1.6,4.1-5.6,10-14.6,10c-11.4,0-20.7-8.1-20.7-22.7c0-14.4,9.1-21.2,19.7-21.2c10.1,0,13.2,5.4,14.3,10.2
			c0.5,0.4,1.5,0.3,1.9-0.1c-0.6-4.2-0.9-8.6-1-10.2c-0.6,0.1-1.1-0.1-1.9-0.3c-3.3-0.9-8.6-1.7-12.3-1.7
			C296.3,83.9,289.9,85.9,284.8,89.8L284.8,89.8z M275.9,63.4V53.1c0-3.1,0.1-3.4,1.6-3.5l0.8-0.1l0,0c0.1-0.1,0.2-0.3,0.2-0.6
			c0-0.1,0-0.4-0.3-0.6l-0.1,0l-0.1,0c-1.4,0.1-2.4,0.1-3.6,0.1c-1.2,0-2.2,0-3.6-0.1l-0.1,0l-0.1,0c-0.2,0.1-0.3,0.5-0.3,0.6
			c0,0.3,0.1,0.5,0.2,0.6l0,0l0.8,0.1c1.5,0.1,1.6,0.4,1.6,3.5v10.3c0,3.1-0.1,3.3-1.6,3.5l-0.8,0.1l-0.1,0.1
			c-0.2,0.2-0.2,0.4-0.2,0.6c0,0.2,0.1,0.4,0.3,0.4l0.1,0l0.1,0c1.5-0.1,2.4-0.1,3.6-0.1c1.1,0,2.1,0,3.6,0.1l0.1,0l0.1,0
			c0.2-0.1,0.3-0.5,0.3-0.6c0-0.3-0.1-0.5-0.2-0.5l-0.8-0.1C275.9,66.7,275.9,66.5,275.9,63.4L275.9,63.4z M261.3,120.4V95.6
			c0-7.4,0.1-8.6,4.2-8.9l1.7-0.1c0.4-0.3,0.3-1.5-0.1-1.7c-3.5,0.1-5.8,0.2-8.6,0.2c-2.9,0-5.3-0.1-8.8-0.2
			c-0.4,0.2-0.6,1.5-0.1,1.7l1.7,0.1c4.1,0.3,4.2,1.5,4.2,8.9v24.8c0,7.4-0.1,8.4-4.2,8.8l-1.7,0.2c-0.4,0.4-0.3,1.5,0.1,1.7
			c3.5-0.1,5.8-0.2,8.8-0.2c2.8,0,5.2,0.1,8.6,0.2c0.4-0.2,0.6-1.5,0.1-1.7l-1.7-0.2C261.4,128.8,261.3,127.8,261.3,120.4
			L261.3,120.4z M264.9,49.4c0.1-0.1,0.2-0.4,0.2-0.6c0-0.2-0.1-0.4-0.3-0.5l-0.1,0l-0.1,0c-1,0.1-1.7,0.1-3,0.1c-1,0-2,0-3.4-0.1
			l0,0l0,0c-0.2,0.1-0.3,0.2-0.3,0.4c0,0.3,0,0.5,0.2,0.7l0.1,0l0.6,0.1c1,0.1,1.5,0.3,1.6,0.5c0.3,0.5,0.5,2.7,0.5,5.9v6.2
			c0,0.3,0,0.6,0,0.8c-1-1-2.1-2.2-3.4-3.7l-4-4.5c-2.9-3.2-4.5-5.3-4.9-6.3l-0.1-0.2l-0.2,0c-0.3,0.1-0.8,0.1-1.3,0.1
			c-0.5,0-2.1,0-3.3-0.1l-0.1,0l-0.1,0c-0.2,0.1-0.3,0.2-0.3,0.4c0,0.2,0,0.5,0.2,0.6l0.1,0.1l0.6,0.1c0.8,0.1,1.4,0.3,1.7,0.6
			c0.5,0.6,0.6,1.1,0.6,1.9v8.6c0,1.4,0,4.7-0.4,5.6c-0.1,0.1-0.3,0.3-1.1,0.5l-0.9,0.1L244,67c-0.1,0.1-0.2,0.3-0.2,0.6
			c0,0.2,0.1,0.4,0.3,0.5l0.1,0l0.1,0c1-0.1,1.8-0.1,3-0.1c1,0,2,0,3.4,0.1l0.1,0l0.1,0c0.1-0.1,0.2-0.3,0.3-0.4
			c0-0.2,0-0.4-0.1-0.6l-0.1-0.1l-1-0.1c-0.7-0.1-1.2-0.2-1.3-0.4c-0.3-0.6-0.5-2.7-0.5-5.9v-6.3c0-0.5,0-1.1,0.1-1.5
			c0.5,0.5,1.2,1.4,1.9,2.2c0.5,0.6,0.9,1.1,1.2,1.4l6.7,7.7c2.2,2.5,3.3,3.8,3.7,4.4l0.1,0.1h0.1c0.4,0,0.7-0.2,0.8-0.5l0,0l0,0
			c0-0.3-0.1-1.5-0.1-5.1l0-7.3c0-1.5,0-4.6,0.4-5.5c0-0.1,0.4-0.3,1.5-0.5L264.9,49.4L264.9,49.4L264.9,49.4z M238.9,49.4
			c0.1-0.2,0.2-0.4,0.2-0.6c0-0.2-0.1-0.3-0.3-0.4l-0.1,0l-0.1,0c-1,0.1-1.8,0.1-3,0.1c-1.1,0-2.2,0-3.3-0.1l-0.1,0l-0.1,0
			c-0.1,0.1-0.2,0.3-0.3,0.5c0,0.2,0,0.4,0.1,0.6l0.1,0.1l0.8,0.1c0.7,0.1,1.1,0.2,1.3,0.5c0.3,0.6,0.5,2.7,0.5,5.9v3.3
			c0,3.4-1,7.5-5.6,7.5c-3.9,0-5.7-2.4-5.7-7.5V53c0-3.1,0.1-3.3,1.5-3.4l0.8-0.1l0,0c0.1-0.1,0.2-0.3,0.2-0.5
			c0-0.2-0.1-0.5-0.3-0.5l-0.1,0l-0.1,0c-1.4,0.1-2.4,0.1-3.6,0.1c-1.2,0-2.2,0-3.6-0.1l-0.1,0l-0.1,0c-0.2,0.1-0.3,0.3-0.3,0.5
			c0,0.2,0.1,0.4,0.2,0.5l0,0l0.8,0.1c1.4,0.1,1.5,0.4,1.5,3.4v6.8c0,3.5,0.7,5.7,2.3,7c1.3,1.1,3.2,1.6,5.6,1.6
			c2.3,0,4.5-0.8,5.7-2.2c1.4-1.5,2.1-3.8,2.1-7.1v-3.3c0-1.5,0-4.9,0.4-5.8c0.1-0.3,0.6-0.5,1.3-0.6L238.9,49.4L238.9,49.4
			L238.9,49.4z M205.5,86.6c0.4-0.3,0.3-1.5-0.1-1.7c-3,0.1-5.4,0.2-8.1,0.2c-3,0-5.4-0.1-8.8-0.2c-0.4,0.2-0.6,1.5-0.1,1.7l1.8,0.1
			c3.6,0.3,4.1,1.5,4.1,8.8v25.1c0,7.3-0.1,8-4,8.7l-1.2,0.2c-0.4,0.4-0.3,1.5,0.1,1.7c2.7-0.1,5.1-0.2,8.1-0.2
			c2.7,0,5.1,0.1,8.8,0.2c0.4-0.2,0.6-1.5,0.1-1.7l-2-0.2c-3.9-0.4-4.2-1.4-4.2-8.7v-9.8c0-2.1,0.1-2.2,3.5-2.2h19.9
			c3.3,0,3.5,0.1,3.5,2.2v9.8c0,7.3,0,8-4.2,8.7l-1.3,0.2c-0.4,0.4-0.3,1.5,0.1,1.7c3.1-0.1,5.6-0.2,8.4-0.2c2.7,0,5.1,0.1,8.4,0.2
			c0.4-0.2,0.6-1.5,0.1-1.7l-1.7-0.2c-4-0.5-4.2-1.4-4.2-8.7V95.5c0-7.3,0.1-8.4,4.2-8.8l1.5-0.1c0.4-0.3,0.3-1.5-0.1-1.7
			c-3.1,0.1-5.5,0.2-8.2,0.2c-2.9,0-5.2-0.1-8.4-0.2c-0.4,0.2-0.6,1.5-0.1,1.7l1.3,0.1c4.1,0.4,4.2,1.5,4.2,8.8v8
			c0,2.2-0.1,2.2-3.5,2.2h-19.9c-3.3,0-3.5-0.1-3.5-2.2v-8c0-7.3,0.1-8.4,4.2-8.8L205.5,86.6L205.5,86.6z M202.7,63.9L202.7,63.9
			l0-0.1c-0.1-0.3-0.4-0.4-0.7-0.4c-0.1,0-0.3,0-0.4,0.1l-0.1,0.1c-0.8,1.7-1.6,2.5-2,2.7c-0.6,0.3-1.5,0.4-3.6,0.4
			c-2.4,0-3-0.3-3.3-0.6c-0.4-0.4-0.5-1.4-0.5-2.9v-4.1c0-0.6,0-0.6,0.7-0.6h1.7c1,0,1.8,0,2.2,0.1c0.4,0.1,0.6,0.4,0.7,0.9l0.3,1.1
			l0,0.1c0.1,0.1,0.3,0.2,0.5,0.2c0.3,0,0.5-0.1,0.6-0.3l0-0.1v-0.1c0-0.3,0-0.7,0-1.1c0-0.5-0.1-1.1-0.1-1.7c0-0.6,0-1.2,0.1-1.8
			c0-0.4,0-0.8,0-1.2v-0.1l0-0.1c-0.1-0.2-0.3-0.3-0.6-0.3c-0.2,0-0.4,0.1-0.5,0.2l-0.3,1.3c-0.1,0.7-0.3,0.8-0.5,0.8
			c-0.3,0.1-1.2,0.2-2.4,0.2h-1.7c-0.7,0-0.7,0-0.7-0.6v-5.8c0-0.9,0-0.9,0.6-0.9h2.1c1.2,0,2.2,0,2.8,0.2c1.3,0.3,1.6,1.2,2,2.4
			l0.1,0.2l0,0.1c0.1,0.1,0.3,0.2,0.5,0.2c0.2,0,0.5-0.1,0.6-0.3l0-0.1l0-0.4c-0.2-1.7-0.3-3.1-0.4-3.6l-0.1-0.2l-0.2,0
			c-0.3,0.1-2.1,0.1-3.9,0.1h-5.5c-1.1,0-2.1,0-3.4-0.1l-0.1,0l-0.1,0c-0.2,0.1-0.3,0.5-0.3,0.6c0,0.3,0.1,0.5,0.2,0.6l0.6,0.1
			c1.5,0.2,1.6,0.4,1.6,3.4v10.4c0,3.1-0.2,3.3-1.6,3.4l-1,0.1l-0.1,0.1c-0.2,0.2-0.2,0.4-0.2,0.6c0,0.2,0.1,0.4,0.3,0.4l0.1,0
			l0.1,0c1.7-0.1,2.7-0.1,3.9-0.1h2.6c2.5,0,5.1,0,7.8,0.1l0.1,0l0.1-0.1C201.8,67.2,202.5,64.9,202.7,63.9L202.7,63.9z M178.5,63.4
			V53c0-3.1,0.1-3.3,1.5-3.4l0.6-0.1l0.1,0c0.1-0.1,0.2-0.3,0.2-0.5c0-0.1,0-0.4-0.3-0.6l-0.1,0l-0.1,0c-1.4,0.1-2.4,0.1-3.4,0.1
			c-1.3,0-2.3,0-3.5-0.1l-0.1,0l-0.1,0c-0.2,0.1-0.3,0.5-0.3,0.6c0,0.3,0.1,0.5,0.2,0.6l0.7,0.1c1.5,0.2,1.6,0.3,1.6,3.4v3.3
			c0,0.7,0,0.7-1.2,0.7h-8.3c-1.2,0-1.2,0-1.2-0.7V53c0-3.1,0.1-3.3,1.5-3.4l0.6-0.1l0.1,0c0.1-0.1,0.2-0.3,0.2-0.6
			c0-0.1,0-0.4-0.3-0.6l-0.1,0l-0.1,0c-1.3,0.1-2.3,0.1-3.4,0.1c-0.8,0-1.4,0-2.1,0c-0.5,0-1,0-1.5,0l-0.1,0l0,0
			c-0.2,0.1-0.3,0.5-0.3,0.6c0,0.3,0.1,0.5,0.2,0.6l0,0l0.8,0.1c1.3,0.1,1.5,0.4,1.5,3.4v10.4c0,3-0.1,3.1-1.5,3.4L160,67l0,0
			c-0.2,0.2-0.2,0.4-0.2,0.6c0,0.2,0.1,0.4,0.3,0.4l0,0l0.1,0c0.4,0,0.8,0,1.2,0c0.7,0,1.4,0,2.2,0c1.1,0,2,0,3.7,0.1l0.1,0l0.1,0
			c0.2-0.1,0.3-0.4,0.3-0.6c0-0.3-0.1-0.4-0.2-0.5l-0.9-0.1c-1.4-0.2-1.6-0.3-1.6-3.4v-4.1c0-0.7,0-0.7,1.2-0.7h8.3
			c1.2,0,1.2,0,1.2,0.7v4.1c0,3.1,0,3.2-1.6,3.4l-0.6,0.1l-0.1,0.1c-0.2,0.2-0.2,0.4-0.2,0.6c0,0.2,0.1,0.4,0.3,0.4l0.1,0l0.1,0
			C175,68,176,68,177.1,68c1.1,0,2.2,0,3.5,0.1l0.1,0l0.1,0c0.2-0.1,0.3-0.5,0.3-0.6c0-0.3-0.1-0.5-0.2-0.5l-0.8-0.1
			C178.6,66.7,178.5,66.5,178.5,63.4L178.5,63.4z M154.6,48L154.6,48l0-0.2c-0.1-0.2-0.4-0.2-0.5-0.2c-0.1,0-0.2,0-0.3,0l-0.1,0
			l0,0.1c-0.4,0.6-0.5,0.7-2.1,0.7h-12c-1.3,0-1.9-0.1-2-0.7l0-0.1l0,0c-0.1-0.1-0.2-0.1-0.4-0.1c-0.1,0-0.3,0-0.4,0.1l-0.1,0.1
			l0,0.1c-0.2,1.2-0.6,3-1.1,4.3l0,0.1l0,0.1c0.2,0.3,0.8,0.5,1.1,0.3l0,0l0-0.1c0.3-0.7,0.6-1.3,1.3-1.9c0.6-0.6,2.1-0.7,3.4-0.7
			h1.6c0.6,0,0.6,0,0.6,0.7v13c0,3.1-0.2,3.3-1.6,3.4l-1,0.1l-0.1,0c-0.2,0.1-0.3,0.3-0.3,0.6c0,0.2,0.1,0.4,0.3,0.5l0.1,0l0.1,0
			c1.8-0.1,2.8-0.1,4-0.1c1.1,0,2.1,0,3.8,0.1l0.1,0l0.1,0c0.2-0.1,0.3-0.4,0.3-0.6c0-0.3-0.1-0.4-0.2-0.5l-1-0.1
			c-1.5-0.1-1.5-0.3-1.5-3.4v-13c0-0.3,0-0.6,0-0.6c0,0,0.4,0,0.6,0h2.1c1.6,0,2.6,0.2,3.2,0.7c0.3,0.2,0.5,0.9,0.6,2l0,0.1l0,0.1
			c0.1,0.1,0.3,0.2,0.5,0.2c0.3,0,0.5-0.1,0.6-0.3l0-0.1l0-0.1C154.1,51.5,154.3,49.1,154.6,48L154.6,48z M134.9,108.3
			c0,9,4.3,15.3,9.9,19.1c5.1,3.4,11.1,4.7,17.3,4.7c4.5,0,9.5-1,11-1.6c0.8-0.3,1.6-0.6,2.4-0.7c1-1.3,2.9-5.9,3.3-9.5
			c-0.3-0.5-1.3-0.6-1.8-0.3c-1.6,4.1-5.6,10-14.6,10c-11.4,0-20.7-8.1-20.7-22.7c0-14.4,9.1-21.2,19.7-21.2
			c10.1,0,13.2,5.4,14.3,10.2c0.5,0.4,1.5,0.3,1.9-0.1c-0.6-4.2-0.9-8.6-1-10.2c-0.6,0.1-1.1-0.1-1.9-0.3c-3.3-0.9-8.6-1.7-12.3-1.7
			c-7.2,0-13.7,1.9-18.8,5.9C138.3,93.9,134.9,100.6,134.9,108.3L134.9,108.3z"/>
	</g>
</g>
</svg>
