<?xml version="1.0" encoding="UTF-8"?><svg id="Layer_1" xmlns="http://www.w3.org/2000/svg" xmlns:xlink="http://www.w3.org/1999/xlink" viewBox="0 0 194.9 194.5"><defs><style>.cls-1{filter:url(#outer-glow-5);stroke:#d97a45;}.cls-1,.cls-2,.cls-3,.cls-4,.cls-5,.cls-6,.cls-7{fill:none;stroke-miterlimit:10;stroke-width:2px;}.cls-2{filter:url(#outer-glow-2);stroke:#7ac943;}.cls-3{filter:url(#outer-glow-6);stroke:#90cbae;}.cls-4{filter:url(#outer-glow-4);stroke:#ff7bac;}.cls-5{filter:url(#outer-glow-3);stroke:#ff931e;}.cls-6{filter:url(#outer-glow-1);stroke:#ebc44c;}.cls-8{fill:#f7f3e6;filter:url(#outer-glow-7);}.cls-9{fill:#003249;}.cls-7{stroke:#f7f3e6;}.cls-10{filter:url(#outer-glow-8);}</style><filter id="outer-glow-1" filterUnits="userSpaceOnUse"><feOffset dx="0" dy="0"/><feGaussianBlur result="blur" stdDeviation="4"/><feFlood flood-color="#eefffa" flood-opacity="1"/><feComposite in2="blur" operator="in"/><feComposite in="SourceGraphic"/></filter><filter id="outer-glow-2" filterUnits="userSpaceOnUse"><feOffset dx="0" dy="0"/><feGaussianBlur result="blur-2" stdDeviation="4"/><feFlood flood-color="#eefffa" flood-opacity="1"/><feComposite in2="blur-2" operator="in"/><feComposite in="SourceGraphic"/></filter><filter id="outer-glow-3" filterUnits="userSpaceOnUse"><feOffset dx="0" dy="0"/><feGaussianBlur result="blur-3" stdDeviation="4"/><feFlood flood-color="#eefffa" flood-opacity="1"/><feComposite in2="blur-3" operator="in"/><feComposite in="SourceGraphic"/></filter><filter id="outer-glow-4" filterUnits="userSpaceOnUse"><feOffset dx="0" dy="0"/><feGaussianBlur result="blur-4" stdDeviation="4"/><feFlood flood-color="#eefffa" flood-opacity="1"/><feComposite in2="blur-4" operator="in"/><feComposite in="SourceGraphic"/></filter><filter id="outer-glow-5" filterUnits="userSpaceOnUse"><feOffset dx="0" dy="0"/><feGaussianBlur result="blur-5" stdDeviation="4"/><feFlood flood-color="#eefffa" flood-opacity="1"/><feComposite in2="blur-5" operator="in"/><feComposite in="SourceGraphic"/></filter><filter id="outer-glow-6" filterUnits="userSpaceOnUse"><feOffset dx="0" dy="0"/><feGaussianBlur result="blur-6" stdDeviation="4"/><feFlood flood-color="#eefffa" flood-opacity="1"/><feComposite in2="blur-6" operator="in"/><feComposite in="SourceGraphic"/></filter><filter id="outer-glow-7" filterUnits="userSpaceOnUse"><feOffset dx="0" dy="0"/><feGaussianBlur result="blur-7" stdDeviation="4"/><feFlood flood-color="#eefffa" flood-opacity="1"/><feComposite in2="blur-7" operator="in"/><feComposite in="SourceGraphic"/></filter><filter id="outer-glow-8" filterUnits="userSpaceOnUse"><feOffset dx="0" dy="0"/><feGaussianBlur result="blur-8" stdDeviation="4"/><feFlood flood-color="#eefffa" flood-opacity="1"/><feComposite in2="blur-8" operator="in"/><feComposite in="SourceGraphic"/></filter></defs><circle class="cls-9" cx="97.65" cy="97.25" r="97.25"/><path class="cls-6" d="M62.3,100.82l-15.66,42.02c-.17,.35-.63,.75-1.04,.75l-14.91,1.78h-.12c-.29,0-.63-.23-.75-.52L13.6,100.19c-.06-.06-.06-.17-.06-.23,0-.35,.23-.69,.63-.75l14.45-1.21c.35,0,.75,.35,.81,.63l8.75,27.98c.12,.46,.35,.63,.58,.63,.17,0,.4-.17,.52-.58l7.83-29.01c.06-.23,.29-.4,.52-.4h.06l14.39,3.17c.17,.06,.23,.12,.23,.29v.12Z"/><path class="cls-2" d="M70.61,170.88c0,.46-.4,.81-.81,.81h-.06l-10.42-.29c-.52,0-.86-.4-.92-.86l-.75-28.27c0-.46,.35-.81,.81-.81l12.03,.17c.46,0,.86,.4,.86,.86l-.75,28.38Zm-4.78-31.95c-3.63,0-6.56-3.11-6.56-6.97s2.94-6.91,6.56-6.91,6.62,3.11,6.62,6.91-2.94,6.97-6.62,6.97Z"/><path class="cls-5" d="M114.95,133.43l-1.55,44.33c0,.52-.46,.98-.98,1.04l-9.44,.46h-.06c-.52,0-.86-.4-.92-.86l-.06-3.11c-1.78,1.73-4.09,2.82-7.25,2.82-8.63,0-14.33-6.39-14.33-16.52,0-9.56,6.85-15.89,14.51-15.89,2.65,0,5.07,.86,7.08,2.07l.35-14.1c.06-.52,.46-.98,.98-.98l10.76-.17h.06c.46,0,.86,.4,.86,.86v.06Zm-13.01,26.31c-.46-1.84-2.02-3.34-4.2-3.34-2.82,0-4.66,2.3-4.66,5.47s2.07,5.18,4.61,5.18c1.78,0,3.74-1.61,4.26-4.55v-2.76Z"/><path class="cls-4" d="M154.67,155.19c-.92,5.24-6.27,12.03-14.62,12.03-10.02,0-17.5-5.81-17.5-16.58s6.1-18.65,14.91-18.65c11,0,14.79,8.58,14.79,17.96,0,1.78-.92,2.19-1.84,2.19,0,.06-.98,.17-16.41,.52,.69,3.68,3.11,4.95,5.35,4.95,2.01,0,3.86-1.04,4.2-2.3,.12-.52,.52-.81,1.27-.81,6.04-.12,8.86-.29,8.98-.29h0c.58,0,.86,.29,.86,.75v.23Zm-16.92-12.43c-1.78,0-3.17,1.09-3.63,3.74,2.42-.12,5.76-.29,5.99-.29,.17,0,.23-.06,.23-.29,0-1.67-.81-3.17-2.59-3.17Z"/><path class="cls-1" d="M164.3,134.86c-8.69,0-17.04-6.04-17.04-17.21s6.16-17.9,16.12-17.9c9.21,0,15.89,6.04,15.89,17.9,0,10.88-6.27,17.21-14.97,17.21Zm-1.15-22.34c-2.88,0-4.38,2.36-4.38,5.41s2.07,4.95,4.55,4.95,4.14-2.13,4.14-5.3c0-2.99-1.96-5.07-4.32-5.07Z"/><path class="cls-3" d="M173.94,73.49c-.29,1.09-1.15,1.5-2.19,1.44l-7.71-.29c-1.27-.06-1.38-.75-1.38-1.78,0-2.19-1.15-4.37-3.22-4.37-2.36,0-3.11,1.38-3.11,2.3,0,2.53,2.65,3.28,4.66,3.86,5.3,1.67,12.66,2.59,12.66,10.02,0,6.85-7.25,9.61-14.05,9.61-10.13,0-16.18-4.43-16.18-10.36,0-1.32,.23-2.25,1.73-2.3l7.02-.12c1.55-.06,1.78,.86,1.78,2.01,0,1.5,1.96,2.65,4.61,2.65,2.42,0,2.99-.98,2.99-1.27,0-2.36-6.04-3.11-7.71-3.68-4.37-1.44-9.38-4.03-9.38-10.94,0-8.29,5.35-13.7,14.1-13.7,8.12,0,15.54,4.37,15.54,14.62,0,.63,0,1.61-.17,2.3Z"/><path class="cls-8" d="M118.77,94.67c0-.76-.02-1.52-.18-2.27-.23-1.11-.64-2.13-1.47-2.94-1.19-1.17-2.69-1.75-4.27-2.13-1.45-.36-2.93-.56-4.42-.72-1.43-.16-2.86-.29-4.28-.3-3.52-.02-7.05-.17-10.57,.14-1.07,.09-2.13,.19-3.19,.36-1.47,.24-2.9,.61-4.22,1.31-1.23,.65-2.18,1.61-2.75,2.89-.67,1.52-.79,3.16-.8,4.78-.01,2.62-.01,5.23,.04,7.85,.06,3.09,.17,6.18,.12,9.28,0,.09,0,.17,0,.26-.02,1.28,.13,2.54,.43,3.78,.45,1.9,1.48,3.36,3.25,4.23,1.75,.86,3.65,1.09,5.56,1.23,1.12,.08,2.24,.19,3.18,.1,1.08,.02,1.97,0,2.87,.08,1.22,.1,2.45-.03,3.68,.08,1.26,.11,2.53-.01,3.81,.07,.93,.07,1.88,.05,2.82-.04,.9-.08,1.8-.06,2.7-.19,1.49-.21,2.79-.8,3.88-1.83,1.08-1.01,1.76-2.27,2.24-3.65,.72-2.06,.98-4.21,1.2-6.36,.13-1.27,.21-2.54,.26-3.82,.06-1.46,.07-2.91,.09-4.37,0-.45,0-.9,0-1.35,0-1.58,0-3.17,.04-4.75,.01-.58-.04-1.15-.03-1.72Zm-9.7,10.21c-3.87,2.86-7.74,5.74-11.6,8.61-.06,.04-.12,.08-.2,.13-.12-.17-.07-.34-.07-.5,0-4.8,0-9.61,0-14.41,0-.55-.11-1.08-.17-1.69,1.18,.73,2.29,1.41,3.41,2.11,2.85,1.77,5.7,3.54,8.55,5.3,.21,.13,.42,.21,.08,.46Z"/><g class="cls-10"><path class="cls-7" d="M79.55,69.75c-.07,.62-.56,1.11-1.18,1.11l-13.79-.07c-.62,0-1.11-.48-1.11-1.11l.28-40.39c0-.55-.42-.83-.9-.55l-.69,.42c-.55,.35-1.18,.14-1.52-.35l-3.05-5.4c-.28-.48-.21-1.25,.21-1.66l5.26-5.19c.49-.42,1.39-.97,2.15-.97l15.17,.07c.55,.07,1.04,.55,1.04,1.11l-1.87,53Z"/><path class="cls-7" d="M108.78,71.97c-14.89,0-21.13-12.54-21.13-25.91,0-15.31,8.17-31.66,20.99-31.66,11.99,0,20.09,9.08,20.09,25.91s-6.79,31.66-19.95,31.66Zm.35-40.67c-3.19,0-5.06,7.76-5.06,14.2s1.52,9.63,4.02,9.63,4.71-7.21,4.71-12.75-.55-11.08-3.67-11.08Z"/></g></svg>