<?xml version="1.0" encoding="UTF-8"?><svg id="Layer_1" xmlns="http://www.w3.org/2000/svg" xmlns:xlink="http://www.w3.org/1999/xlink" viewBox="0 0 198 190.2"><defs><style>.cls-1{filter:url(#outer-glow-3);stroke:#7ac943;}.cls-1,.cls-2,.cls-3,.cls-4,.cls-5,.cls-6,.cls-7,.cls-8,.cls-9,.cls-10{stroke-miterlimit:10;stroke-width:2px;}.cls-1,.cls-2,.cls-3,.cls-4,.cls-5,.cls-6,.cls-9,.cls-10{fill:none;}.cls-2{filter:url(#outer-glow-6);}.cls-2,.cls-8{stroke:#d97a45;}.cls-3{filter:url(#outer-glow-7);}.cls-3,.cls-7{stroke:#90cbae;}.cls-4{filter:url(#outer-glow-2);}.cls-4,.cls-10{stroke:#ebc44c;}.cls-5{filter:url(#outer-glow-5);stroke:#ff7bac;}.cls-6{filter:url(#outer-glow-4);stroke:#ff931e;}.cls-11,.cls-8{fill:#f7f3e6;}.cls-12{fill:#003249;}.cls-13{fill:#fff;}.cls-14{fill:#ac4a42;}.cls-15{fill:#58a0a2;}.cls-16{fill:#78788d;}.cls-7{fill:#80ab69;}.cls-9{stroke:#f7f3e6;}.cls-17{opacity:.61;}.cls-18{filter:url(#outer-glow-1);}</style><filter id="outer-glow-1" filterUnits="userSpaceOnUse"><feOffset dx="0" dy="0"/><feGaussianBlur result="blur" stdDeviation="4"/><feFlood flood-color="#eefffa" flood-opacity="1"/><feComposite in2="blur" operator="in"/><feComposite in="SourceGraphic"/></filter><filter id="outer-glow-2" filterUnits="userSpaceOnUse"><feOffset dx="0" dy="0"/><feGaussianBlur result="blur-2" stdDeviation="4"/><feFlood flood-color="#eefffa" flood-opacity="1"/><feComposite in2="blur-2" operator="in"/><feComposite in="SourceGraphic"/></filter><filter id="outer-glow-3" filterUnits="userSpaceOnUse"><feOffset dx="0" dy="0"/><feGaussianBlur result="blur-3" stdDeviation="4"/><feFlood flood-color="#eefffa" flood-opacity="1"/><feComposite in2="blur-3" operator="in"/><feComposite in="SourceGraphic"/></filter><filter id="outer-glow-4" filterUnits="userSpaceOnUse"><feOffset dx="0" dy="0"/><feGaussianBlur result="blur-4" stdDeviation="4"/><feFlood flood-color="#eefffa" flood-opacity="1"/><feComposite in2="blur-4" operator="in"/><feComposite in="SourceGraphic"/></filter><filter id="outer-glow-5" filterUnits="userSpaceOnUse"><feOffset dx="0" dy="0"/><feGaussianBlur result="blur-5" stdDeviation="4"/><feFlood flood-color="#eefffa" flood-opacity="1"/><feComposite in2="blur-5" operator="in"/><feComposite in="SourceGraphic"/></filter><filter id="outer-glow-6" filterUnits="userSpaceOnUse"><feOffset dx="0" dy="0"/><feGaussianBlur result="blur-6" stdDeviation="4"/><feFlood flood-color="#eefffa" flood-opacity="1"/><feComposite in2="blur-6" operator="in"/><feComposite in="SourceGraphic"/></filter><filter id="outer-glow-7" filterUnits="userSpaceOnUse"><feOffset dx="0" dy="0"/><feGaussianBlur result="blur-7" stdDeviation="4"/><feFlood flood-color="#eefffa" flood-opacity="1"/><feComposite in2="blur-7" operator="in"/><feComposite in="SourceGraphic"/></filter></defs><circle class="cls-12" cx="99.1" cy="95.1" r="95.1"/><g><path class="cls-15" d="M71.98,118.39c-3.89-16.62-7.78-33.24-11.67-49.86,27.22-3.24,54.45-6.49,81.67-9.73-1.56,19.46-3.11,38.91-4.67,58.37-21.78,.41-43.56,.81-65.34,1.22Z"/><path class="cls-16" d="M81.25,108.31c-3-12.3-6-24.61-9-36.91,21.01-2.4,42.01-4.8,63.02-7.2-1.2,14.41-2.4,28.81-3.6,43.22-16.81,.3-33.61,.6-50.42,.9Z"/><path class="cls-11" d="M117.99,79.27c0-.6-.01-1.19-.14-1.77-.18-.87-.5-1.66-1.15-2.29-.93-.91-2.1-1.36-3.33-1.67-1.13-.28-2.29-.43-3.45-.57-1.11-.13-2.23-.23-3.34-.23-2.75-.02-5.5-.13-8.25,.11-.83,.07-1.66,.15-2.49,.28-1.15,.18-2.26,.47-3.29,1.02-.96,.51-1.7,1.26-2.14,2.26-.53,1.19-.62,2.46-.62,3.73,0,2.04-.01,4.08,.03,6.12,.05,2.41,.13,4.83,.09,7.24,0,.07,0,.14,0,.2-.01,1,.1,1.98,.34,2.95,.35,1.48,1.16,2.62,2.54,3.3,1.36,.67,2.85,.85,4.34,.96,.87,.06,1.75,.15,2.48,.08,.84,.01,1.54,0,2.24,.06,.95,.07,1.91-.02,2.87,.07,.99,.09,1.98-.01,2.97,.06,.73,.05,1.46,.04,2.2-.03,.7-.07,1.41-.05,2.11-.15,1.16-.16,2.18-.62,3.03-1.42,.84-.79,1.37-1.77,1.74-2.85,.56-1.61,.77-3.28,.94-4.96,.1-.99,.16-1.99,.2-2.98,.05-1.14,.05-2.27,.07-3.41,0-.35,0-.7,0-1.05,0-1.24,0-2.47,.03-3.71,.01-.45-.03-.9-.03-1.34Zm-7.57,7.97c-3.02,2.23-6.04,4.48-9.06,6.72-.04,.03-.09,.06-.15,.1-.09-.13-.05-.27-.05-.39,0-3.75,0-7.5,0-11.25,0-.43-.09-.84-.14-1.32,.92,.57,1.79,1.1,2.66,1.64,2.23,1.38,4.45,2.76,6.68,4.14,.17,.1,.33,.16,.06,.36Z"/><g class="cls-17"><path class="cls-13" d="M123.79,71.27s.09,.07,.14,.1l-.3-.23c.42,.32,.79,.69,1.11,1.11l-.23-.3c.33,.43,.61,.9,.82,1.4l-.15-.36c.13,.31,.23,.63,.31,.96,.18,.76,1.09,1.29,1.85,1.05,.79-.26,1.24-1.03,1.05-1.85s-.56-1.67-1.04-2.38c-.56-.83-1.23-1.5-2.03-2.09-.3-.22-.82-.24-1.16-.15s-.73,.36-.9,.69c-.18,.35-.28,.77-.15,1.16l.15,.36c.13,.23,.31,.4,.54,.54h0Z"/></g><g class="cls-17"><path class="cls-13" d="M125.84,76.95v1.64c0,.21,.04,.4,.13,.58,.06,.19,.16,.35,.31,.48,.14,.15,.3,.25,.48,.31,.18,.09,.37,.14,.58,.13l.4-.05c.25-.07,.47-.2,.66-.39,.27-.29,.44-.65,.44-1.06v-1.64c0-.21-.04-.4-.13-.58-.06-.19-.16-.35-.31-.48-.14-.15-.3-.25-.48-.31-.18-.09-.37-.14-.58-.13l-.4,.05c-.25,.07-.47,.2-.66,.39-.27,.29-.44,.65-.44,1.06h0Z"/></g><circle class="cls-7" cx="76.82" cy="112.35" r="2.82"/><circle class="cls-9" cx="89.44" cy="112.56" r="1.42"/><circle class="cls-10" cx="98.89" cy="112.77" r="1.42"/><circle class="cls-8" cx="127.07" cy="112.77" r="1.42"/><circle class="cls-14" cx="120.66" cy="112.9" r="1.42"/></g><g class="cls-18"><path class="cls-9" d="M89.7,36.82v.31c3.8,.87,5.34,3.65,5.34,7.04,0,9.61-7.19,12.43-15.36,12.43-6.27,0-12.38-2.77-13.15-9.81-.05-.72,.57-1.08,.93-1.13l7.45-1.7c.26-.05,1.23,0,1.39,.82,.31,1.75,1.54,2.36,3.65,2.36s4.01-1.03,4.01-3.24c0-2.42-2.36-3.19-5.19-2.98l-3.13,.26c-.92,.05-1.54-.26-1.49-1.03l.41-6.58c.05-.82,.57-1.28,1.18-1.28h2.72c2.72,0,5.6-1.75,5.6-5.09,0-2.47-1.44-3.19-3.85-3.19-1.85,0-3.13,1.9-3.39,3.85-.15,.82-.67,.93-1.08,.87l-8.07-1.13c-.51-.05-.93-.57-.82-1.13,.87-7.5,5.96-12.43,13.36-12.43,11.97,0,16.29,6.47,16.29,12.64,0,4.98-2.88,9.51-6.78,10.12Z"/><path class="cls-9" d="M114.77,56.75c-11.05,0-15.67-9.3-15.67-19.22,0-11.35,6.06-23.48,15.57-23.48,8.89,0,14.9,6.73,14.9,19.22s-5.03,23.48-14.8,23.48Zm.26-30.16c-2.36,0-3.75,5.75-3.75,10.53s1.13,7.14,2.98,7.14,3.49-5.34,3.49-9.45-.41-8.22-2.72-8.22Z"/></g><path class="cls-4" d="M56.02,83.49l-13.54,36.33c-.15,.3-.55,.65-.9,.65l-12.89,1.54h-.1c-.25,0-.55-.2-.65-.45l-14.03-38.62s-.05-.15-.05-.2c0-.3,.2-.6,.55-.65l12.49-1.05c.3,0,.65,.3,.7,.55l7.57,24.19c.1,.4,.3,.55,.5,.55,.15,0,.35-.15,.45-.5l6.77-25.08c.05-.2,.25-.35,.45-.35h.05l12.44,2.74c.15,.05,.2,.1,.2,.25v.1Z"/><path class="cls-1" d="M59.95,159.66c0,.41-.36,.72-.72,.72h-.05l-9.25-.26c-.46,0-.77-.36-.82-.77l-.66-25.1c0-.41,.31-.72,.72-.72l10.68,.15c.41,0,.77,.36,.77,.77l-.66,25.2Zm-4.24-28.37c-3.22,0-5.83-2.76-5.83-6.18s2.61-6.13,5.83-6.13,5.88,2.76,5.88,6.13-2.61,6.18-5.88,6.18Z"/><path class="cls-6" d="M101.15,131.13l-1.44,41.02c0,.48-.43,.91-.91,.96l-8.74,.43h-.05c-.48,0-.8-.37-.85-.8l-.05-2.88c-1.65,1.6-3.78,2.61-6.71,2.61-7.99,0-13.27-5.91-13.27-15.29,0-8.84,6.34-14.7,13.43-14.7,2.45,0,4.69,.8,6.55,1.92l.32-13.05c.05-.48,.43-.91,.91-.91l9.96-.16h.05c.43,0,.8,.37,.8,.8v.05Zm-12.04,24.35c-.43-1.7-1.87-3.09-3.89-3.09-2.61,0-4.32,2.13-4.32,5.06s1.92,4.8,4.26,4.8c1.65,0,3.46-1.49,3.94-4.21v-2.56Z"/><path class="cls-5" d="M138.56,159.2c-.85,4.85-5.81,11.13-13.53,11.13-9.27,0-16.2-5.38-16.2-15.34s5.65-17.26,13.8-17.26c10.18,0,13.69,7.94,13.69,16.62,0,1.65-.85,2.02-1.7,2.02,0,.05-.91,.16-15.18,.48,.64,3.41,2.88,4.58,4.95,4.58,1.86,0,3.57-.96,3.89-2.13,.11-.48,.48-.75,1.17-.75,5.59-.11,8.2-.27,8.31-.27h0c.53,0,.8,.27,.8,.69v.21Zm-15.66-11.51c-1.65,0-2.93,1.01-3.36,3.46,2.24-.11,5.33-.27,5.54-.27,.16,0,.21-.05,.21-.27,0-1.55-.75-2.93-2.4-2.93Z"/><path class="cls-2" d="M156.52,149.54c-8.04,0-15.77-5.59-15.77-15.93s5.7-16.57,14.92-16.57c8.52,0,14.7,5.59,14.7,16.57,0,10.07-5.81,15.93-13.85,15.93Zm-1.06-20.67c-2.66,0-4.05,2.18-4.05,5.01s1.92,4.58,4.21,4.58,3.84-1.97,3.84-4.9c0-2.77-1.81-4.69-4-4.69Z"/><path class="cls-3" d="M183.99,94.27c-.27,1.01-1.07,1.38-2.02,1.33l-7.14-.27c-1.17-.05-1.28-.69-1.28-1.65,0-2.02-1.07-4.05-2.98-4.05-2.18,0-2.88,1.28-2.88,2.13,0,2.34,2.45,3.04,4.32,3.57,4.9,1.54,11.72,2.4,11.72,9.27,0,6.34-6.71,8.9-13,8.9-9.38,0-14.97-4.1-14.97-9.59,0-1.23,.21-2.08,1.6-2.13l6.5-.11c1.44-.05,1.65,.8,1.65,1.86,0,1.38,1.81,2.45,4.26,2.45,2.24,0,2.77-.91,2.77-1.17,0-2.18-5.59-2.88-7.14-3.41-4.05-1.33-8.68-3.73-8.68-10.12,0-7.67,4.95-12.68,13.05-12.68,7.51,0,14.38,4.05,14.38,13.53,0,.59,0,1.49-.16,2.13Z"/></svg>