<?xml version="1.0" encoding="UTF-8"?><svg id="Layer_1" xmlns="http://www.w3.org/2000/svg" xmlns:xlink="http://www.w3.org/1999/xlink" viewBox="0 0 194.01 193.98"><defs><style>.cls-1{fill:#ebc44c;filter:url(#drop-shadow-3);}.cls-1,.cls-2,.cls-3,.cls-4,.cls-5{stroke:#000;}.cls-1,.cls-2,.cls-3,.cls-4,.cls-5,.cls-6,.cls-7,.cls-8,.cls-9{stroke-miterlimit:10;}.cls-2{fill:#84b56c;filter:url(#drop-shadow-5);}.cls-3{filter:url(#drop-shadow-1);}.cls-3,.cls-7{fill:#d97a45;}.cls-4{filter:url(#drop-shadow-2);}.cls-4,.cls-5{fill:#0b3249;}.cls-5{filter:url(#drop-shadow-4);}.cls-10{fill:#90ccaf;}.cls-6{stroke-width:.5px;}.cls-6,.cls-8,.cls-9{fill:#0f1e70;opacity:.46;stroke:#ff24d2;}.cls-7{stroke:#fff;}.cls-9{stroke-width:.75px;}</style><filter id="drop-shadow-1" filterUnits="userSpaceOnUse"><feOffset dx="5" dy="4"/><feGaussianBlur result="blur" stdDeviation="2"/><feFlood flood-color="#000" flood-opacity=".63"/><feComposite in2="blur" operator="in"/><feComposite in="SourceGraphic"/></filter><filter id="drop-shadow-2" filterUnits="userSpaceOnUse"><feOffset dx="5" dy="4"/><feGaussianBlur result="blur-2" stdDeviation="2"/><feFlood flood-color="#000" flood-opacity=".63"/><feComposite in2="blur-2" operator="in"/><feComposite in="SourceGraphic"/></filter><filter id="drop-shadow-3" filterUnits="userSpaceOnUse"><feOffset dx="5" dy="4"/><feGaussianBlur result="blur-3" stdDeviation="2"/><feFlood flood-color="#000" flood-opacity=".63"/><feComposite in2="blur-3" operator="in"/><feComposite in="SourceGraphic"/></filter><filter id="drop-shadow-4" filterUnits="userSpaceOnUse"><feOffset dx="5" dy="4"/><feGaussianBlur result="blur-4" stdDeviation="2"/><feFlood flood-color="#000" flood-opacity=".63"/><feComposite in2="blur-4" operator="in"/><feComposite in="SourceGraphic"/></filter><filter id="drop-shadow-5" filterUnits="userSpaceOnUse"><feOffset dx="5" dy="4"/><feGaussianBlur result="blur-5" stdDeviation="2"/><feFlood flood-color="#000" flood-opacity=".63"/><feComposite in2="blur-5" operator="in"/><feComposite in="SourceGraphic"/></filter></defs><path class="cls-10" d="M194.01,96.99c0,53.57-43.42,96.99-96.99,96.99-38.8,0-65.44-25.22-69.02-28.85C24.26,161.35-.94,135.03,.03,96.99,1.17,51.65,39.23,0,97.02,0c53.57,0,96.99,43.42,96.99,96.99Z"/><path class="cls-7" d="M48.2,80.66c-3.68,13.8-7.36,27.6-11.04,41.39-.14,.34-.57,.64-.94,.64l-6.03,.3h-.03c-.37,0-.74-.27-.81-.61l-2.63-13.18c-.03-.17-.13-.27-.2-.27s-.13,.07-.2,.27l-4.08,13.32c-.1,.34-.51,.61-.84,.61h-.03l-7.25-.3c-.37-.03-.74-.34-.81-.71l-5.73-24.82v-.14c0-.3,.24-.54,.54-.54,1.92-1.39,3.83-2.77,5.75-4.16,.83-.73,1.9-.99,2.79-.65,.52,.2,.85,.55,1.03,.79,.3,6.3,.61,12.59,.91,18.89,.03,.2,.1,.3,.17,.3s.13-.1,.2-.27c.69-8.11,1.39-16.22,2.08-24.33,.83-.56,1.54-.98,2.03-1.26,2.78-1.6,4.99-2.83,7.21-2.25,.4,.1,.71,.24,.89,.33,1.08,8.46,2.16,16.93,3.23,25.39,.03,.17,.1,.27,.2,.27,.07,0,.17-.07,.24-.24,.83-9.33,1.65-18.66,2.48-27.98,.7-.26,1.49-.51,2.35-.72,1.45-.35,2.77-.52,3.9-.58,1.07-.01,2.28,.06,3.57,.29,.37,.06,.72,.14,1.06,.21Z"/><path class="cls-7" d="M34.01,151.5c-6.3,0-12.35-4.38-12.35-12.47s4.46-12.97,11.68-12.97c6.67,0,11.51,4.38,11.51,12.97,0,7.88-4.55,12.47-10.84,12.47Zm-.83-16.18c-2.09,0-3.17,1.71-3.17,3.92s1.5,3.59,3.29,3.59,3-1.54,3-3.84c0-2.17-1.42-3.67-3.13-3.67Z"/><path class="cls-7" d="M71.42,139.85c0,1.1-.37,7.95-.42,9.21,0,.26-.21,.42-.52,.47-5.6,.16-7.95,3.71-7.9,10.15,0,0,.01,1.03,.03,2.73,0,0,.03,2.61,.03,6.74,0,3.5-.03,4.88-.76,5.18-.36,.15-.77-.02-1.05-.17-2.64-1.32-5.28-2.64-7.92-3.97-1.21-.55-2.41-1.1-3.62-1.64-.17-.09-.39-.24-.59-.49-.47-.56-.48-1.21-.48-1.42,.28-8.12,.56-16.24,.84-24.36,0-.22,.05-.85,.51-1.38,.53-.62,1.42-.88,2.3-.68h.05l9,.42c.68,0,.84,.16,.84,.73v1.26c0,.11,0,.21,.05,.21,0,0,.05-.05,.1-.16,1.83-2.56,5.29-3.4,7.64-3.4,.57,0,1.05,.05,1.46,.11l.42,.47Z"/><path class="cls-7" d="M107.02,161.04c-.27,1.02-1.07,1.39-2.03,1.34-2.21-.4-4.42-.8-6.63-1.2-.62-.13-1.4-.41-1.8-1.09-.32-.53-.14-.88-.33-1.51-.29-.96-1.31-2.12-2.67-2.18-1.42-.07-2.89,1.07-2.89,2.14,0,2.35,2.46,3.04,4.33,3.58,3.82,1.2,8.79,1.99,10.83,5.5,.85,1.47,.92,2.91,.93,3.8,.06,5.74-5.82,13.43-13.75,13.56-10.37,.17-14.2-12.79-14.31-14.26-.09-1.23,.47-1.75,.47-1.75,.24-.23,.6-.37,1.13-.39l6.52-.11c1.44-.05,1.66,.8,1.66,1.87,0,1.39,1.82,2.46,4.27,2.46,.17,0,2.5-.13,2.78-1.18,.42-1.58-4.39-4.23-7.25-5.51-5-2.23-6.73-1.43-9.48-3.79-.71-.61-2.56-2.34-3.48-5.16-1.25-3.82-.45-8.55,2.36-11.58,4.48-4.82,11.99-3.1,15.31-2.33,2.22,.51,7.98,1.83,11.43,6.95,0,0,2.76,2.52,2.76,8.7,0,.59,0,1.5-.16,2.14Z"/><path class="cls-7" d="M135.3,175.45c-.06,.17-.18,.5-.48,.8-.37,.38-.79,.5-.97,.54-.93,.3-4.35,1.36-6.15,1.34-.38,0-1.21-.02-1.42-.47-.08-.17-.05-.36,0-.5,.24-5.34,.48-10.67,.72-16.01,0-.51-.24-.85-.55-.85l-4.45,.45c-.27,.06-.55,.45-.55,.96-.25,5.27-.49,10.54-.74,15.81-.01,.08-.08,.49-.44,.77-.34,.26-.7,.25-.8,.25-1.97-.27-3.95-.53-5.92-.8-.13-.02-.43-.1-.7-.36-.17-.17-.26-.35-.31-.47,.38-15.44,.76-30.88,1.14-46.31,0-.45,.27-.91,.55-.91l8.18-.17c.27,0,.51,.4,.48,.85l-.86,17.94c-.03,.51,.21,.91,.48,.85l4.04-.34c.27,0,.55-.45,.55-.91l.14-16.75c0-.45,.24-.85,.55-.85l7.39,.17c.31,0,.55,.45,.51,.91-.13,14.69-.26,29.37-.38,44.06Z"/><path class="cls-7" d="M155.57,159.04c-.07,.05-.21,.16-.4,.3-.67,.49-3.33,2.38-7.93,4.08-.21,.08-.59,.22-1.07,.38-.47-10.02-.94-20.03-1.41-30.05,0-.35,.26-.61,.6-.61l8.96,.13c.34,0,.64,.3,.64,.65,.2,8.37,.41,16.74,.61,25.11Zm-4.73-27.79c-2.7,0-4.89-2.34-4.89-5.23s2.19-5.19,4.89-5.19,4.93,2.34,4.93,5.19-2.19,5.23-4.93,5.23Z"/><path class="cls-7" d="M172.93,115.47c-.3,.14-.58,.53-.57,.92,.23,6.84,.46,13.68,.69,20.52-.06,.92-.29,2.64-1.32,4.48-1.07,1.92-2.48,3.03-3.25,3.56-.28,.23-1.93,1.57-3.31,1.84-.67,.13-1.05-.04-1.14-.07-.39-.18-.61-.48-.72-.66-1.03-16.06-2.05-32.12-3.08-48.17-.04-.35,.19-.81,.53-.99,1.82-.92,4.97-1.68,7.01-1.91,9.07-1.04,14.36,2.62,15.02,8.31,.62,5.38-2.1,9.28-9.85,12.17Zm-1.45-12.61c-.42,.05-.76,.55-.7,1.01l.42,3.97c.04,.39,.36,.67,.75,.63l.14-.02c1.65-.48,3.7-1.85,3.49-3.68-.17-1.51-1.96-2.16-4.1-1.91Z"/><g><path class="cls-7" d="M83.88,55.4v.47c5.75,1.32,8.08,5.51,8.08,10.64,0,14.52-10.87,18.79-23.22,18.79-9.47,0-18.72-4.19-19.88-14.83-.08-1.09,.85-1.63,1.4-1.71l11.26-2.56c.39-.08,1.86,0,2.1,1.24,.47,2.64,2.33,3.57,5.51,3.57s6.06-1.55,6.06-4.89c0-3.65-3.57-4.82-7.84-4.5l-4.74,.39c-1.4,.08-2.33-.39-2.25-1.55l.62-9.94c.08-1.24,.85-1.94,1.79-1.94h4.12c4.12,0,8.47-2.64,8.47-7.69,0-3.73-2.17-4.82-5.82-4.82-2.8,0-4.74,2.87-5.13,5.82-.23,1.24-1.01,1.4-1.63,1.32l-12.19-1.71c-.78-.08-1.4-.85-1.24-1.71,1.32-11.34,9.01-18.79,20.19-18.79,18.1,0,24.62,9.79,24.62,19.11,0,7.53-4.35,14.37-10.25,15.3Z"/><path class="cls-7" d="M121.78,85.54c-16.7,0-23.69-14.06-23.69-29.05,0-17.16,9.16-35.49,23.53-35.49,13.44,0,22.52,10.17,22.52,29.05s-7.61,35.49-22.37,35.49Zm.39-45.59c-3.57,0-5.67,8.7-5.67,15.92s1.71,10.8,4.5,10.8,5.28-8.08,5.28-14.29-.62-12.43-4.12-12.43Z"/><path class="cls-7" d="M69.11,99.09c-.08,.32-.34,.44-.64,.42l-2.27-.08c-.37-.02-.41-.22-.41-.53,0-.65-.34-1.29-.95-1.29-.7,0-.92,.41-.92,.68,0,.75,.78,.97,1.37,1.14,1.56,.49,3.73,.76,3.73,2.95,0,2.02-2.14,2.83-4.14,2.83-2.98,0-4.77-1.31-4.77-3.05,0-.39,.07-.66,.51-.68l2.07-.03c.46-.02,.53,.25,.53,.59,0,.44,.58,.78,1.36,.78,.71,0,.88-.29,.88-.37,0-.69-1.78-.92-2.27-1.09-1.29-.42-2.76-1.19-2.76-3.22,0-2.44,1.58-4.04,4.15-4.04,2.39,0,4.58,1.29,4.58,4.31,0,.19,0,.47-.05,.68Z"/><path class="cls-7" d="M75.08,104.81c-2.56,0-5.02-1.78-5.02-5.07s1.81-5.27,4.75-5.27c2.71,0,4.68,1.78,4.68,5.27,0,3.2-1.85,5.07-4.41,5.07Zm-.34-6.58c-.85,0-1.29,.69-1.29,1.59s.61,1.46,1.34,1.46,1.22-.63,1.22-1.56c0-.88-.58-1.49-1.27-1.49Z"/><path class="cls-7" d="M90.47,104.59c-.02,.1-.1,.17-.22,.17h-.02l-3.41-.24c-.08,0-.14-.07-.14-.14v-.02c.08-.58,.1-1.36,.1-2.7,0-3.07-.12-4.19-1.24-4.19-.86,0-1.25,.56-1.24,1.97l.02,4.8c0,.14-.1,.25-.24,.25l-3.17-.08c-.14,0-.25-.12-.25-.25l-.24-9.46v-.02c0-.14,.1-.24,.24-.24l3.37,.05c.14,.02,.24,.12,.25,.27v.53c.58-.29,1.29-.48,2.17-.48,2.51,0,4.12,1.15,4.12,6.04,0,2.07-.05,3.26-.12,3.73Z"/><path class="cls-7" d="M101.05,105.37c-.14,2.8-1.87,4.05-4.02,4.05-1.1,0-2.09-.42-2.46-.76-.08-.07-.1-.15-.1-.24v-.02l.05-2.87c0-.1,.05-.17,.14-.17,.02,0,.05,.02,.08,.05,.17,.17,.76,.73,1.54,.73,1.07,0,1.44-.56,1.56-2.02l.03-.32-.02-.29c-.51,.49-1.29,.81-2.2,.81-2.54,0-4.22-1.88-4.22-4.87,0-2.82,2.02-4.68,4.27-4.68,.75,0,1.44,.24,2.02,.56l-.02-.49c0-.17,.12-.29,.29-.29l3.22,.12c.17,.02,.29,.14,.29,.31l-.46,10.38Zm-3.26-6.36c0-.49-.56-.86-1.14-.86-.76,0-1.27,.61-1.27,1.49s.58,1.41,1.25,1.41c.49,0,1.17-.42,1.17-1.26l-.02-.78Z"/><path class="cls-7" d="M111.39,99.09c-.08,.32-.34,.44-.64,.42l-2.27-.08c-.37-.02-.41-.22-.41-.53,0-.65-.34-1.29-.95-1.29-.7,0-.92,.41-.92,.68,0,.75,.78,.97,1.37,1.14,1.56,.49,3.73,.76,3.73,2.95,0,2.02-2.14,2.83-4.14,2.83-2.98,0-4.77-1.31-4.77-3.05,0-.39,.07-.66,.51-.68l2.07-.03c.46-.02,.53,.25,.53,.59,0,.44,.58,.78,1.36,.78,.71,0,.88-.29,.88-.37,0-.69-1.78-.92-2.27-1.09-1.29-.42-2.76-1.19-2.76-3.22,0-2.44,1.58-4.04,4.15-4.04,2.39,0,4.58,1.29,4.58,4.31,0,.19,0,.47-.05,.68Z"/><path class="cls-7" d="M122.2,104.81c-2.56,0-5.02-1.78-5.02-5.07s1.81-5.27,4.75-5.27c2.71,0,4.68,1.78,4.68,5.27,0,3.2-1.85,5.07-4.41,5.07Zm-.34-6.58c-.85,0-1.29,.69-1.29,1.59s.61,1.46,1.34,1.46,1.22-.63,1.22-1.56c0-.88-.58-1.49-1.27-1.49Z"/><path class="cls-7" d="M134.11,94.53v.02h.02c0,.07-.1,.15-.15,.15t-.03-.02c-.31-.31-.61-.46-.9-.46-.46,0-.81,.46-.81,1.46v1.07l1.34-.08c.08,0,.17,.07,.17,.15v.02l-.2,2.75c-.02,.08-.08,.17-.17,.17l-1.12-.05,.03,4.61c0,.15-.12,.29-.27,.29h-.02l-3.27,.15h-.02c-.17,0-.27-.15-.25-.31l.02-4.87-.73-.03c-.08,0-.17-.07-.17-.15v-.02l.12-2.24c0-.09,.07-.17,.17-.17l.63-.02,.02-2.15c.03-2.2,1.48-3.37,3.12-3.37,.75,0,2.14,.41,2.81,1.15,.07,.08,.12,.1,.1,.2l-.42,1.75Z"/></g><path class="cls-8" d="M42.73,58.13c6.25-.46,10.22-2.95,10.11-4.92-.11-1.8-3.7-3.79-8.46-4.57,2.7-2.67,3.64-5.53,2.84-6.46-.81-.94-3.88-.45-7.02,1.88-1.5-4.19-3.84-6.76-5.07-6.48-1.23,.28-1.96,3.53-1.19,7.81-2.37-1.92-5-1.82-5.7-.85-.68,.94-.03,3.35,2.26,5.07-4.92,.13-8.16,2.06-8.12,3.61,.03,1.49,3.12,3.4,7.49,3.96-1.68,3.57-1.4,6.64-.22,7.28,1.05,.57,3.17-.6,4.97-2.71,2.83,4.27,6.95,5.55,8.53,4.45,1.44-1,1.56-4.5-.4-8.06Z"/><path class="cls-8" d="M160.7,67.96c6.25-.46,10.22-2.95,10.11-4.92-.11-1.8-3.7-3.79-8.46-4.57,2.7-2.67,3.64-5.53,2.84-6.46-.81-.94-3.88-.45-7.02,1.88-1.5-4.19-3.84-6.76-5.07-6.48-1.23,.28-1.96,3.53-1.19,7.81-2.37-1.92-5-1.82-5.7-.85-.68,.94-.03,3.35,2.26,5.07-4.92,.13-8.16,2.06-8.12,3.61,.03,1.49,3.12,3.4,7.49,3.96-1.68,3.57-1.4,6.64-.22,7.28,1.05,.57,3.17-.6,4.97-2.71,2.83,4.27,6.95,5.55,8.53,4.45,1.44-1,1.56-4.5-.4-8.06Z"/><path class="cls-8" d="M107.36,12.49c1.46-4.15,.96-7.41-.33-7.89-1.19-.44-3.48,1.32-5.31,4.17-.96-2.49-2.54-3.9-3.37-3.64-.83,.26-1.38,2.37-.76,5.05-3.12-.21-5.43,.58-5.6,1.45-.16,.87,1.72,2.25,4.69,2.96-1.9,.99-2.57,2.71-2.15,3.44,.41,.7,2.15,.96,3.9-.04-1.3,3.2-.96,5.83,.05,6.25,.97,.4,3.06-1.05,4.65-3.72,1.83,2.08,3.88,2.77,4.63,2.18,.66-.52,.51-2.21-.35-3.96,3.55-.62,5.52-2.92,5.26-4.25-.24-1.21-2.46-2.26-5.3-2Z"/><path class="cls-9" d="M25.02,72.35c.77-2.19,.51-3.91-.18-4.16-.63-.23-1.83,.7-2.8,2.2-.51-1.31-1.34-2.06-1.78-1.92-.44,.14-.73,1.25-.4,2.66-1.65-.11-2.87,.3-2.95,.76-.09,.46,.91,1.19,2.48,1.56-1,.52-1.36,1.43-1.13,1.81,.22,.37,1.13,.51,2.06-.02-.68,1.69-.51,3.08,.02,3.3,.51,.21,1.62-.56,2.45-1.96,.97,1.1,2.05,1.46,2.44,1.15,.35-.27,.27-1.17-.19-2.09,1.87-.33,2.92-1.54,2.77-2.24-.13-.64-1.3-1.19-2.8-1.06Z"/><path class="cls-6" d="M94.51,68.12c1.63-.58,2.51-1.54,2.33-2.05-.16-.47-1.26-.74-2.59-.6,.52-.91,.57-1.74,.28-1.93-.29-.19-1.07,.17-1.73,1.02-.71-1.01-1.52-1.52-1.83-1.36-.31,.17-.26,1.08,.26,2.17-.77-.34-1.47-.12-1.58,.19-.11,.3,.24,.89,.98,1.18-1.3,.4-2.02,1.15-1.9,1.56,.12,.4,1.08,.68,2.29,.51-.19,1.08,.11,1.87,.48,1.96,.32,.08,.8-.39,1.13-1.09,1.07,.93,2.26,.97,2.6,.56,.31-.37,.08-1.31-.7-2.12Z"/><path class="cls-9" d="M169.88,78.82c1.36-3.88,.9-6.92-.31-7.36-1.11-.41-3.24,1.23-4.96,3.89-.9-2.32-2.37-3.64-3.14-3.4-.78,.24-1.29,2.22-.71,4.71-2.91-.19-5.07,.54-5.22,1.35-.15,.81,1.61,2.1,4.38,2.76-1.77,.93-2.4,2.53-2,3.21,.38,.66,2,.9,3.64-.04-1.21,2.99-.9,5.44,.04,5.83,.9,.37,2.86-.98,4.34-3.47,1.71,1.94,3.62,2.58,4.32,2.04,.62-.48,.47-2.06-.33-3.7,3.31-.58,5.15-2.72,4.91-3.96-.23-1.12-2.3-2.11-4.95-1.87Z"/><path class="cls-6" d="M55.39,106.24c2.42-.86,3.71-2.28,3.45-3.04-.24-.7-1.87-1.09-3.83-.88,.78-1.35,.84-2.58,.42-2.86-.42-.28-1.58,.24-2.56,1.5-1.05-1.49-2.25-2.25-2.7-2.01-.45,.24-.39,1.6,.38,3.21-1.15-.5-2.17-.17-2.34,.28-.17,.44,.35,1.32,1.44,1.75-1.93,.58-2.99,1.7-2.81,2.31,.17,.59,1.6,1,3.39,.75-.27,1.59,.17,2.77,.7,2.9,.48,.11,1.19-.58,1.66-1.61,1.58,1.38,3.34,1.44,3.85,.83,.46-.55,.12-1.94-1.03-3.14Z"/><path id="Icon_awesome-music" class="cls-3" d="M170.73,40.57c0-.91-.56-1.64-1.25-1.64-.13,0-.26,.03-.38,.08l-12.55,4.85c-.52,.21-.88,.85-.88,1.56v13.41c-.41-.13-.83-.2-1.26-.2-2.08,0-3.77,1.47-3.77,3.28s1.69,3.28,3.77,3.28,3.77-1.47,3.77-3.28v-11.99l10.04-3.85v9.47c-.41-.13-.83-.2-1.26-.2-2.08,0-3.77,1.47-3.77,3.28s1.69,3.28,3.77,3.28,3.77-1.47,3.77-3.28v-18.05Z"/><path id="Icon_awesome-music-2" class="cls-4" d="M150.38,94.15c0-.91-.56-1.64-1.25-1.64-.13,0-.26,.03-.38,.08l-12.55,4.85c-.52,.21-.88,.85-.88,1.56v13.41c-.41-.13-.83-.2-1.26-.2-2.08,0-3.77,1.47-3.77,3.28s1.69,3.28,3.77,3.28,3.77-1.47,3.77-3.28v-11.99l10.04-3.85v9.47c-.41-.13-.83-.2-1.26-.2-2.08,0-3.77,1.47-3.77,3.28s1.69,3.28,3.77,3.28,3.77-1.47,3.77-3.28v-18.05Z"/><path id="Icon_ionic-ios-musical-note" class="cls-1" d="M43.11,31.62c-.29,.05-7.41,1.34-7.67,1.38-.27,.02-.48,.21-.51,.44h0v14.16c0,.22-.05,.45-.15,.65-.22,.34-.58,.6-1.01,.7-.21,.06-.49,.12-.82,.18-1.51,.3-4.04,.81-4.04,2.87-.06,1.22,.85,2.32,2.2,2.61,.29,.04,.58,.06,.87,.06,1.12-.03,2.22-.28,3.21-.73,1-.58,1.58-1.59,1.51-2.65v-12.75c0-.21,.17-.39,.4-.43l5.82-1.05c.47-.09,.8-.45,.8-.87v-4.16c0-.24-.23-.44-.5-.43-.04,0-.07,0-.11,.01Z"/><path id="Icon_ionic-ios-musical-note-2" class="cls-5" d="M68.89,109.3c-.29,.05-7.41,1.34-7.67,1.38-.27,.02-.48,.21-.51,.44h0v14.16c0,.22-.05,.45-.15,.65-.22,.34-.58,.6-1.01,.7-.21,.06-.49,.12-.82,.18-1.51,.3-4.04,.81-4.04,2.87-.06,1.22,.85,2.32,2.2,2.61,.29,.04,.58,.06,.87,.06,1.12-.03,2.22-.28,3.21-.73,1-.58,1.58-1.59,1.51-2.65v-12.75c0-.21,.17-.39,.4-.43l5.82-1.05c.47-.09,.8-.45,.8-.87v-4.16c0-.24-.23-.44-.5-.43-.04,0-.07,0-.11,.01Z"/><path id="Icon_ionic-ios-musical-note-3" class="cls-2" d="M102.48,109.3c-.29,.05-7.41,1.34-7.67,1.38-.27,.02-.48,.21-.51,.44h0v14.16c0,.22-.05,.45-.15,.65-.22,.34-.58,.6-1.01,.7-.21,.06-.49,.12-.82,.18-1.51,.3-4.04,.81-4.04,2.87-.06,1.22,.85,2.32,2.2,2.61,.29,.04,.58,.06,.87,.06,1.12-.03,2.22-.28,3.21-.73,1-.58,1.58-1.59,1.51-2.65v-12.75c0-.21,.17-.39,.4-.43l5.82-1.05c.47-.09,.8-.45,.8-.87v-4.16c0-.24-.23-.44-.5-.43-.04,0-.07,0-.11,.01Z"/><path class="cls-8" d="M83.8,9.99c.33-3.14-.56-5.33-1.54-5.45-.9-.11-2.21,1.5-3.02,3.79-1.08-1.58-2.42-2.3-2.95-1.98-.54,.32-.57,1.89,.31,3.65-2.21,.37-3.7,1.3-3.67,1.94,.03,.63,1.58,1.29,3.77,1.28-1.16,1.01-1.35,2.32-.93,2.75,.4,.42,1.66,.31,2.71-.67-.37,2.45,.3,4.23,1.07,4.35,.74,.12,1.96-1.24,2.63-3.37,1.62,1.15,3.17,1.29,3.59,.76,.38-.47-.01-1.63-.9-2.71,2.37-1.02,3.37-2.95,2.97-3.84-.37-.8-2.09-1.17-4.03-.52Z"/></svg>