<?xml version="1.0" encoding="UTF-8"?><svg id="Layer_1" xmlns="http://www.w3.org/2000/svg" xmlns:xlink="http://www.w3.org/1999/xlink" viewBox="0 0 316.54 316.66"><defs><style>.cls-1{fill:#8500ff;stroke-width:2px;}.cls-1,.cls-2,.cls-3,.cls-4,.cls-5,.cls-6,.cls-7,.cls-8,.cls-9{stroke-miterlimit:10;}.cls-1,.cls-8{stroke:#e9bb00;}.cls-2{fill:#d87b46;}.cls-2,.cls-3{stroke-width:.5px;}.cls-2,.cls-3,.cls-4,.cls-9{stroke:#f7f2e2;}.cls-10{filter:url(#drop-shadow-9);}.cls-11{filter:url(#drop-shadow-7);}.cls-12{filter:url(#drop-shadow-6);}.cls-13{filter:url(#drop-shadow-2);}.cls-14{filter:url(#drop-shadow-3);}.cls-3{fill:#59a0a2;}.cls-4{fill:#dda6a0;}.cls-5{fill:#e2ff70;stroke:#418fa4;}.cls-6{fill:#0e1a3b;stroke:#091a51;}.cls-7{fill:#0fff70;stroke:#e570d2;}.cls-15{filter:url(#drop-shadow-8);opacity:.65;}.cls-16{filter:url(#drop-shadow-1);opacity:.71;}.cls-17{opacity:.58;}.cls-18{filter:url(#drop-shadow-5);}.cls-18,.cls-19{opacity:.46;}.cls-19{filter:url(#drop-shadow-4);}.cls-8{fill:#ff8fb2;stroke-width:3px;}.cls-9{fill:#ff8f18;stroke-width:.75px;}</style><filter id="drop-shadow-1" filterUnits="userSpaceOnUse"><feOffset dx="4" dy="-6"/><feGaussianBlur result="blur" stdDeviation="5"/><feFlood flood-color="#000" flood-opacity=".6"/><feComposite in2="blur" operator="in"/><feComposite in="SourceGraphic"/></filter><filter id="drop-shadow-2" filterUnits="userSpaceOnUse"><feOffset dx="4" dy="7"/><feGaussianBlur result="blur-2" stdDeviation="5"/><feFlood flood-color="#000" flood-opacity=".6"/><feComposite in2="blur-2" operator="in"/><feComposite in="SourceGraphic"/></filter><filter id="drop-shadow-3" filterUnits="userSpaceOnUse"><feOffset dx="4" dy="7"/><feGaussianBlur result="blur-3" stdDeviation="5"/><feFlood flood-color="#000" flood-opacity=".6"/><feComposite in2="blur-3" operator="in"/><feComposite in="SourceGraphic"/></filter><filter id="drop-shadow-4" filterUnits="userSpaceOnUse"><feOffset dx="4" dy="7"/><feGaussianBlur result="blur-4" stdDeviation="5"/><feFlood flood-color="#000" flood-opacity=".6"/><feComposite in2="blur-4" operator="in"/><feComposite in="SourceGraphic"/></filter><filter id="drop-shadow-5" filterUnits="userSpaceOnUse"><feOffset dx="4" dy="7"/><feGaussianBlur result="blur-5" stdDeviation="5"/><feFlood flood-color="#000" flood-opacity=".6"/><feComposite in2="blur-5" operator="in"/><feComposite in="SourceGraphic"/></filter><filter id="drop-shadow-6" filterUnits="userSpaceOnUse"><feOffset dx="4" dy="7"/><feGaussianBlur result="blur-6" stdDeviation="5"/><feFlood flood-color="#000" flood-opacity=".6"/><feComposite in2="blur-6" operator="in"/><feComposite in="SourceGraphic"/></filter><filter id="drop-shadow-7" filterUnits="userSpaceOnUse"><feOffset dx="4" dy="7"/><feGaussianBlur result="blur-7" stdDeviation="5"/><feFlood flood-color="#000" flood-opacity=".6"/><feComposite in2="blur-7" operator="in"/><feComposite in="SourceGraphic"/></filter><filter id="drop-shadow-8" filterUnits="userSpaceOnUse"><feOffset dx="4" dy="7"/><feGaussianBlur result="blur-8" stdDeviation="5"/><feFlood flood-color="#000" flood-opacity=".6"/><feComposite in2="blur-8" operator="in"/><feComposite in="SourceGraphic"/></filter><filter id="drop-shadow-9" filterUnits="userSpaceOnUse"><feOffset dx="4" dy="7"/><feGaussianBlur result="blur-9" stdDeviation="5"/><feFlood flood-color="#000" flood-opacity=".6"/><feComposite in2="blur-9" operator="in"/><feComposite in="SourceGraphic"/></filter></defs><circle class="cls-6" cx="158.27" cy="158.27" r="157.77"/><g class="cls-16"><path class="cls-5" d="M235.33,141.71c0,30.88-21.72,57.09-53.94,62.47l-4.7,19.75h-48.15l-6.52-47.03c30.77,0,51.04-6.82,51.04-25.49,0-12.57-9.77-19.75-21-19.75-6.88,0-14.48,3.59-19.55,12.21l-52.85-23.7c11.95-31.95,39.82-49.19,74.93-49.19,51.77,0,80.72,31.24,80.72,70.74Zm-45.97,134.64c0,19.75-15.57,35.19-36.56,35.19s-35.84-15.44-35.84-35.19,15.2-35.19,35.84-35.19,36.56,15.44,36.56,35.19Z"/></g><g class="cls-13"><path class="cls-4" d="M183.87,36.13c0,13.08-9.13,24.18-22.66,26.46l-1.98,8.36h-20.23l-2.74-19.92c12.93,0,21.44-2.89,21.44-10.8,0-5.32-4.11-8.36-8.82-8.36-2.89,0-6.08,1.52-8.21,5.17l-22.21-10.04c5.02-13.54,16.73-20.84,31.48-20.84,21.75,0,33.92,13.23,33.92,29.96Zm-19.32,57.03c0,8.37-6.54,14.9-15.36,14.9s-15.06-6.54-15.06-14.9,6.39-14.9,15.06-14.9,15.36,6.54,15.36,14.9Z"/></g><g class="cls-14"><path class="cls-2" d="M88.08,85.2c0,9.03-6.3,16.7-15.65,18.27l-1.36,5.78h-13.97l-1.89-13.76c8.93,0,14.81-2,14.81-7.46,0-3.68-2.84-5.78-6.09-5.78-2,0-4.2,1.05-5.67,3.57l-15.33-6.93c3.47-9.35,11.55-14.39,21.74-14.39,15.02,0,23.42,9.14,23.42,20.69Zm-13.34,39.38c0,5.78-4.52,10.29-10.61,10.29s-10.4-4.52-10.4-10.29,4.41-10.29,10.4-10.29,10.61,4.52,10.61,10.29Z"/></g><g class="cls-19"><path class="cls-9" d="M302,138.66c0,14.9-10.39,27.54-25.81,30.14l-2.25,9.53h-23.04l-3.12-22.69c14.72,0,24.42-3.29,24.42-12.3,0-6.06-4.68-9.53-10.05-9.53-3.29,0-6.93,1.73-9.35,5.89l-25.29-11.43c5.72-15.42,19.05-23.73,35.86-23.73,24.77,0,38.63,15.07,38.63,34.13Zm-22,64.96c0,9.53-7.45,16.98-17.5,16.98s-17.15-7.45-17.15-16.98,7.28-16.98,17.15-16.98,17.5,7.45,17.5,16.98Z"/></g><g class="cls-18"><path class="cls-7" d="M123.08,193.17c0,10.32-7.2,19.08-17.88,20.88l-1.56,6.6h-15.96l-2.16-15.72c10.2,0,16.92-2.28,16.92-8.52,0-4.2-3.24-6.6-6.96-6.6-2.28,0-4.8,1.2-6.48,4.08l-17.52-7.92c3.96-10.68,13.2-16.44,24.84-16.44,17.16,0,26.76,10.44,26.76,23.64Zm-15.24,45.01c0,6.6-5.16,11.76-12.12,11.76s-11.88-5.16-11.88-11.76,5.04-11.76,11.88-11.76,12.12,5.16,12.12,11.76Z"/></g><g class="cls-12"><path class="cls-3" d="M57.35,165.73c0,7.85-5.48,14.51-13.6,15.88l-1.19,5.02h-12.14l-1.64-11.96c7.76,0,12.87-1.73,12.87-6.48,0-3.19-2.46-5.02-5.29-5.02-1.73,0-3.65,.91-4.93,3.1l-13.33-6.02c3.01-8.12,10.04-12.5,18.89-12.5,13.05,0,20.35,7.94,20.35,17.98Zm-11.59,34.22c0,5.02-3.92,8.94-9.22,8.94s-9.04-3.92-9.04-8.94,3.83-8.94,9.04-8.94,9.22,3.92,9.22,8.94Z"/></g><g class="cls-11"><path class="cls-8" d="M152.51,233.49c0,9.03-6.3,16.7-15.65,18.27l-1.36,5.78h-13.97l-1.89-13.76c8.93,0,14.81-2,14.81-7.46,0-3.68-2.84-5.78-6.09-5.78-2,0-4.2,1.05-5.67,3.57l-15.33-6.93c3.47-9.35,11.55-14.39,21.74-14.39,15.02,0,23.42,9.14,23.42,20.69Zm-13.34,39.38c0,5.78-4.52,10.29-10.61,10.29s-10.4-4.52-10.4-10.29,4.41-10.29,10.4-10.29,10.61,4.52,10.61,10.29Z"/></g><g class="cls-15"><path class="cls-2" d="M234.31,239.47c0,9.03-6.3,16.7-15.65,18.27l-1.36,5.78h-13.97l-1.89-13.76c8.93,0,14.81-2,14.81-7.46,0-3.68-2.84-5.78-6.09-5.78-2,0-4.2,1.05-5.67,3.57l-15.33-6.93c3.47-9.35,11.55-14.39,21.74-14.39,15.02,0,23.42,9.14,23.42,20.69Zm-13.34,39.38c0,5.78-4.52,10.29-10.61,10.29s-10.4-4.52-10.4-10.29,4.41-10.29,10.4-10.29,10.61,4.52,10.61,10.29Z"/></g><g id="iqomuz.tif"><path class="cls-17" d="M277.36,169.46c.17-.36,.25-.53,.34-.7,.99-1.83,1.04-3.37-.29-5.3-2.13-3.08-2.71-6.81-3.02-10.52-.54-6.4-.29-12.73,1.86-18.86,1.01-2.88,2.49-5.49,4.86-7.51,.89-.76,1.8-1.15,3.02-.82,1.29,.35,2.62,.61,3.95,.72,1.98,.17,3.24,1.3,3.82,3.02,.78,2.3,1.54,4.66,1.86,7.05,.81,6.15,.89,12.34-.55,18.42-.59,2.48-1.64,4.88-2.7,7.22-.71,1.58-1.91,2.9-3.64,3.5-1.08,.37-1.6,1.09-1.88,2.13-.28,1.01-.65,1.99-.98,2.98,2.69,1.02,2.85,1.2,2.56,4.12-.09,.97,.14,1.56,.92,2.16,1.72,1.34,2.03,2.76,1.42,4.84-.12,.41-.06,1.04,.18,1.38,2.22,3.09,2.23,3.59,.08,6.7-.22,.32-.26,.92-.11,1.3,.87,2.31,.42,4.23-1.32,6.01-1.47,1.5-2.8,3.15-4.03,4.86-3.26,4.51-7.94,7.43-12.07,10.96-.36,.31-.72,.63-1.09,.93-.93,.76-1.25,1.46-.11,2.39,.87,.72,1.19,1.8,.72,2.88-1,2.27-.72,4.35,.38,6.54,1.46,2.9,1.05,5.78-.8,8.42-5.92,8.45-12.29,16.52-20.06,23.38-4.72,4.17-10.12,7.22-16.15,9.09-3.94,1.22-7.71,.75-11.02-1.84-6.19-4.83-12.39-9.64-18.47-14.61-4.41-3.6-8.62-7.45-12.93-11.18-.31-.27-.65-.52-1.24-.99,0,.86-.02,1.44,0,2.03,.39,8.56,.79,17.12,1.19,25.68,.01,.25,.02,.45,.03,.62,.02,.37,.02,.56,.05,1.11,.02,.46,1.73,13.47,5.73,43.55-12.06,3.37-31.9,7.29-56.22,4.72-22.03-2.33-39.17-9.07-49.98-14.33,8.9-15.93,7.97-22.99,5.44-26.49-2.91-4.02-6.72-3.61-16.44-9.72-4.49-2.82-8.13-6.42-9.02-12.01-.47-2.92,.04-5.75,1.07-8.46,5.5-14.45,10.75-29,16.72-43.25,3.36-8.01,8.17-15.36,13.42-22.36,2.76-3.67,6.66-4.58,10.74-5.34,6.07-1.13,12.15-2.2,18.22-3.36,.74-.14,1.52-.57,2.07-1.09,2.03-1.89,3.97-3.88,5.96-5.82,1.65-1.62,1.85-4.74,.5-6.62-4.48-6.22-8.33-12.83-10.19-20.29-.78-3.11-2.07-4.15-5.05-4.2-2.08-.04-4.16-.63-6.21-1.1-1.06-.24-2.11-.66-3.08-1.16-2.41-1.24-2.85-3.1-.89-4.92,1.77-1.64,3.78-3.12,5.92-4.22,3.36-1.72,6.9-3.08,10.39-4.52,.81-.33,1.17-.72,1.34-1.6,1.13-6.02,2.31-12.03,3.51-18.04,.22-1.12,.58-2.22,.92-3.32,1.36-4.3,4.3-6.18,8.76-5.27,2.27,.46,4.48,1.36,6.65,2.21,3.33,1.3,4.55,1.16,7.03-1.45,2.18-2.31,4.76-3.63,7.94-3.81,.95-.05,1.9-.22,2.84-.4,2.24-.43,3.94,.39,4.85,2.41,1.27,2.83,2.48,5.7,3.47,8.64,1.71,5.08,3.24,10.22,4.85,15.33,.67,2.13,1.55,2.61,3.73,2.79,3.37,.29,6.75,.66,10.08,1.27,1.35,.25,2.68,1.06,3.8,1.91,1.96,1.48,2.46,3.75,1.03,5.72-1.18,1.62-2.68,3.23-4.41,4.15-2.5,1.34-5.3,2.14-8.03,3-1.16,.37-1.6,.76-1.22,2,.43,1.42,.62,2.91,1.04,4.32,.41,1.37,.2,2.58-.72,3.61-.56,.63-.51,1.07-.02,1.72,1.29,1.72,2.48,3.52,3.75,5.26,.81,1.09,.74,2.11-.04,3.16-.31,.42-.54,.74-.6,.8-.9,.98-1.77,2.8-2.21,3.7-1.55,3.23-.81,3.86-2.27,6.74-.27,.53-.64,1.25-.87,2.32-.17,.8-.23,1.63-.17,2.51,.17,2.5-.45,3.26-3,3.61-3.41,.46-6.85,.76-10.26,1.22-.57,.08-1.33,.49-1.56,.97-.46,.98-.35,1.82,1.03,2.25,7.13,2.21,14.24,4.48,21.33,6.81,2.18,.71,4.3,1.61,6.4,2.53,4.03,1.77,7.2,4.41,9.57,8.28,5.5,8.98,11.26,17.8,16.99,26.63,1.98,3.05,4.2,5.94,6.24,8.96,.7,1.03,1.34,.99,2.01,.13,1.29-1.66,2.59-3.32,3.76-5.06,3.28-4.9,6.48-9.85,10.75-13.97,1.47-1.42,3.05-2.95,4.87-3.71,1.47-.62,2.52-1.4,3.52-2.52,1.76-1.97,2.92-4.19,3.5-6.8,.69-3.13,1.7-6.19,2.38-9.32,.6-2.79,2.26-4.46,4.86-5.32,.37-.12,.67-.28,.91-.49,.57-.47,.78-1.07,.83-1.2,.28-.71,1.95-3.21,6.91-9.83Zm10.89-30.28c-.09-1.51-.11-2.8-.26-4.08-.17-1.47-.33-2.96-.71-4.38-.32-1.24-1.13-1.38-1.97-.41-.5,.57-.91,1.24-1.26,1.91-4.38,8.36-4.6,17.15-2.53,26.13,.28,1.21,1.05,2.35,1.79,3.38,.63,.88,1.55,.83,2.06-.2,.55-1.1,1.04-2.26,1.37-3.45,1.73-6.27,1.56-12.7,1.5-18.9Z"/></g><g class="cls-10"><path class="cls-1" d="M244.46,59.61c0,9.03-6.3,16.7-15.65,18.27l-1.36,5.78h-13.97l-1.89-13.76c8.93,0,14.81-2,14.81-7.46,0-3.68-2.84-5.78-6.09-5.78-2,0-4.2,1.05-5.67,3.57l-15.33-6.93c3.47-9.35,11.55-14.39,21.74-14.39,15.02,0,23.42,9.14,23.42,20.69Zm-13.34,39.38c0,5.78-4.52,10.29-10.61,10.29s-10.4-4.52-10.4-10.29,4.41-10.29,10.4-10.29,10.61,4.52,10.61,10.29Z"/></g></svg>