<svg id="Layer_1" data-name="Layer 1" xmlns="http://www.w3.org/2000/svg" xmlns:xlink="http://www.w3.org/1999/xlink" viewBox="0 0 134.92 140.43"><defs><style>.cls-1{fill:none;}.cls-11,.cls-2,.cls-3,.cls-4{fill:#e6c763;}.cls-3{clip-path:url(#clip-path-2);}.cls-4{clip-path:url(#clip-path-3);}.cls-5{fill:#203956;}.cls-6{clip-path:url(#clip-path-5);}.cls-7{isolation:isolate;}.cls-8{clip-path:url(#clip-path-6);}.cls-9{fill:#6ba0a2;}.cls-10{fill:#dd2c89;}.cls-11{font-size:12px;font-family:Arboria-Black, Arboria;font-weight:800;}.cls-12{letter-spacing:-0.06em;}.cls-13{fill:#fff;}</style><clipPath id="clip-path"><path class="cls-1" d="M53.45,128.76a82.19,82.19,0,0,1-5.25-8.88A6.44,6.44,0,0,0,45.86,117a7.86,7.86,0,0,0-4.85-.75,7,7,0,0,0-1.59.3c-1.45.47-2.88,1-4.32,1.51a17.6,17.6,0,0,1,6.63,4.46,18.41,18.41,0,0,1,3.65,6"/></clipPath><clipPath id="clip-path-2"><path class="cls-2" d="M53.45,128.76a82.19,82.19,0,0,1-5.25-8.88A6.44,6.44,0,0,0,45.86,117a7.86,7.86,0,0,0-4.85-.75,7,7,0,0,0-1.59.3c-1.45.47-2.88,1-4.32,1.51a17.6,17.6,0,0,1,6.63,4.46,18.41,18.41,0,0,1,3.65,6"/></clipPath><clipPath id="clip-path-3"><path class="cls-3" d="M67.28,131.62c-1.58,2-7.19.65-13.83-2.86"/></clipPath><clipPath id="clip-path-5" transform="translate(-0.5 -0.5)"><circle class="cls-1" cx="65" cy="65" r="64.5"/></clipPath><clipPath id="clip-path-6" transform="translate(-0.5 -0.5)"><path class="cls-4" d="M45.38,128.55c2,4.91.58,7.35,1.51,9.21,4.2,8.39,49.91-1.33,50.46-12.42a9.57,9.57,0,0,0-2.78-6.61c-1.85-1.73-4-2-6.66-2.46-.86-.15-.79-.08-7.29,0a52.34,52.34,0,0,0-8.49.46c-1.1.18-2,.38-2.64.52a2.58,2.58,0,0,0,.45,1.5c.79,1.09,2.35,1,3.64,1.24,2.31.4,2,1.44,5.37,3.11,3.85,1.9,5.62,1.23,8.19,3.44a10.48,10.48,0,0,1,1.82,2c-10.2,4-13.37,3.67-14.22,2.44-.73-1.06.8-2.21.38-4.66-.37-2.2-1.9-3-9.06-8.66-3-2.35-3.43-2.75-4.58-3.09-4-1.19-8.57.82-8.52,1.92,0,.63,1.58.49,4.95,2.23a39,39,0,0,1,4.67,3,19.8,19.8,0,0,1,3.09,2.4c.7.81,2.18,3,1.61,7.51"/></clipPath></defs><circle class="cls-5" cx="64.5" cy="64.5" r="64.5"/><g class="cls-6"><g class="cls-7"><path class="cls-2" d="M53.45,128.76a82.19,82.19,0,0,1-5.25-8.88A6.44,6.44,0,0,0,45.86,117a7.86,7.86,0,0,0-4.85-.75,7,7,0,0,0-1.59.3c-1.45.47-2.88,1-4.32,1.51a17.6,17.6,0,0,1,6.63,4.46,18.41,18.41,0,0,1,3.65,6" transform="translate(-0.5 -0.5)"/><path class="cls-2" d="M67.28,131.62c-1.58,2-7.19.65-13.83-2.86" transform="translate(-0.5 -0.5)"/><path class="cls-2" d="M45.38,128.55c2,4.91.58,7.35,1.51,9.21,4.2,8.39,49.91-1.33,50.46-12.42a9.57,9.57,0,0,0-2.78-6.61c-1.85-1.73-4-2-6.66-2.46-.86-.15-.79-.08-7.29,0a52.34,52.34,0,0,0-8.49.46c-1.1.18-2,.38-2.64.52a2.58,2.58,0,0,0,.45,1.5c.79,1.09,2.35,1,3.64,1.24,2.31.4,2,1.44,5.37,3.11,3.85,1.9,5.62,1.23,8.19,3.44a10.48,10.48,0,0,1,1.82,2c-10.2,4-13.37,3.67-14.22,2.44-.73-1.06.8-2.21.38-4.66-.37-2.2-1.9-3-9.06-8.66-3-2.35-3.43-2.75-4.58-3.09-4-1.19-8.57.82-8.52,1.92,0,.63,1.58.49,4.95,2.23a39,39,0,0,1,4.67,3,19.8,19.8,0,0,1,3.09,2.4c.7.81,2.18,3,1.61,7.51" transform="translate(-0.5 -0.5)"/><g class="cls-8"><circle class="cls-2" cx="70.42" cy="66.12" r="64.5"/></g></g></g><path d="M45.21,37.22c.08,1.27.15,3.18.1,5.51-.08,3.49-.34,3.71,0,4.73.94,2.92,3.72,3,4.73,5.85a6.66,6.66,0,0,1-.11,4.31,57,57,0,0,1,19-1.29c5.48.57,8.41,1.31,12.08,3.06A31.37,31.37,0,0,1,88,64a9,9,0,0,0,4.43,2.34,7.33,7.33,0,0,0,1.64,0c2.46-.23,10-6.12,13.69-21,3.06-12.24,1.37-21.7,2.91-21.88,1.07-.12,2.5,4.32,3,6.19.65,2.46.48,4.48.74,7.21C115.86,51.92,109.75,64.1,100,75a15.42,15.42,0,0,0-2.34,4.46c-1.65,4-2.93,8.09-4.88,11.89-1,1.84-1.43,2.81.3,4.38,2.53,2.29,2.45,4.84.1,7.41-4.56,5-6.45,7.79-7.7,8.81-3.19,2.62-6.23,5.12-11,6.24-2.13.51-5.41,1.24-8.48-.46a8.7,8.7,0,0,1-2.49-2.06c.82-.8,1.51-2,2.48-2.31a41.25,41.25,0,0,1,6.35-.9c-3.81-5.4,1.44-5.75,3.87-7.73-.49-1-5-10.17-14.2-11.42a16.22,16.22,0,0,0-7.29.71c2.32,5.18,4.6,10.29,6.9,15.39,1,2.19,2.81,5.15.2,6.47s-5.91.63-8.92.68c-.24,0-.9-1.71-.67-2,3.21-3.38.34-5.56-1.45-8l-2-2.63c-2.4,3.66-5.06,6.88-6.74,10.55-1.6,3.51-4.07,3.88-7.19,3.62a6.56,6.56,0,0,1-1.59-.29c-1.45-.48-2.88-1-4.32-1.52,1.34-1.27,2.63-2.62,4.06-3.8.78-.64,2.34-.78,2.64-1.52a101.23,101.23,0,0,0,5.1-14.38c.39-1.65-1.12-4.57-2.65-5.72-9.59-7.19-12.31-17.26-13.73-28.48a44.79,44.79,0,0,1-.17-16.29c.17-1.11.8-4.86,2.28-5.07.9-.13,2.11,1,4.3,3.18.84.82,1.32,1.38,2.17,1.51a3.87,3.87,0,0,0,2.67-.9c5-3.1,4.62-2.42,6.05-3.67A19.79,19.79,0,0,0,45.21,37.22Z" transform="translate(-0.5 -0.5)"/><g class="cls-7"><path class="cls-9" d="M36.06,52.75a3.62,3.62,0,0,1,2.07,1.16,5.67,5.67,0,0,1-1.58.72,3.07,3.07,0,0,1-2.14.06c-.42-.18-1-.66-1-1.09C33.53,53,34.93,52.58,36.06,52.75Z" transform="translate(-0.5 -0.5)"/></g><g class="cls-7"><path class="cls-9" d="M44.65,50.28a1.89,1.89,0,0,0-.55,1.26,1.57,1.57,0,0,0,1.27.36,1.47,1.47,0,0,0,1.11-.85,1.44,1.44,0,0,0-.16-1.25A2,2,0,0,0,44.65,50.28Z" transform="translate(-0.5 -0.5)"/></g><path class="cls-10" d="M42.62,54.75l1.61-.83a.31.31,0,0,1,.27,0q.28.15-.12,1.62c-1.22-.06-1.86-.21-1.9-.47C42.46,55,42.51,54.85,42.62,54.75Z" transform="translate(-0.5 -0.5)"/><text class="cls-11" transform="translate(51.62 18)"><tspan class="cls-12">V</tspan><tspan x="7.2" y="0">ery</tspan><tspan x="-11.75" y="14.4" xml:space="preserve"> Curious! </tspan></text><path class="cls-2" d="M104.07,133.53" transform="translate(-0.5 -0.5)"/><path class="cls-2" d="M113.06,129.13" transform="translate(-0.5 -0.5)"/><path class="cls-2" d="M104.34,127.93" transform="translate(-0.5 -0.5)"/><polygon class="cls-13" points="110.57 45.22 109.64 45.17 108.91 45.75 108.85 45.03 108.03 44.77 108.93 44.37 109.15 43.63 109.76 44.11 110.72 43.91 110.2 44.6 110.57 45.22"/><polygon class="cls-13" points="40.06 48.77 38.8 48.63 37.84 49.48 37.72 48.36 36.59 47.9 37.78 47.36 38.03 46.23 38.89 47 40.17 46.76 39.52 47.79 40.06 48.77"/><polygon class="cls-13" points="75.3 62.32 74.42 61.39 73.15 61.42 73.78 60.49 73.22 59.41 74.47 59.77 75.4 59.06 75.55 60.21 76.68 60.86 75.52 61.22 75.3 62.32"/><polygon class="cls-13" points="87.65 70.48 86.85 69.77 85.82 70.06 86.24 69.03 85.67 68.1 86.73 68.18 87.42 67.31 87.65 68.39 88.64 68.78 87.72 69.37 87.65 70.48"/><polygon class="cls-13" points="73.03 75.57 71.87 75.05 70.71 75.57 70.93 74.47 69.99 73.69 71.29 73.53 71.87 72.52 72.45 73.53 73.75 73.69 72.81 74.47 73.03 75.57"/><polygon class="cls-13" points="52.58 63.41 51.74 63.03 50.86 63.31 51.06 62.62 50.4 62.09 51.36 62.04 51.83 61.42 52.22 62.09 53.18 62.24 52.45 62.7 52.58 63.41"/><polygon class="cls-13" points="112.08 36.67 111.22 35.72 109.95 35.73 110.6 34.81 110.05 33.72 111.3 34.1 112.24 33.41 112.37 34.56 113.49 35.24 112.32 35.57 112.08 36.67"/><polygon class="cls-13" points="33.85 79.78 32.58 79.64 31.63 80.48 31.51 79.37 30.38 78.91 31.57 78.36 31.82 77.23 32.67 78.01 33.96 77.77 33.3 78.8 33.85 79.78"/><polygon class="cls-13" points="106.07 59.06 105.2 58.13 103.93 58.15 104.57 57.23 104.01 56.14 105.27 56.5 106.19 55.81 106.33 56.96 107.47 57.62 106.3 57.97 106.07 59.06"/><polygon class="cls-13" points="60.81 66.6 59.55 66.46 58.59 67.31 58.47 66.19 57.34 65.73 58.53 65.19 58.78 64.06 59.64 64.83 60.92 64.59 60.27 65.62 60.81 66.6"/><polygon class="cls-13" points="30.95 67.52 29.72 67.5 28.73 68.23 28.69 67.37 27.62 67.09 28.82 66.58 29.14 65.68 29.93 66.23 31.2 65.95 30.48 66.8 30.95 67.52"/><polygon class="cls-13" points="57.82 77.38 56.55 77.24 55.6 78.09 55.48 76.97 54.35 76.51 55.54 75.97 55.79 74.84 56.65 75.61 57.94 75.37 57.27 76.4 57.82 77.38"/></svg>