<?xml version="1.0" encoding="utf-8"?>
<!-- Generator: Adobe Illustrator 24.3.0, SVG Export Plug-In . SVG Version: 6.00 Build 0)  -->
<svg version="1.1" id="Layer_1" xmlns="http://www.w3.org/2000/svg" xmlns:xlink="http://www.w3.org/1999/xlink" x="0px" y="0px"
	 viewBox="0 0 612 792" style="enable-background:new 0 0 612 792;" xml:space="preserve">
<style type="text/css">
	.st0{fill:#FFFFFF;}
</style>
<g>
	<path class="st0" d="M372.39,324.38c-3.03-6.65-7.57-12.6-13.29-17.28c-8.52-6.98-19.29-10.82-30.33-10.82H167.35v30.26l7.65,4.05
		v99.27l-7.65,4.05v30.26h75.81c0.83,1.32,1.47,2.34,1.68,2.68c5.84,9.73,14.27,17.54,24.4,22.62c2.27,1.14,4.64,2.14,7.03,2.97
		c6.19,2.15,12.67,3.26,19.27,3.29l0.03,0h0.03h84.1c19.77,0,38.18-9.79,49.26-26.19c0.53-0.79,1.05-1.6,1.55-2.41
		c5.63-9.27,8.61-19.93,8.61-30.82l0-78.74l5.53-2.92v-30.26H372.39z M440.86,352.36l-5.53,2.92l0,81.02
		c0,10.2-2.79,20.17-8.06,28.85c-0.46,0.76-0.95,1.52-1.45,2.26c-10.37,15.35-27.61,24.52-46.12,24.52l-84.14,0
		c-6.18-0.03-12.25-1.06-18.04-3.08c-2.24-0.78-4.46-1.72-6.58-2.78c-9.5-4.76-17.41-12.09-22.87-21.21
		c-0.26-0.42-1.45-2.31-2.82-4.48h-74.12v-24.19l7.65-4.05V328.3l-7.65-4.05v-24.19h157.63c10.16,0,20.08,3.54,27.93,9.97
		c5.89,4.82,10.43,11.11,13.18,18.13h70.99V352.36z"/>
	<g>
		<path class="st0" d="M294.67,336.72h-51.45v10.47l5.52,2.92v72.4h45.92c2.94,0,5.33-2.38,5.33-5.33v-75.14
			C300,339.11,297.61,336.72,294.67,336.72"/>
		<path class="st0" d="M380.85,336.72c-2.94,0-5.33,2.39-5.33,5.33v77.29c0,22.7-18.4,41.04-41.1,41.04h-79.06
			c8.18,13.71,23.13,22.92,40.24,22.99h84.1c25.99,0,47.07-21.07,47.07-47.07v-86.18l5.53-2.92v-10.47H380.85z"/>
		<path class="st0" d="M328.77,308.62H179.7v10.47l7.65,4.05v114.15l-7.65,4.05v10.47h149.07c19.64,0,35.56-15.92,35.56-35.56
			v-72.06C364.33,324.54,348.41,308.62,328.77,308.62 M312.64,418.8c0,7.03-5.7,12.72-12.72,12.72h-64.1v-103.8h64.1
			c7.03,0,12.72,5.7,12.72,12.72V418.8z"/>
	</g>
</g>
</svg>
