<?xml version="1.0" encoding="UTF-8"?><svg id="Layer_1" xmlns="http://www.w3.org/2000/svg" xmlns:xlink="http://www.w3.org/1999/xlink" viewBox="0 0 142 125"><defs><style>.cls-1{filter:url(#drop-shadow-1);}.cls-1,.cls-2,.cls-3,.cls-4,.cls-5,.cls-6{stroke-miterlimit:10;}.cls-1,.cls-2,.cls-4,.cls-5{stroke:#e9bb00;}.cls-1,.cls-5{fill:#8500ff;}.cls-2{stroke-width:2px;}.cls-2,.cls-4{fill:#ff8fb2;}.cls-3{stroke:#00928d;}.cls-3,.cls-4,.cls-6{stroke-width:4px;}.cls-3,.cls-7{fill:#ff8f18;}.cls-6{fill:none;stroke:#ff8f18;}.cls-7{opacity:.46;}</style><filter id="drop-shadow-1" filterUnits="userSpaceOnUse"><feOffset dx="4" dy="7"/><feGaussianBlur result="blur" stdDeviation="7"/><feFlood flood-color="#000" flood-opacity=".54"/><feComposite in2="blur" operator="in"/><feComposite in="SourceGraphic"/></filter></defs><g><circle class="cls-2" cx="64.79" cy="57" r="50"/><circle class="cls-4" cx="64.52" cy="57.11" r="44.85"/><circle class="cls-6" cx="64.79" cy="57.11" r="37.46"/><circle class="cls-3" cx="64.79" cy="57.11" r="31.97"/></g><path class="cls-1" d="M19.09,52.2c-2.24-6.24-1.14-11.85-.44-15.32,.66-3.23,3.89-19.09,13.48-20.59,6.06-.95,12.36,4.19,15.35,7.86,1.27,1.56,2.1,3.05,2.62,4.12,1.77-1.67,4.93-4.2,9.52-5.73,7.75-2.58,14.47-.6,16.83,.21,.04-1.07,.29-3.14,1.73-4.96,2.6-3.29,7.5-3.66,10.48-2.62,4.39,1.53,5.92,6.56,8.21,14.52,5.25,18.24,1.3,29.44-.77,32.85-.83,1.37-1.72,2.09-2.2,2.42-3.33,2.34-7.73,1.25-9.36,.75-3.01,3.62-3.88,8.5-2.25,12.73,1.86,4.81,6.85,8.53,11.23,7.86,5.43-.83,10.51-8.54,8.24-17.97-1.41-3.84-1.2-4.94-.75-5.24,.69-.46,1.86,1.04,5.24,2.25,.79,.28,2.55,.9,4.87,1.12,2.73,.27,3.43-.28,4.12,.37,1.28,1.21,.79,4.92-1.5,6.74-1.59,1.26-3.5,1.18-4.12,1.12,.18,1.27,1.13,8.83-4.12,14.97-5.17,6.06-12.51,6.31-14.23,6.36-9.32,.31-18.45-6.16-23.45-16.33-.23,.9-.5,2.51-.04,4.39,.21,.88,.53,1.6,.83,2.16-1.53-.96-3.79-2.67-5.64-5.48-.83-1.26-1.41-2.48-1.81-3.53-5.49,5.23-9.77,5.65-11.94,5.53-4.61-.25-6.04-3.39-20.25-18.02-6.4-6.59-8.41-8.44-9.88-12.55Z"/><circle class="cls-5" cx="66.84" cy="55.34" r="1.78"/><circle class="cls-5" cx="79.91" cy="53.56" r="1.78"/><path class="cls-7" d="M41.87,24.94c-1.16-1.12-3.77-3.65-7.18-3.47-3.42,.18-5.68,2.97-7.14,4.78-3.51,4.34-4.01,9.27-4.35,12.58-.22,2.1-.53,5.41,.36,9.37,1.13,5.05,4.48,9.02,11.18,16.97,1.38,1.64,4.65,4.62,11.18,10.58,1.6,1.46,3.38,3.04,5.78,2.95,2.77-.1,4.75-2.37,5.51-3.35-3.28-3.84-11.92-15-11.09-29.94,.2-3.52,.88-6.65,1.75-9.33-.33-.94-.83-2.28-1.55-3.84-1.49-3.24-2.48-5.4-4.44-7.29Z"/><path class="cls-7" d="M83.8,18.41c1.61-1.04,3.88-1.24,5.54-.32,1.61,.89,2.17,2.57,2.77,4.48,2.18,6.88,3.27,10.32,3.65,12.59,.49,2.93,1.07,6.41,1.13,11.21,.15,11.11-2.68,14.44-3.53,15.34-1.39,1.47-3.24,1.73-3.24,1.73-1.84,.42-3.39-.03-4.13-.3,1.14-3.26,3.13-10.41,1.42-19.22-1.35-6.97-4.42-11.96-6.37-14.65-.4-1.52-.91-4.49,.37-7.59,.44-1.07,1-2.37,2.39-3.27Z"/></svg>