<?xml version="1.0" encoding="UTF-8"?>
<svg id="Layer_1" data-name="Layer 1" xmlns="http://www.w3.org/2000/svg" viewBox="0 0 502.43 111.87">
  <defs>
    <style>
      .cls-1 {
        fill: #fff;
      }
    </style>
  </defs>
  <g id="_9Le20H.tif" data-name="9Le20H.tif">
    <g>
      <path class="cls-1" d="M347.85,111.54h-8.36l-28.93-46.23-.34.08v36.25c.24,2.63.35,5.26,1.46,7.7.35.77.95,1.42,1.1,2.2h-11.2c.09-.78.72-1.47,1.06-2.24.58-1.3.86-2.64,1.08-4.04.66-15.23.11-30.54.29-45.81l-1.76-3.3h11.4l27.6,43.98.45.22.07-33.77c-.21-2.76-.24-5.61-1.37-8.19-.26-.59-1.05-1.59-1.17-1.93-.05-.14-.03-.3-.03-.44h10.99l.14.27c-1.8,2.64-2.28,5.68-2.51,8.82v46.43Z"/>
      <path class="cls-1" d="M200.01,111.54c-.21-.21.9-1.64,1.06-1.97,1.48-2.96,1.44-7.34,1.5-10.62.2-10.01.26-20.61,0-30.61-.08-3.1-.22-6.76-1.39-9.66-.17-.43-1.38-2.46-1.18-2.66,6.91.18,13.95-.25,20.85,0,15.28.55,27.2,8.98,28.65,24.87,1.61,17.66-10.39,29.88-27.71,30.66h-21.79ZM210.26,106.15c8.99.13,19.01.64,25.56-6.6s6.91-22.05,1.25-29.96c-4.42-6.19-11.52-7.94-18.78-8.18-2.11-.07-5.57-.24-7.57,0-.2.02-.35.02-.47.21v44.54Z"/>
      <path class="cls-1" d="M502.43,111.54h-9.91l-20.91-26.15h-5.6c.12,5-.16,10.03,0,15.03.09,2.75.29,5.95,1.33,8.51.36.88,1.03,1.71,1.24,2.6h-12.81c.25-.82.84-1.55,1.19-2.38.91-2.09,1.27-4.71,1.37-6.98.56-12.16-.44-24.74,0-36.94-.26-3.15-.59-6.32-2.55-8.91l.21-.3c6.48.13,13.08-.25,19.55-.02,7.21.25,15.74,2.63,18.1,10.35,2.57,8.43-2.63,15.2-10.52,17.59-.34.1-2.53.56-2.53.71l21.85,26.89ZM466.01,79.87c5.78-.24,14.81,1.38,18.54-4.32,1.68-2.56,1.78-6.77.28-9.42-3.41-6.06-13.06-4.31-18.82-4.58v18.33Z"/>
      <path class="cls-1" d="M293.22,56.02v9.43c-.69-.06-1.06-.93-1.62-1.42-2.8-2.45-7.49-2.31-11-2.43-5.07-.18-10.17.17-15.23-.02l-.2.16v18.94c4.53-.15,9.19.2,13.7,0,2.6-.11,5.73-.48,7.96-1.89.56-.35,1.03-1.01,1.68-1.08v11.46c-.65-.1-1.12-.8-1.71-1.19-1.94-1.26-4.97-1.67-7.25-1.78-4.72-.23-9.63.18-14.37,0v19.81c5.76-.16,11.58.21,17.34,0,3.78-.13,7.68-.44,10.31-3.44.47-.53.78-1.53,1.48-1.42v10.38h-39.39c.01-.15-.11-.25-.06-.41.1-.34.89-1.44,1.12-1.97.92-2.11,1.27-4.69,1.37-6.98.56-12.25-.43-24.92,0-37.21-.25-3.08-.68-6.11-2.51-8.68l.14-.27h38.24Z"/>
      <path class="cls-1" d="M447.39,65.45l-.54-.07c-2.66-3.88-7.88-3.63-12.08-3.78-5.17-.19-10.39.1-15.57.07v19c4.46-.13,8.97.17,13.43,0,2.57-.1,5.97-.4,8.17-1.81.63-.4,1.16-1.17,1.87-1.16v11.25c0,.12-.27.23-.45.18-.21-.06-.6-.61-.84-.79-2.14-1.62-5.18-2.04-7.81-2.16-4.72-.23-9.63.18-14.37,0v19.61l.47.21c5.62-.16,11.26.19,16.88,0,3.45-.12,7.71-.47,10.18-3.17.51-.56.88-1.63,1.62-1.69v10.38h-39.39c0-.15-.02-.3.03-.44.15-.43.91-1.45,1.17-2.07,1.12-2.68,1.28-5.99,1.37-8.87.32-10.6.32-22.3,0-32.9-.09-2.81-.25-6.38-1.42-8.95-.37-.82-1.05-1.46-1.14-2.3h38.24l.2.2v9.23Z"/>
      <path class="cls-1" d="M367,56.02c-.2,1.09-.69,2.05-.79,3.18-.19,2.05.37,4.15.86,6.11l12.69,35.86.45-.02,13.51-35.49c.77-2.59,1.44-5.07,1.06-7.8-.04-.3-.61-1.84-.19-1.84h10.72c.01.19.02.36-.07.54-.14.29-1.09,1.28-1.39,1.71-1.77,2.56-2.98,5.25-4.13,8.13l-17.32,45.06-7.01.06-16.78-46.38c-.94-2.35-1.95-4.68-3.28-6.83-.47-.76-1.25-1.46-1.4-2.3h13.08Z"/>
      <path class="cls-1" d="M438.62,13.56c-.4,1.71.1,3.26.79,4.81,1.46,3.31,3.84,6.41,5.29,9.75l.33-.14c1.54-2.83,3.45-5.55,4.95-8.39.41-.78,1.73-3.34,1.73-4.07v-1.95h7.42c.04.21-.02.31-.13.48-.34.53-1.51,1.52-2.03,2.15-.65.79-1.26,1.64-1.81,2.5-2.92,4.53-5.4,9.37-8.38,13.86.12,3.44-.62,7.88.61,11.13.23.61.62,1.08.81,1.68h-8.23c-.08-.42.28-.66.43-.99,1.52-3.42.9-7.9,1.02-11.58-2.59-4.09-4.72-8.98-7.41-12.95-2.22-3.28-7.15-2.41-10.57-2.61l-.21.43c.26,7.04-.32,14.29,0,21.31.07,1.45.21,3.16.75,4.51.26.66.79,1.22.87,1.89h-8.43l-.19-.32c.41-.54.8-1.16,1.04-1.8s.57-2.06.57-2.66v-23.18c-.08-.13-.15-.13-.27-.16-.34-.08-2.54-.01-3.03.02-2.23.14-4.56.14-6.35,1.69-.25.22-.33.71-.74.67v-6.06h31.16Z"/>
      <path class="cls-1" d="M255.99,37.69v-19.74c0-.41-.35-1.88-.5-2.33s-.99-1.79-.85-2.05h6.88c-.13.72-.63,1.28-.87,2.03-.53,1.62-.44,3.25-.61,4.9v24.87s-5.73,0-5.73,0l-15.27-25.44-.31-.17v21.36c0,.41.35,1.88.5,2.33.23.69.71,1.24.85,1.92h-6.88c-.07-.54.37-.9.56-1.39.43-1.11.72-2.46.79-3.66.51-7.98-.39-16.5,0-24.54l-1.08-2.22,7.82.05.27.14,14.05,23.57.38.36Z"/>
      <path class="cls-1" d="M341.24,45.37c.29-.9.79-1.58,1.04-2.53.31-1.18.4-2.76.45-4,.23-5.99.27-13.17,0-19.15-.06-1.42-.21-3.19-.75-4.51-.19-.47-.48-.87-.72-1.3l.19-.28c4.65.34,9.77-.44,14.39.27,5.49.85,9.99,5.35,7.59,11.14-1.23,2.98-3.63,3.9-6.35,4.98-.14.05-.23-.07-.18.21l11.87,15.16h-6.88l-11.13-14.56h-2.63v10.44c0,.44.3,1.64.44,2.12.19.61.48,1.19.85,1.72l-.14.27h-8.03ZM347.98,27.17h4.65c2.63,0,5.36-1.76,5.6-4.52.49-5.88-6.17-5.55-10.25-5.46v9.97Z"/>
      <path class="cls-1" d="M335.3,13.56v5.93c-.48-.1-.76-.62-1.17-.92-1.2-.88-2.96-1.15-4.42-1.24-3.24-.19-6.66.16-9.92,0v10.11h8.84c.36,0,1.87-.4,2.26-.57.58-.25,1-.76,1.44-.98.19-.1.21-.09.34.07l.06,6.87c-.77-.05-1.19-.73-1.99-1.04-.61-.24-2.04-.57-2.67-.57h-8.3v10.51c2.98-.09,6,.12,8.98,0,2.41-.1,4.68-.21,6.39-2.09.29-.32.31-.86.81-.74v6.47h-22.86l-.19-.32c1.11-1.38,1.38-3.4,1.48-5.13.38-6.89-.3-14.11,0-21.04-.18-1.84-.4-3.56-1.49-5.11l22.39-.21Z"/>
      <path class="cls-1" d="M208.24,13.7c-.37.84-.8,1.48-1.04,2.4s-.4,2.13-.45,3.06c-.22,4.09-.26,9.82,0,13.89.37,5.77,3.94,9.27,9.88,8.24,4-.69,5.83-3.74,6.18-7.57-.25-4.99.32-10.28,0-15.24-.1-1.64-.5-3.3-1.36-4.71l7.01-.07c-.98,1.64-1.37,3.42-1.48,5.32-.54,9.11,3.06,23.8-9.17,26.55-8.6,1.93-15.51-2.43-16.33-11.32-.47-5.12.89-15.06-.87-19.35-.18-.44-.66-.81-.61-1.35l8.23.14Z"/>
      <path class="cls-1" d="M388.99,20.98c-.23.03-.3,0-.47-.14-.29-.25-.77-1.17-1.15-1.55-3.69-3.71-12.72-3.56-11.86,2.96.45,3.42,7.6,5.27,10.31,7.08,6.83,4.56,4.3,13.81-3.11,16.03-4.49,1.35-9.56.3-13.28-2.48v-6c.18,0,.26-.05.41.09.35.32.98,1.51,1.47,2.01,2.34,2.36,6.31,3.82,9.58,2.82,4.18-1.27,4.88-5.87,1.03-8.18-5.21-3.13-13.11-4.35-11.66-12.68s12.71-9.91,18.71-5.69v5.73Z"/>
      <path class="cls-1" d="M288.22,13.7c-.88,1.77-.56,3.44-.07,5.25,1.48,5.47,4.04,11.78,6,17.19.24.66.48,1.48.75,2.09.07.16-.01.33.26.27l7.53-20.25c.38-1.5.64-3.02-.03-4.48l7.01-.21c.17.3-1.33,2.21-1.59,2.65-.44.75-.76,1.57-1.17,2.34l-10.28,26.82-4.78-.08-9.46-26.37c-.74-1.78-1.63-3.49-2.79-5.04l.19-.29,8.43.1Z"/>
      <path class="cls-1" d="M395.06,45.23c.54-.97.98-1.96,1.18-3.07-.09-7.77.69-16.24.17-23.96-.1-1.55-.53-3.12-1.35-4.44l8.15-.2c.3,0-.73,1.91-.81,2.16-.26.81-.35,1.65-.48,2.49.35,7.34-.45,15.09,0,22.38.04.68.17,1.57.34,2.22.24.9.75,1.56,1.01,2.42h-8.23Z"/>
      <path class="cls-1" d="M275.68,45.23h-8.23c.27-.69.67-1.3.88-2.02.25-.85.42-2.01.48-2.89.42-7.04-.33-14.49,0-21.58-.12-1.78-.49-3.41-1.36-4.98l8.03-.19.15.26c-1.01,1.42-1.24,3.08-1.43,4.77.35,7.16-.45,14.74,0,21.84.11,1.73.54,3.33,1.49,4.78Z"/>
      <path class="cls-1" d="M470.84,19.4c10.37-1.11,15.6,11.57,7.85,18.09-6.99,5.88-17.33.09-16.59-8.89.37-4.52,4.17-8.7,8.74-9.19ZM471.24,21.55c-7.12.86-7.22,15.33.23,16,3.68.33,6.15-1.88,6.88-5.38,1.07-5.12-.8-11.38-7.12-10.61Z"/>
      <path class="cls-1" d="M498.52,19.36v3.77l-1.66-1.1c-.32-.12-1.36-.38-1.64-.38h-5.73v6.74h5.46c.18,0,1.11-.31,1.33-.42.42-.2.61-.57,1.03-.66v4.58c-.4-.06-.56-.41-.94-.61-.31-.16-1.51-.47-1.82-.47h-5.06v6.54c0,.11.26.97.34,1.15.17.39.55.66.61,1.08h-5.4c.54-.94.87-1.79.95-2.89.33-4.72-.26-9.81,0-14.57-.06-.45-.13-.92-.27-1.35-.17-.51-.52-.91-.68-1.41h13.49Z"/>
    </g>
  </g>
  <g id="SWvYek">
    <g>
      <path class="cls-1" d="M99.1,0c10.24,1.38,17.98,11.56,18.73,21.46,1.18,15.65-.93,32.74,0,48.54-1.49,13.01-10.52,20.58-23.35,21.46-29.1-1.11-59.29,1.48-88.26.03-2.08-.1-4.09-.78-6.22-.48l.08-6.16,4.47-2.69.09-73.07L0,6.93V0h99.1ZM35.58,78.08h43.2c1.75,0,5.55-3.83,5.75-5.8l-.33-55.06c-.72-2.21-4.01-5.2-6.35-5.2h-42.27v66.06Z"/>
      <path class="cls-1" d="M48.51,96.56h54.28c10.49,0,21.11-13.37,21.96-23.31,1.4-16.36-1.52-35.03-.04-51.32.26-2.87,1.59-4.05,4.41-4.37,9.47-1.08,20.83.82,30.51-.02l1.53.78c-.1,1.59.59,5.31-.39,6.41-.71.79-3.13.77-3.24,2.3l-.06,57.69c-1.66,14.2-12.83,24.99-26.97,26.62-19.23-1.24-40.61,1.69-59.58,0-8.6-.77-18.8-6.81-22.41-14.78Z"/>
      <path class="cls-1" d="M43.89,72.53h30.26c.88,0,2.82-2.32,2.55-3.45-1.07-15.33,1.39-32.51.01-47.62-.31-3.4-2.2-3.66-5.32-3.92-9.7-.83-20.61.6-30.44.08-1.44.47-.5,5.17-.77,6.54l3.7,2.41v45.97Z"/>
      <path class="cls-1" d="M43.89,72.53V26.56l-3.7-2.41c.26-1.37-.68-6.07.77-6.54,9.83.52,20.74-.91,30.44-.08,3.12.27,5.01.52,5.32,3.92,1.38,15.11-1.08,32.29-.01,47.62.27,1.13-1.67,3.45-2.55,3.45h-30.26Z"/>
    </g>
  </g>
</svg>