<?xml version="1.0" encoding="UTF-8"?>
<svg id="Layer_1" xmlns="http://www.w3.org/2000/svg" viewBox="0 0 258.72 39.21">
  <defs>
    <style>
      .cls-1 {
        fill: #efc848;
      }

      .cls-2 {
        fill: #86b46d;
      }

      .cls-3 {
        fill: #54a6af;
      }

      .cls-4 {
        fill: #e48043;
      }
    </style>
  </defs>
  <path class="cls-2" d="M189.01.46l8.67.74,1,37.26h-9.41l-.26-38Z"/>
  <path class="cls-4" d="M204.73,12.05h6.5v3.05c2.43-2.85,5.33-5.05,8-5.05,6.67,0,9.26,5.41,9.26,13.16l-.74,16-8.67-.74v-14.07c0-3-1.14-4.08-3-4.08-2.89,0-4.34,2.43-4.34,5.68v12.46l-7.93.74-1.35-24.76c-.07-1.25.88-2.31,2.13-2.39.05,0,.1,0,.14,0Z"/>
  <path class="cls-3" d="M232.48,2.23l5-1.48.74,19.88,5.3-7.11c.69-.92,1.8-1.42,2.94-1.32l7.17.58-7.82,10.79,10.79,14.15-10.42.74-6.43-8.68-1.55,1.86v6.82h-4.84c-.87,0-1.58-.71-1.58-1.58,0-.01,0-.02,0-.03l.7-34.62Z"/>
  <path class="cls-1" d="M0,.38h6.2l4.58,23.22c.26,1.29.47,2.63.47,2.63,0,0,.15-1.34.36-2.63l1.85-20h9.3l1.88,20c.21,1.29.36,2.63.36,2.63,0,0,.21-1.34.47-2.63l3-21.32,6.66.28c1.44,0,3.29,2.43,2.84,3.8l-8.63,30.58h-8.58l-2.27-13.34c-.26-1.45-.37-2.28-.37-2.28,0,0-.1.83-.36,2.28l-2.27,13.34h-4.38c-.73.01-1.38-.46-1.6-1.16L0,.38Z"/>
  <path class="cls-3" d="M38.44,23.78c0-7.65,6.15-13.75,14.27-13.75s11.12,6.07,11.12,13.75-3,13.7-11.12,13.7-14.27-6.13-14.27-13.7ZM55.99,23.78c0-3.15-2-5.48-4.76-5.48s-3.28,2.3-3.28,5.48.49,5.43,3.28,5.43,4.76-2.25,4.76-5.43Z"/>
  <path class="cls-2" d="M69.59,11.19l4.22-.58c.48-.07.92.26.99.73,0,.05.01.09,0,.14v2.09c1.97-2.36,4.92-3.68,8-3.57,6.66,0,9.25,3.93,9.25,11.69v14.51l-9.41.74v-14.07c0-3-1.14-3.34-3-3.34-2.89,0-4.34,1.69-4.34,5v13c0,.49-.39.88-.88.88-.02,0-.04,0-.06,0l-6.88-.63c-.48,0-.11-.45-.08-.93l1.38-24.8c.01-.45.36-.81.8-.86Z"/>
  <path class="cls-3" d="M96.16,23.78c0-7.65,2.76-13.75,10.16-13.75,2.42-.07,4.75.94,6.35,2.75l.74-12.78h2.2c1.53,0,2.77,1.25,2.78,2.78v35.63h-5.2v-4.42c-1.39,2.69-5.06,3.46-7.18,3.46-7.35,0-9.85-6.1-9.85-13.67ZM112.73,23.78c0-3.15-1.76-5.48-4.24-5.48s-5.72,2.33-5.72,5.48,3.24,5.43,5.72,5.43,4.24-2.25,4.24-5.43Z"/>
  <path class="cls-4" d="M122.25,23.78c-.09-7.5,5.91-13.66,13.41-13.75.11,0,.23,0,.34,0,7.5,0,13.24,6.1,13.24,13.75,0,1.61-1.69,3.05-1.69,3.05h-16.05c.78,2.48,3.11,3.42,5.64,3.42,2.22,0,5.34.06,7-.87l2.42,5.62c-2.86,1.68-6.13,2.53-9.45,2.45-8,0-14.86-5.01-14.86-13.67ZM139.63,22.14c.08-3.3-1.2-4.72-3.63-4.72-2.35.07-4.33,1.78-4.76,4.09l8.39.63Z"/>
  <path class="cls-1" d="M153.36,10.52h6.94v4.7c.15-1.13,2.43-5.22,8.63-5.22v10.24c-6.82,0-8.37,2.84-8.37,7.8v10.37l-5.45-.56c-.98-.1-1.73-.92-1.73-1.91l-.02-25.42Z"/>
  <path class="cls-3" d="M253.78,4.99h-.94v-.4h2.27v.4h-.94v2.54h-.42l.03-2.54ZM255.78,4.59h.45l1.05,1.61,1-1.61h.44v2.94h-.41v-2.25l-1.05,1.59h-.06l-1-1.59v2.25h-.42v-2.94Z"/>
</svg>